<?xml version="1.0" standalone="no"?>
<!DOCTYPE svg PUBLIC "-//W3C//DTD SVG 20010904//EN"
 "http://www.w3.org/TR/2001/REC-SVG-20010904/DTD/svg10.dtd">
<svg version="1.0" xmlns="http://www.w3.org/2000/svg"
 width="1741.000000pt" height="535.000000pt" viewBox="0 0 1741.000000 535.000000"
 preserveAspectRatio="xMidYMid meet">

<g transform="translate(0.000000,535.000000) scale(0.100000,-0.100000)"
fill="#000000" stroke="none">
<path d="M905 4820 c-136 -28 -241 -86 -350 -195 -87 -87 -143 -174 -178 -275
l-22 -65 -3 -1292 -2 -1293 345 0 345 0 0 695 0 695 350 0 350 0 0 -695 0
-695 345 0 345 0 -2 1293 -3 1292 -27 73 c-74 205 -243 372 -441 439 l-82 28
-465 2 c-256 0 -483 -2 -505 -7z m619 -369 c111 -49 187 -145 205 -261 6 -36
11 -219 11 -407 l0 -343 -351 0 -350 0 3 388 c3 376 4 388 25 435 46 98 116
163 216 199 68 24 173 20 241 -11z"/>
<path d="M3130 3265 l0 -1565 345 0 345 0 0 1565 0 1565 -345 0 -345 0 0
-1565z"/>
<path d="M4520 4655 l0 -175 345 0 345 0 0 175 0 175 -345 0 -345 0 0 -175z"/>
<path d="M11460 3265 l0 -1565 345 0 345 0 0 1565 0 1565 -345 0 -345 0 0
-1565z"/>
<path d="M15970 4480 l0 -350 -170 0 -170 0 0 -175 0 -175 170 0 169 0 4 -747
c4 -822 2 -804 66 -933 46 -91 83 -141 166 -219 90 -83 202 -144 310 -166 49
-10 136 -15 288 -15 l217 0 0 175 0 175 -32 0 c-83 0 -206 69 -258 145 -60 87
-60 89 -60 872 l0 713 175 0 175 0 0 175 0 175 -175 0 -175 0 0 350 0 350
-350 0 -350 0 0 -350z"/>
<path d="M4520 2915 l0 -1215 345 0 345 0 0 1215 0 1215 -345 0 -345 0 0
-1215z"/>
<path d="M5910 2915 l0 -1215 503 0 c546 0 609 5 763 56 370 124 677 450 781
829 l28 100 3 723 3 722 -346 0 -345 0 0 -862 c0 -504 -4 -887 -10 -922 -19
-117 -92 -215 -198 -264 -55 -26 -63 -27 -274 -30 l-218 -4 0 1041 0 1041
-345 0 -345 0 0 -1215z"/>
<path d="M9212 4110 c-97 -26 -152 -51 -227 -105 -119 -85 -222 -221 -268
-355 -22 -64 -22 -74 -25 -705 -3 -722 -3 -720 71 -868 32 -64 59 -100 126
-167 95 -94 163 -138 273 -178 l73 -27 490 0 490 0 81 27 c105 36 192 93 279
183 81 83 126 154 163 257 l27 73 0 670 0 670 -27 73 c-37 103 -82 174 -163
257 -87 90 -174 147 -279 183 l-81 27 -465 2 c-431 2 -470 1 -538 -17z m666
-364 c64 -32 133 -98 161 -154 36 -71 41 -149 41 -677 0 -528 -5 -606 -41
-677 -30 -58 -102 -126 -167 -156 -48 -23 -71 -27 -142 -27 -76 0 -93 4 -152
33 -77 37 -128 90 -167 172 l-26 55 -3 555 c-3 566 1 647 35 714 41 82 117
147 211 183 61 22 186 12 250 -21z"/>
<path d="M12850 3212 c0 -882 1 -922 20 -996 31 -122 82 -208 180 -306 94 -94
162 -138 272 -178 73 -26 74 -27 373 -27 292 0 301 1 350 23 89 41 137 102
176 222 l18 55 0 -152 1 -153 345 0 345 0 0 1215 0 1215 -345 0 -344 0 -3
-908 -3 -907 -33 -67 c-36 -74 -96 -133 -170 -170 -68 -33 -216 -33 -284 0
-74 37 -134 96 -170 170 l-33 67 -3 907 -3 908 -344 0 -345 0 0 -918z"/>
</g>
</svg>
