<svg width="168" height="168" viewBox="0 0 168 168" fill="none" xmlns="http://www.w3.org/2000/svg">
<g id="chair" filter="url(#filter0_f_6_5759)">
<rect id="Rectangle 27" x="4" y="4" width="159.678" height="159.678" rx="55" fill="#599615"/>
<g id="Group 7">
<path id="Vector" d="M65.5476 86.4246L53.7923 133.221C53.6554 133.774 53.9915 134.336 54.5475 134.472C54.6305 134.492 54.7176 134.505 54.8006 134.505C55.2654 134.505 55.6886 134.191 55.8048 133.724L67.6141 86.7136C66.9294 86.6269 66.2406 86.5278 65.5476 86.4246Z" fill="#F7941D"/>
<path id="Vector_2" d="M69.2614 86.9118L63.5228 113.995C63.4024 114.553 63.7634 115.102 64.3236 115.217C64.3942 115.234 64.4688 115.238 64.5394 115.238C65.0207 115.238 65.4523 114.904 65.5518 114.416L71.3361 87.1224C70.6556 87.0564 69.9627 86.9862 69.2614 86.9077V86.9118Z" fill="#F7941D"/>
<path id="Vector_3" d="M99.3489 86.8044L111.137 133.724C111.254 134.195 111.677 134.505 112.142 134.505C112.225 134.505 112.312 134.497 112.395 134.472C112.951 134.336 113.287 133.774 113.15 133.221L101.419 86.5278C100.726 86.6269 100.034 86.7177 99.3489 86.8003V86.8044Z" fill="#F7941D"/>
<path id="Vector_4" d="M95.6227 87.1926L101.395 114.42C101.498 114.908 101.93 115.242 102.407 115.242C102.478 115.242 102.548 115.234 102.623 115.222C103.183 115.102 103.544 114.557 103.424 113.999L97.7016 86.9944C96.9962 87.0687 96.3032 87.1389 95.6227 87.1967V87.1926Z" fill="#F7941D"/>
<path id="Vector_5" d="M60.4148 74.0164C62.8215 72.2243 65.6058 70.3827 67.9377 69.4908C73.2947 67.4344 94.9007 67.0752 99.5688 69.3173C101.664 70.3249 104.32 72.4762 106.606 74.5408C110.81 71.4067 111.926 66.5012 112.013 59.8574C112.071 55.4226 112.212 52.6148 112.536 50.8351C111.27 50.4841 109.727 49.7987 108.038 48.5062C103.54 45.0666 96.4526 32.5098 82.7968 33.1993C69.1452 32.5098 62.058 45.0666 57.5642 48.5062C56.6513 49.2041 55.7841 49.7202 54.9791 50.1084C55.4189 51.8137 55.5932 54.7619 55.6638 59.8574C55.7467 66.1379 56.7509 70.8699 60.4148 74.0164Z" fill="#ED1B34"/>
<path id="Vector_6" d="M67.9336 69.4908C65.6058 70.3828 62.8174 72.2244 60.4107 74.0164C64.3734 77.4148 71.444 78.9632 83.8342 78.604C95.5688 78.9426 102.532 77.5717 106.602 74.5367C104.312 72.4721 101.66 70.3249 99.5647 69.3133C94.8966 67.067 73.2947 67.4304 67.9336 69.4867V69.4908Z" fill="#F7941D"/>
<path id="Vector_7" d="M58.2571 84.9711C60.6057 85.5822 63.0912 86.0571 65.5518 86.4287C66.2447 86.5319 66.9335 86.6269 67.6182 86.7177C68.1701 86.7879 68.7219 86.8581 69.2655 86.916C69.9668 86.9944 70.6597 87.0687 71.3402 87.1307C78.2615 87.7872 83.8424 87.7211 83.8424 87.7211C83.8424 87.7211 89.0417 87.7831 95.6268 87.1926C96.3073 87.1307 97.0003 87.0646 97.7057 86.9903C98.2492 86.9325 98.8011 86.8705 99.3571 86.8003C100.042 86.7177 100.735 86.6269 101.428 86.5278C104.117 86.1438 106.851 85.64 109.424 84.967C120.66 82.0435 121.693 64.8413 121.693 59.684C121.693 54.5266 124.457 47.8167 117.374 47.8167C114.519 47.8167 113.175 47.3707 112.54 50.8351C112.216 52.6148 112.075 55.4226 112.017 59.8574C111.93 66.4971 110.814 71.4067 106.61 74.5408C102.54 77.5757 95.577 78.9466 83.8424 78.608C71.4523 78.9673 64.3817 77.4188 60.419 74.0205C56.755 70.8741 55.7508 66.142 55.6679 59.8615C55.6015 54.7661 55.4272 51.8178 54.9832 50.1125C54.2944 47.445 52.9458 47.8208 50.3068 47.8208C43.2196 47.8208 45.9873 54.5307 45.9873 59.6881C45.9873 64.8454 47.0246 82.0476 58.2571 84.9711Z" fill="#EF3B37"/>
</g>
</g>
<defs>
<filter id="filter0_f_6_5759" x="0" y="0" width="167.678" height="167.678" filterUnits="userSpaceOnUse" color-interpolation-filters="sRGB">
<feFlood flood-opacity="0" result="BackgroundImageFix"/>
<feBlend mode="normal" in="SourceGraphic" in2="BackgroundImageFix" result="shape"/>
<feGaussianBlur stdDeviation="2" result="effect1_foregroundBlur_6_5759"/>
</filter>
</defs>
</svg>
