<svg width="130" height="130" viewBox="0 0 130 130" fill="none" xmlns="http://www.w3.org/2000/svg">
<g id="debit cards">
<path id="Rectangle 27" d="M0 55C0 24.6243 24.6243 0 55 0H75C105.376 0 130 24.6243 130 55V75C130 105.376 105.376 130 75 130H55C24.6243 130 0 105.376 0 75V55Z" fill="#FAC93C"/>
<g id="Group 10">
<path id="Vector" d="M82.863 43.9931L80.6027 40.1394C80.2462 39.531 79.4554 39.3222 78.8372 39.6735L72.6204 43.2062L70.9522 44.1541L52.7068 54.5225H47.7972C46.8557 54.5225 45.9411 54.7042 45.0792 55.0627C44.2481 55.4091 43.5012 55.9043 42.8606 56.5348C42.2201 57.1653 41.717 57.9004 41.3656 58.7185C41.016 59.5316 40.8318 60.3921 40.8171 61.2788L28.3317 68.3738C28.2873 68.3986 28.2456 68.4261 28.2057 68.4554C27.9134 68.6696 27.7352 68.988 27.6944 69.3267C27.6623 69.5897 27.7136 69.8648 27.8584 70.1119L30.1187 73.9656C30.4756 74.574 31.266 74.7828 31.8841 74.4315L33.9717 73.2454L36.2869 71.9299H36.2874L40.8157 69.356V77.6412C39.3884 78.7615 38.6631 80.501 38.812 82.2314C38.8304 82.4497 38.8629 82.668 38.9101 82.8854C39.0251 83.4162 39.2249 83.9384 39.5154 84.4341C39.5204 84.4426 39.5254 84.4512 39.5305 84.4593C39.8741 85.0389 40.3131 85.53 40.8157 85.9251V93.0809C40.8157 93.7277 40.9055 94.3618 41.0838 94.9738C41.1172 95.0883 41.1539 95.202 41.1933 95.3143C41.065 95.2574 40.939 95.1956 40.8157 95.1289C39.9974 94.686 39.2881 94.0244 38.7868 93.1707L35.6074 87.7502L30.488 79.0217L30.0174 78.2194L28.8179 76.1746L26.2483 71.7937L24.224 68.3422L22.6913 65.7296C22.4911 65.3887 22.3349 65.0342 22.2208 64.6734C21.4987 62.3981 22.4439 59.8545 24.6291 58.6134L26.3482 57.6361L38.6558 50.6421L63.4378 36.5581L65.1262 35.5984L72.0995 31.636C74.631 30.1973 77.8686 31.0515 79.3298 33.5432L80.862 36.1558L85.4563 43.9882L86.6559 46.0334L91.6356 54.5234H66.9173L67.7356 54.0584L82.3892 45.7313C83.0073 45.3804 83.2194 44.602 82.862 43.9936L82.863 43.9931Z" fill="#323231"/>
<path id="Vector_2" d="M102.171 56.2658H47.3292C44.8056 56.2658 42.6937 58.0071 42.1624 60.3388C42.0781 60.7091 42.0336 61.0935 42.0336 61.4886V93.257C42.0336 93.446 42.0437 93.6327 42.0639 93.8168C42.1363 94.4878 42.3375 95.1203 42.6424 95.6909C42.691 95.7814 42.7419 95.8709 42.7959 95.9582C43.1668 96.5627 43.6582 97.0867 44.2381 97.4987C45.1077 98.1163 46.1754 98.4803 47.3292 98.4803H102.17C105.095 98.4803 107.466 96.1417 107.466 93.257V61.4886C107.466 58.6039 105.095 56.2658 102.17 56.2658H102.171ZM52.4946 91.3466C52.4694 91.3466 52.4451 91.3466 52.4204 91.3466C50.1686 91.3163 48.2502 89.9242 47.4741 87.9672C47.2394 87.3758 47.1087 86.7329 47.1051 86.0601V86.0307C47.1051 85.725 47.1312 85.4257 47.1816 85.1345C47.2256 84.8786 47.288 84.6294 47.3677 84.3875C47.4374 84.1759 47.5199 83.9702 47.6148 83.7713C47.9531 83.0614 48.4459 82.4378 49.0506 81.9414C49.7882 81.3364 50.6917 80.9222 51.6842 80.7744C51.9487 80.7346 52.2191 80.7142 52.4951 80.7142C53.0938 80.7142 53.6696 80.8105 54.2082 80.9887C54.5364 81.0968 54.85 81.2351 55.1466 81.4011C54.9893 81.5281 54.839 81.6624 54.6955 81.8035C54.4214 82.0739 54.1724 82.3714 53.9561 82.6874C53.737 83.0071 53.549 83.3489 53.3968 83.703C53.0805 84.4404 52.9205 85.2231 52.9205 86.0298C52.9205 86.8364 53.0805 87.6191 53.3968 88.3565C53.549 88.7106 53.737 89.0529 53.9561 89.3721C54.1381 89.6375 54.3421 89.8898 54.5658 90.1236C54.6079 90.1683 54.651 90.2126 54.6955 90.256C54.8385 90.3971 54.9893 90.5314 55.1466 90.6585C54.3636 91.0957 53.4592 91.3457 52.4951 91.3457L52.4946 91.3466ZM64.3511 86.4756C64.1219 89.203 61.8051 91.3466 58.9803 91.3466C58.372 91.3466 57.7866 91.2472 57.2406 91.0636C57.0504 90.9994 56.8652 90.9252 56.685 90.8411C56.3485 90.6851 56.0313 90.4952 55.7375 90.2768C55.7375 90.2768 55.7375 90.2768 55.737 90.2764C55.7173 90.2619 55.6976 90.247 55.6783 90.2321C55.6774 90.2316 55.6765 90.2307 55.6756 90.2303C55.5757 90.1534 55.4785 90.0738 55.3845 89.9906C55.3836 89.9902 55.3827 89.9888 55.3817 89.9884C55.3634 89.9721 55.3455 89.9563 55.3277 89.9395C55.3272 89.9395 55.3263 89.9386 55.3258 89.9377C55.2708 89.8875 55.2163 89.836 55.1631 89.784C55.1443 89.7655 55.1264 89.7474 55.1081 89.7288L55.1062 89.727C55.0893 89.7098 55.0728 89.6931 55.0567 89.6755C55.0554 89.6741 55.0544 89.6728 55.0531 89.6714C55.0366 89.6538 55.0196 89.6361 55.0031 89.6185C55.0031 89.6185 55.0031 89.6185 55.0031 89.6181C54.9513 89.5629 54.9013 89.5059 54.8523 89.4485C54.8523 89.4485 54.8523 89.448 54.8518 89.448C54.8362 89.4295 54.8211 89.4114 54.806 89.3929C54.8041 89.3911 54.8028 89.3893 54.8014 89.387C54.7867 89.3694 54.7725 89.3522 54.7583 89.3346C54.7569 89.3327 54.7551 89.3314 54.7542 89.3291C54.6918 89.2523 54.6318 89.1727 54.574 89.0922C54.5722 89.0899 54.5708 89.0877 54.569 89.085C54.5566 89.0678 54.5438 89.0501 54.5318 89.0321C54.53 89.0294 54.5277 89.0262 54.5254 89.0235C54.513 89.0054 54.5007 88.9873 54.4883 88.9688C54.4869 88.967 54.486 88.9651 54.4842 88.9629C54.4429 88.9014 54.4026 88.839 54.3641 88.7752C54.3622 88.773 54.3609 88.7703 54.3595 88.7676C54.3485 88.7495 54.3375 88.7314 54.3265 88.7133L54.3196 88.7011C54.3095 88.6839 54.2994 88.6663 54.2893 88.6486C54.2875 88.6446 54.2848 88.641 54.2829 88.6369C54.2719 88.6179 54.2609 88.5984 54.2499 88.5795C54.249 88.5776 54.2481 88.5758 54.2467 88.574C54.2229 88.5302 54.199 88.4863 54.1761 88.442C54.1752 88.4402 54.1743 88.4379 54.1729 88.4357C54.1633 88.4162 54.1532 88.3972 54.1436 88.3783C54.1413 88.3737 54.139 88.3688 54.1362 88.3638C54.128 88.3466 54.1193 88.3294 54.111 88.3122C54.1083 88.3068 54.106 88.3014 54.1032 88.2964C54.095 88.2792 54.0867 88.2616 54.0785 88.244C54.0766 88.2394 54.0743 88.2349 54.0725 88.2304C54.0624 88.2091 54.0528 88.1879 54.0432 88.1666C54.0432 88.1662 54.0432 88.1657 54.0427 88.1648C54.0326 88.1413 54.0225 88.1187 54.0125 88.0947C54.0125 88.0947 54.0125 88.0943 54.012 88.0938C54.0028 88.0721 53.9937 88.0504 53.985 88.0287C53.9827 88.0233 53.9804 88.0183 53.9785 88.0129C53.9717 87.9957 53.9648 87.9785 53.9575 87.9614C53.9552 87.955 53.9529 87.9487 53.9501 87.9424C53.9437 87.9256 53.9373 87.9089 53.9313 87.8922C53.929 87.8859 53.9263 87.8795 53.9244 87.8732C53.9176 87.8551 53.9112 87.837 53.9047 87.8194C53.9029 87.8149 53.9011 87.8099 53.8992 87.8049C53.8827 87.7588 53.8667 87.7127 53.8516 87.6661C53.8497 87.6611 53.8483 87.6557 53.8465 87.6507C53.8406 87.6326 53.8351 87.6146 53.8296 87.5969C53.8273 87.5897 53.825 87.5825 53.8227 87.5757C53.8176 87.5594 53.8131 87.5431 53.808 87.5268C53.8062 87.5192 53.8034 87.5119 53.8016 87.5042C53.797 87.488 53.792 87.4712 53.7874 87.4545C53.7855 87.4477 53.7833 87.4405 53.7814 87.4337C53.7759 87.4143 53.7704 87.3948 53.7654 87.3749C53.7645 87.3708 53.7635 87.3672 53.7622 87.3636C53.7562 87.3396 53.7498 87.3152 53.7438 87.2913C53.7429 87.2877 53.742 87.2836 53.7411 87.2795C53.736 87.2601 53.7315 87.2402 53.7269 87.2207C53.725 87.2135 53.7237 87.2058 53.7218 87.1981C53.7182 87.1819 53.7145 87.1656 53.7108 87.1493C53.709 87.1412 53.7076 87.1326 53.7053 87.124C53.7021 87.1081 53.6989 87.0923 53.6957 87.0765C53.6939 87.0679 53.6925 87.0593 53.6907 87.0512C53.6874 87.034 53.6842 87.0173 53.681 87.0001C53.6801 86.9933 53.6787 86.9861 53.6774 86.9793C53.6686 86.9309 53.6599 86.8825 53.6526 86.8341C53.6517 86.8269 53.6508 86.8197 53.6494 86.812C53.6466 86.7948 53.6444 86.7781 53.6421 86.7604C53.6407 86.7519 53.6393 86.7428 53.6384 86.7342C53.6366 86.7184 53.6343 86.7026 53.6324 86.6867C53.6315 86.6772 53.6301 86.6682 53.6292 86.6587C53.6274 86.6429 53.6256 86.6266 53.6237 86.6108C53.6228 86.6022 53.6219 86.5936 53.6205 86.585C53.6187 86.5665 53.6168 86.5475 53.615 86.5285C53.6146 86.5226 53.6136 86.5167 53.6132 86.5109C53.6109 86.486 53.6086 86.4616 53.6068 86.4367C53.6068 86.4308 53.6063 86.4249 53.6058 86.4191C53.604 86.4005 53.6031 86.3815 53.6017 86.3625C53.6013 86.3535 53.6008 86.3445 53.6003 86.3359C53.5994 86.3196 53.5985 86.3033 53.5976 86.287C53.5976 86.2775 53.5967 86.268 53.5962 86.2586C53.5958 86.2427 53.5953 86.2264 53.5944 86.2111C53.5944 86.2016 53.5939 86.1921 53.5935 86.1826C53.5935 86.1654 53.5926 86.1482 53.5926 86.1315C53.5926 86.1234 53.5926 86.1152 53.5921 86.1071C53.5921 86.0822 53.5921 86.0569 53.5921 86.032V86.0307C53.5921 86.0058 53.5921 85.9805 53.5921 85.9561C53.5921 85.9479 53.5921 85.9393 53.5926 85.9312C53.5926 85.914 53.593 85.8973 53.5935 85.8801C53.5935 85.8706 53.5939 85.8611 53.5944 85.8516C53.5948 85.8358 53.5953 85.82 53.5962 85.8041C53.5962 85.7946 53.5971 85.7851 53.5976 85.7756C53.5985 85.7594 53.5994 85.7435 53.6003 85.7273C53.6003 85.7182 53.6008 85.7092 53.6017 85.7001C53.6031 85.6812 53.604 85.6626 53.6058 85.6436C53.6058 85.6377 53.6063 85.6319 53.6068 85.626C53.6086 85.6011 53.6109 85.5763 53.6132 85.5518C53.6132 85.546 53.6141 85.5401 53.615 85.5342C53.6168 85.5157 53.6182 85.4967 53.6205 85.4777C53.6214 85.4691 53.6223 85.4605 53.6237 85.4519C53.6256 85.4361 53.6269 85.4198 53.6292 85.4035C53.6301 85.394 53.6315 85.385 53.6324 85.3764C53.6343 85.3606 53.6366 85.3447 53.6384 85.3289C53.6393 85.3203 53.6407 85.3113 53.6421 85.3022C53.6444 85.2851 53.6466 85.2683 53.6494 85.2516C53.6503 85.2439 53.6512 85.2367 53.6526 85.2294C53.6599 85.1806 53.6686 85.1327 53.6774 85.0843C53.6787 85.0771 53.6801 85.0698 53.681 85.0631C53.6842 85.0459 53.6874 85.0291 53.6907 85.012C53.6925 85.0038 53.6939 84.9948 53.6962 84.9866C53.6994 84.9708 53.7026 84.955 53.7058 84.9392C53.7076 84.9306 53.7094 84.922 53.7113 84.9138L53.7223 84.865C53.7241 84.8573 53.7255 84.8496 53.7273 84.8424C53.7319 84.823 53.7365 84.8031 53.7415 84.7836C53.742 84.7796 53.7434 84.7755 53.7443 84.7714C53.7502 84.7475 53.7567 84.7235 53.7626 84.7C53.7635 84.6959 53.7645 84.6923 53.7658 84.6882C53.7709 84.6688 53.7764 84.6489 53.7819 84.6294C53.7837 84.6227 53.786 84.6159 53.7878 84.6086C53.7924 84.5919 53.7975 84.5756 53.802 84.5589C53.8039 84.5512 53.8066 84.5435 53.8089 84.5363C53.8135 84.52 53.8185 84.5037 53.8236 84.4875C53.8259 84.4802 53.8282 84.473 53.8305 84.4658C53.836 84.4477 53.8415 84.43 53.8474 84.4124C53.8493 84.407 53.8506 84.402 53.8525 84.3966C53.8676 84.35 53.8836 84.3034 53.9001 84.2578C53.902 84.2528 53.9034 84.2483 53.9057 84.2433C53.9121 84.2248 53.9189 84.2071 53.9254 84.1895C53.9272 84.1832 53.9299 84.1768 53.9322 84.1705C53.9382 84.1538 53.9446 84.137 53.951 84.1208C53.9538 84.114 53.9561 84.1077 53.9584 84.1013C53.9652 84.0841 53.9721 84.067 53.9795 84.0498C53.9813 84.0448 53.9836 84.0394 53.9859 84.0344C53.9946 84.0122 54.0037 83.9905 54.0129 83.9693C54.0129 83.9693 54.0129 83.9688 54.0134 83.9679C54.0235 83.9444 54.0335 83.9214 54.0436 83.8983C54.0436 83.8983 54.0441 83.8974 54.0441 83.8965C54.0537 83.8752 54.0633 83.854 54.0734 83.8327C54.0753 83.8282 54.0776 83.8237 54.0794 83.8192C54.0876 83.8015 54.0959 83.7844 54.1041 83.7667C54.1069 83.7618 54.1092 83.7563 54.1119 83.7509C54.1202 83.7337 54.1289 83.7165 54.1371 83.6994C54.1394 83.6948 54.1417 83.6903 54.1445 83.6853C54.1541 83.6659 54.1642 83.6469 54.1738 83.6275C54.1747 83.6257 54.1757 83.6234 54.177 83.6216C54.2 83.5773 54.2238 83.5334 54.2476 83.4896C54.2485 83.4878 54.2495 83.4859 54.2508 83.4841C54.2614 83.4647 54.2719 83.4457 54.2834 83.4267C54.2852 83.4226 54.2875 83.419 54.2898 83.415C54.2999 83.3978 54.31 83.3801 54.3205 83.3625C54.3223 83.3584 54.3251 83.3548 54.3274 83.3503C54.3384 83.3322 54.3494 83.3141 54.3604 83.2956C54.3622 83.2933 54.3636 83.2911 54.365 83.2883C54.4044 83.225 54.4443 83.1622 54.486 83.1003C54.4874 83.0984 54.4883 83.0966 54.4897 83.0944C54.502 83.0758 54.5149 83.0577 54.5273 83.0397C54.5291 83.0365 54.5309 83.0338 54.5332 83.0311C54.5456 83.013 54.558 82.9954 54.5708 82.9777C54.5722 82.9755 54.574 82.9732 54.5754 82.9709C54.6332 82.89 54.6932 82.8109 54.7556 82.7336C54.7565 82.7317 54.7583 82.7304 54.7592 82.7286C54.7739 82.7109 54.7881 82.6933 54.8023 82.6761C54.8037 82.6743 54.8055 82.6725 54.8069 82.6707C54.8225 82.6522 54.8381 82.6336 54.8532 82.6155C54.8532 82.6155 54.8532 82.6151 54.8537 82.6151C54.9032 82.5577 54.9531 82.5007 55.0045 82.4451C55.021 82.427 55.0379 82.4089 55.0549 82.3913C55.0558 82.3904 55.0567 82.389 55.0581 82.3881C55.0746 82.3709 55.0911 82.3533 55.1081 82.3366C55.1085 82.3361 55.1094 82.3352 55.1099 82.3348C55.1805 82.2633 55.2529 82.1937 55.3277 82.1254C55.3277 82.1254 55.3286 82.125 55.329 82.1241C55.3474 82.1078 55.3652 82.0915 55.3836 82.0752C55.384 82.0748 55.3854 82.0739 55.3859 82.0734C55.4803 81.9902 55.5775 81.9102 55.6774 81.8333C55.6779 81.8329 55.6788 81.832 55.6797 81.8315C55.699 81.8166 55.7191 81.8017 55.7389 81.7867C56.641 81.1148 57.7641 80.7169 58.9817 80.7169C61.4732 80.7169 63.5695 82.3836 64.187 84.6489C64.3071 85.0902 64.3713 85.5541 64.3713 86.0329C64.3713 86.183 64.3649 86.3313 64.3525 86.4783L64.3511 86.4756ZM85.6129 87.3442H76.1828C75.4475 87.3442 74.8511 86.7559 74.8511 86.0307C74.8511 85.3054 75.4475 84.7172 76.1828 84.7172H85.6129C86.3482 84.7172 86.9446 85.3054 86.9446 86.0307C86.9446 86.7559 86.3482 87.3442 85.6129 87.3442ZM100.832 87.3442H91.4018C90.6665 87.3442 90.0701 86.7559 90.0701 86.0307C90.0701 85.3054 90.6665 84.7172 91.4018 84.7172H100.832C101.567 84.7172 102.164 85.3054 102.164 86.0307C102.164 86.7559 101.567 87.3442 100.832 87.3442ZM105.217 72.3055C105.217 73.01 104.638 73.5806 103.924 73.5806H45.5767C44.8625 73.5806 44.284 73.01 44.284 72.3055V67.8441C44.284 67.5584 44.3793 67.2948 44.5402 67.0822C44.7479 66.8082 45.0637 66.6192 45.4259 66.5776C45.4754 66.5718 45.5258 66.569 45.5767 66.569H103.923C104.638 66.569 105.216 67.1397 105.216 67.8441V72.3055H105.217Z" fill="#323231"/>
</g>
</g>
</svg>
