<svg width="31" height="20" viewBox="0 0 31 20" fill="none" xmlns="http://www.w3.org/2000/svg">
<g id="Group">
<path id="Vector" d="M30.9907 0.0465088V19.4314L30.9814 19.4407H0.0279541V0.0465088H30.9907Z" fill="#2E4593"/>
<g id="Group_2">
<path id="Vector_2" d="M30.9907 17.4139V19.4314L30.9814 19.4407H27.7614L18.2594 13.4811L17.3102 12.8861L16.1841 12.1888L15.8118 11.947L14.6671 11.2311L14.239 10.9708L13.8854 10.7477L13.1688 10.3014L12.9361 10.1527L12.5824 9.92952L9.20418 7.81902L7.68722 6.8614L0.0279541 2.06399V0.0464675L0.0465671 0.00927734L0.111713 0.0464675H3.24801L12.9361 6.10832L13.8854 6.70335L14.1366 6.8614L15.6536 7.81902L15.8118 7.912L16.3888 8.2746L17.3102 8.85103L17.4591 8.9533L18.2594 9.44606L19.0319 9.92952L21.1165 11.2311L22.6335 12.1888L30.9907 17.4139Z" fill="#FCF5FF"/>
<path id="Vector_3" d="M30.9907 19.3756L31 19.45L28.9247 19.4407L18.2594 12.7559L17.3474 12.1888L17.3101 12.1609L16.3888 11.5845L15.8397 11.2312L14.8253 10.599L13.8854 10.0132L13.7551 9.92954L13.1688 9.56695L12.9361 9.41819L10.3768 7.81905L8.85984 6.86142L0.0279541 1.32952V0L0.0465671 0.00929931L0.111713 0.0464895L11.0003 6.86142L12.5173 7.81905L12.9361 8.07008L13.8854 8.67441L14.239 8.89754L14.8253 9.26013L15.8956 9.92954L17.3101 10.8128L17.4591 10.9151L17.9802 11.2312L18.2594 11.4078L19.4972 12.1888L30.9907 19.3756Z" fill="#F42525"/>
</g>
<g id="Group_3">
<path id="Vector_4" d="M30.9907 0.427695V2.44521L23.9271 6.86144L22.4101 7.81907L19.0319 9.92956L18.2594 10.413L17.4591 10.9151L17.3102 11.008L16.9472 11.2312L16.3888 11.5845L15.8118 11.9471L15.4302 12.1888L13.8854 13.1557L12.9361 13.7508L3.85293 19.4407H0.0279541V17.7951L8.98082 12.1888L10.4978 11.2312L12.5824 9.92956L12.9361 9.71572L13.1688 9.56697L13.8854 9.1114L14.239 8.89756L15.8118 7.91204L15.9607 7.81907L17.3102 6.97301L17.4777 6.86144L18.2594 6.37798L28.3663 0.0465088H30.7395L30.9907 0.427695Z" fill="#FCF5FF"/>
<path id="Vector_5" d="M30.907 0.529967L20.7908 6.86144L19.2738 7.81907L18.2594 8.45128L17.4591 8.95334L17.3102 9.04631L15.8956 9.92956L14.8253 10.599L14.239 10.9709L13.8854 11.194L13.8109 11.2312L12.9361 11.789L12.2939 12.1888L0.725943 19.4407H0.0279541V18.5296L10.1441 12.1888L11.6611 11.2312L12.9361 10.4409L13.1688 10.3015L13.7551 9.92956L13.8854 9.84588L14.8253 9.26015L16.3888 8.27464L17.124 7.81907L17.3102 7.6982L18.2594 7.10317L18.641 6.86144L29.5296 0.0465088H30.6092H30.9907V0.464886L30.907 0.529967Z" fill="#F42525"/>
</g>
<path id="Vector_6" d="M31 6.86145H0V12.1795H31V6.86145Z" fill="white"/>
<path id="Vector_7" d="M31 7.81909H0V11.2405H31V7.81909Z" fill="#F42525"/>
<path id="Vector_8" d="M17.3102 0.0465088H13.8854V19.4407H17.3102V0.0465088Z" fill="#CD002A"/>
<g id="Group_4">
<path id="Vector_9" d="M17.3008 12.1888H18.2501V19.4407H12.9268V12.1888H13.876V6.86144H12.9268V0.0465088H18.2501V6.86144H17.3008V12.1888Z" fill="white"/>
<path id="Vector_10" d="M17.3194 0.0465088H13.8574V19.4407H17.3194V0.0465088Z" fill="#F42525"/>
</g>
</g>
</svg>
