<svg width="168" height="168" viewBox="0 0 168 168" fill="none" xmlns="http://www.w3.org/2000/svg">
<g id="gift" filter="url(#filter0_f_11_5969)">
<rect id="Rectangle 26" x="4" y="4" width="159.678" height="159.678" rx="55" fill="#BAF2E9"/>
<g id="Group 9">
<path id="Vector" fill-rule="evenodd" clip-rule="evenodd" d="M51.7059 53.7261C52.2505 54.1863 52.8806 54.5739 53.602 54.8629C53.6554 54.8843 53.7017 54.9235 53.7325 54.977C53.8037 55.1031 53.7598 55.2648 53.6341 55.3361C52.0796 56.222 50.6724 57.1507 49.398 58.1008C48.1307 59.0473 46.9951 60.0152 45.9782 60.9831C45.9142 61.0509 45.8157 61.083 45.7196 61.0568L32.9686 57.6334C32.8891 57.612 32.8203 57.5526 32.7894 57.4682C32.7396 57.3314 32.8108 57.1804 32.9472 57.1305L49.4751 51.1315C49.6032 51.0756 49.7551 51.1303 49.8168 51.2576C49.8821 51.3919 49.9497 51.5215 50.0186 51.6464C50.0874 51.7724 50.1609 51.8961 50.2369 52.0174C50.6332 52.6512 51.1209 53.2303 51.7059 53.7249V53.7261ZM116.291 53.7261C116.878 53.2314 117.364 52.6524 117.76 52.0186C117.836 51.8961 117.91 51.7724 117.979 51.6476C118.042 51.5322 118.109 51.4026 118.179 51.2587C118.237 51.1398 118.379 51.0804 118.506 51.1267L135.036 57.1269C135.12 57.1531 135.19 57.2196 135.214 57.3112C135.252 57.4515 135.168 57.5966 135.027 57.6346L122.277 61.058C122.191 61.0806 122.096 61.0592 122.027 60.9938C120.965 59.9807 119.77 58.9676 118.43 57.9771C117.202 57.0698 115.85 56.1851 114.367 55.3397C114.315 55.3112 114.272 55.266 114.248 55.2065C114.195 55.071 114.26 54.9176 114.394 54.8641C115.115 54.5751 115.746 54.1875 116.29 53.7273L116.291 53.7261ZM85.6658 43.2431C85.2018 44.3489 84.7343 45.5202 84.2621 46.7545C84.2276 46.8603 84.128 46.9364 84.0117 46.9364H83.9856C83.88 46.9364 83.7791 46.871 83.74 46.7664C83.2665 45.5273 82.7978 44.3513 82.3315 43.2431C81.8628 42.1265 81.3882 41.054 80.9064 40.029L80.8969 40.0064C80.8471 39.8696 80.9183 39.7186 81.0547 39.6687L83.9096 38.633C83.9654 38.6128 84.0283 38.6116 84.0888 38.633L86.9354 39.6663C86.9461 39.6699 86.9568 39.6734 86.9675 39.6794C87.0992 39.7412 87.1549 39.8982 87.0932 40.0302C86.6115 41.0552 86.1368 42.1277 85.6681 43.2443L85.6658 43.2431ZM101.431 65.5956L86.8144 58.1269C86.723 58.0853 86.6601 57.9937 86.6601 57.8867C86.6601 57.7405 86.7788 57.6227 86.9236 57.6227H88.4068C88.5278 57.6227 88.6358 57.5752 88.7141 57.4979C88.7924 57.4218 88.8422 57.316 88.8458 57.2006C88.8458 57.1709 88.8494 57.14 88.86 57.1103C88.9075 56.9735 89.0582 56.901 89.1947 56.9485C90.2816 57.3302 92.3533 58.2054 95.1857 60.064C97.0451 61.284 99.2379 62.9332 101.707 65.1521C101.808 65.227 101.842 65.3661 101.783 65.4826C101.717 65.6122 101.559 65.6646 101.428 65.598L101.431 65.5956ZM67.0863 66.3174C66.957 66.384 66.9048 66.5421 66.9712 66.6729C67.008 66.7443 67.0733 66.793 67.1456 66.8097L83.931 71.3163C83.9785 71.3294 84.0259 71.3282 84.0698 71.3163L100.86 66.8085C101 66.7704 101.084 66.6265 101.046 66.485C101.026 66.4101 100.975 66.3507 100.911 66.3174L84.1173 57.7357C84.039 57.6965 83.9512 57.6989 83.8788 57.7357L67.0851 66.3174H67.0863ZM72.8104 60.0616C75.6427 58.203 77.7145 57.3279 78.8014 56.9462C78.8275 56.9378 78.8548 56.9319 78.8833 56.9319C79.0281 56.9295 79.1479 57.0448 79.1503 57.1911C79.1526 57.31 79.2025 57.4182 79.2832 57.4967C79.3615 57.574 79.4706 57.6216 79.5905 57.6216H81.0737C81.1698 57.6216 81.2624 57.6739 81.3087 57.7666C81.3751 57.8962 81.3229 58.0556 81.1936 58.121L66.5666 65.5956C66.4634 65.6479 66.3328 65.6265 66.2521 65.5361C66.156 65.4279 66.1643 65.2615 66.2723 65.1651C68.7475 62.9392 70.9474 61.2863 72.8104 60.0628V60.0616Z" fill="#FFD95C"/>
<path id="Vector_2" fill-rule="evenodd" clip-rule="evenodd" d="M51.7058 53.7261C52.2504 54.1863 52.8805 54.5739 53.602 54.8629C53.6554 54.8843 53.7016 54.9235 53.7325 54.977C53.8037 55.1031 53.7598 55.2648 53.634 55.3361C52.0796 56.222 50.6723 57.1507 49.3979 58.1008C48.1306 59.0473 46.9951 60.0152 45.9782 60.9831C45.9141 61.0509 45.8156 61.083 45.7195 61.0568L41.7421 59.989C44.1746 57.5324 47.7414 54.9663 50.9535 52.9865C51.1837 53.2493 51.4341 53.4966 51.7058 53.7261ZM82.3314 43.2431C81.8627 42.1265 81.3881 41.054 80.9063 40.029L80.8969 40.0064C80.847 39.8696 80.9182 39.7186 81.0547 39.6687L83.9096 38.633C83.9653 38.6128 84.0282 38.6116 84.0887 38.633L86.9354 39.6663C86.946 39.6699 86.9567 39.6734 86.9674 39.6794C87.0991 39.7412 87.1549 39.8982 87.0932 40.0302C86.6114 41.0552 86.1368 42.1277 85.6681 43.2443C85.2041 44.3501 84.7366 45.5214 84.2644 46.7557C84.23 46.8615 84.1303 46.9376 84.014 46.9376H83.9879C83.8823 46.9376 83.7814 46.8722 83.7423 46.7675C83.2688 45.5285 82.8001 44.3525 82.3338 43.2443L82.3314 43.2431ZM71.3971 67.9512C77.1924 64.6122 84.0354 61.2364 84.0354 61.2364L96.549 67.9643L100.86 66.8073C101 66.7692 101.084 66.6253 101.046 66.4838C101.026 66.4089 100.975 66.3495 100.911 66.3162L84.1172 57.7345C84.0389 57.6953 83.9511 57.6977 83.8787 57.7345L67.0851 66.3162C66.9557 66.3828 66.9035 66.5409 66.97 66.6717C67.0068 66.7431 67.072 66.7918 67.1444 66.8085L71.3971 67.95V67.9512ZM125.375 60.2245C123.927 58.9034 122.344 57.4896 120.971 56.335C119.556 55.1447 118.019 54.1565 116.659 53.3896C116.541 53.5049 116.417 53.6167 116.29 53.7249C115.746 54.1851 115.115 54.5727 114.394 54.8617C114.259 54.9152 114.193 55.0686 114.248 55.2041C114.272 55.2636 114.314 55.31 114.367 55.3373C115.85 56.1828 117.201 57.0686 118.43 57.9747C119.77 58.964 120.964 59.9783 122.027 60.9914C122.096 61.0568 122.191 61.0782 122.276 61.0556L125.375 60.2233V60.2245ZM101.429 65.5944L86.8131 58.1257C86.7218 58.0841 86.6589 57.9926 86.6589 57.8855C86.6589 57.7393 86.7775 57.6216 86.9223 57.6216H88.4055C88.5266 57.6216 88.6345 57.574 88.7129 57.4967C88.7912 57.4206 88.841 57.3148 88.8446 57.1994C88.8446 57.1697 88.8481 57.1388 88.8588 57.1091C88.9063 56.9723 89.057 56.8998 89.1934 56.9473C90.2803 57.329 92.3521 58.2042 95.1845 60.0628C97.0438 61.2828 99.2366 62.932 101.706 65.1509C101.807 65.2258 101.841 65.3649 101.782 65.4814C101.715 65.6111 101.558 65.6634 101.427 65.5968L101.429 65.5944ZM72.8091 60.0604C75.6415 58.2018 77.7133 57.3267 78.8002 56.945C78.8263 56.9366 78.8536 56.9307 78.882 56.9307C79.0268 56.9283 79.1466 57.0437 79.149 57.1899C79.1514 57.3088 79.2012 57.417 79.2819 57.4955C79.3602 57.5728 79.4694 57.6204 79.5892 57.6204H81.0725C81.1686 57.6204 81.2611 57.6727 81.3074 57.7654C81.3739 57.8951 81.3216 58.0544 81.1923 58.1198L66.5653 65.5944C66.4621 65.6467 66.3316 65.6253 66.2509 65.535C66.1548 65.4267 66.1631 65.2603 66.2711 65.164C68.7463 62.938 70.9462 61.2851 72.8091 60.0616V60.0604Z" fill="#FAB725"/>
<path id="Vector_3" fill-rule="evenodd" clip-rule="evenodd" d="M84.6334 72.0749L102.283 67.3363C102.303 67.3316 102.324 67.328 102.345 67.328C102.49 67.3256 102.61 67.441 102.614 67.586L102.926 83.5365C102.928 83.6506 102.856 83.7565 102.743 83.7921L84.8067 89.5331C84.7746 89.5462 84.7402 89.5545 84.7034 89.5545C84.5575 89.5545 84.44 89.4368 84.44 89.2905V72.3317C84.44 72.2152 84.5183 72.1081 84.6358 72.0772L84.6334 72.0749ZM101.403 85.5009C101.403 85.3558 101.287 85.2369 101.142 85.2369C101.111 85.2369 101.083 85.2416 101.056 85.2512L84.6227 90.5105C84.5112 90.5462 84.44 90.6496 84.44 90.7614V139.874C84.44 140.021 84.5575 140.138 84.7034 140.138C84.7473 140.138 84.7877 140.128 84.8245 140.109L101.031 133.185C101.135 133.139 101.196 133.036 101.191 132.928L101.407 85.4997L101.403 85.5009ZM112.838 81.8468C112.842 81.7017 112.727 81.5804 112.582 81.5769C112.549 81.5769 112.517 81.5816 112.488 81.5923L102.464 84.8005C102.353 84.8362 102.281 84.9384 102.281 85.0502L102.067 132.343C102.067 132.488 102.183 132.607 102.328 132.607C102.364 132.607 102.4 132.6 102.432 132.586L111.452 128.733C111.555 128.689 111.615 128.588 111.613 128.483L112.841 81.8468H112.838ZM116.594 80.2784L132.621 75.1487C132.661 75.1332 132.707 75.1272 132.753 75.1332C132.896 75.1534 132.997 75.2866 132.977 75.4305C131.407 86.6376 130.645 97.1314 130.281 105.228C129.918 113.304 129.95 118.992 129.969 120.628C129.976 120.737 129.916 120.843 129.81 120.888L112.868 128.126C112.835 128.14 112.798 128.148 112.759 128.146C112.614 128.143 112.499 128.023 112.503 127.876L113.697 82.5032C113.693 82.3962 113.754 82.2927 113.86 82.2487C113.994 82.1928 114.148 82.257 114.204 82.3914C114.315 82.6578 114.414 82.9098 114.5 83.131C114.634 83.4806 114.707 83.6911 114.735 83.7743L114.739 83.7933C114.757 83.8635 114.794 83.9289 114.844 83.9824C114.891 84.0335 114.953 84.0752 115.024 84.0989C115.139 84.1382 115.259 84.1263 115.359 84.0763C115.456 84.0276 115.536 83.9432 115.576 83.8338L115.579 83.8219C115.587 83.7993 116.039 82.4794 116.415 80.4793C116.433 80.3878 116.499 80.3069 116.594 80.2772V80.2784ZM116.472 71.8251C116.755 73.1807 116.956 74.7123 116.902 76.2069C116.885 76.6909 116.854 77.1618 116.813 77.6172C116.773 78.0691 116.722 78.5114 116.664 78.9407C116.645 79.0845 116.746 79.2177 116.889 79.2367C116.934 79.2427 116.978 79.2367 117.018 79.2225L134.361 73.6718C134.46 73.6409 134.528 73.5553 134.542 73.4578L136.708 58.4717C136.728 58.3278 136.628 58.1946 136.485 58.1732C136.448 58.1684 136.412 58.1708 136.379 58.1791L123.29 61.6941C123.15 61.7321 123.066 61.876 123.104 62.0175C123.117 62.0663 123.143 62.1091 123.177 62.1412C128.857 68.0783 130.177 73.6492 130.205 73.7717L130.209 73.7871C130.234 73.9013 130.211 74.0154 130.155 74.1082C130.097 74.2045 130.002 74.2782 129.886 74.3068C129.82 74.3234 129.751 74.3234 129.687 74.3092C129.621 74.2949 129.56 74.2652 129.507 74.2235L129.494 74.214C129.347 74.1058 128.537 73.5196 127.179 72.7205C125.815 71.9155 123.895 70.8929 121.542 69.9262C120.106 69.3352 118.935 68.9309 117.998 68.655C117.057 68.378 116.345 68.2281 115.836 68.1473C115.692 68.1247 115.558 68.2234 115.537 68.3673C115.53 68.4136 115.536 68.4588 115.551 68.5005C115.824 69.2912 116.188 70.4684 116.472 71.8263V71.8251ZM103.791 83.1001L103.485 67.4505C103.48 67.3779 103.506 67.3042 103.561 67.2483C103.663 67.1449 103.83 67.1449 103.932 67.2483C106.307 69.623 108.221 72.038 109.74 74.2616C111.253 76.4781 112.374 78.5066 113.168 80.119C113.239 80.2427 113.2 80.4009 113.078 80.4758H113.076C113.058 80.4865 113.039 80.496 113.018 80.5019L104.142 83.3427C104.116 83.3522 104.089 83.3569 104.059 83.3581C103.914 83.3605 103.794 83.2452 103.791 83.1001Z" fill="#FAB725"/>
<path id="Vector_4" fill-rule="evenodd" clip-rule="evenodd" d="M54.2985 82.4891L55.4934 127.865C55.497 127.906 55.4898 127.948 55.4732 127.988C55.4163 128.123 55.262 128.185 55.1279 128.128L38.1859 120.89C38.091 120.849 38.0246 120.754 38.0269 120.643C38.0471 119.026 38.0803 113.329 37.7149 105.228C37.3506 97.1315 36.5888 86.6378 35.019 75.4306C35.0142 75.3926 35.0166 75.3533 35.0296 75.3153C35.0736 75.1773 35.2207 75.1001 35.3595 75.144L51.389 80.2738C51.4851 80.2988 51.5634 80.376 51.5824 80.4807C51.9586 82.4819 52.4107 83.8018 52.419 83.8232L52.4213 83.8315C52.4605 83.9433 52.5412 84.0289 52.6397 84.0777C52.7405 84.1276 52.8604 84.1383 52.9743 84.1003C53.0455 84.0765 53.1072 84.0349 53.1547 83.9837C53.2021 83.9326 53.2365 83.8708 53.2555 83.8042L53.2638 83.7757C53.2911 83.6936 53.3647 83.4819 53.4988 83.1324C53.583 82.9112 53.6839 82.6591 53.7942 82.3927C53.8334 82.3 53.9236 82.2334 54.0315 82.231C54.1763 82.2275 54.2973 82.3428 54.2997 82.4879L54.2985 82.4891ZM51.5243 71.8265C51.8091 70.4638 52.1745 69.283 52.4475 68.4935C52.4949 68.3567 52.4213 68.2069 52.2849 68.1593C52.2434 68.1451 52.2006 68.1415 52.1591 68.1474C51.6489 68.2283 50.9369 68.3781 49.9972 68.6552C49.0598 68.9311 47.8886 69.3353 46.4529 69.9263C44.101 70.8942 42.1812 71.9157 40.8154 72.7207C39.4437 73.5293 38.6309 74.1191 38.4956 74.2177L38.4873 74.2237C38.4351 74.2653 38.3734 74.295 38.3082 74.3093C38.2441 74.3236 38.1765 74.3236 38.1088 74.3069C37.9914 74.2784 37.8976 74.2047 37.8395 74.1084C37.7813 74.012 37.76 73.8931 37.7884 73.7754V73.7718C37.8193 73.6494 39.1388 68.0725 44.826 62.1318C44.9269 62.0272 44.9233 61.8607 44.8189 61.7597C44.7857 61.7275 44.7465 61.7061 44.705 61.6942L31.6159 58.1793C31.4758 58.1412 31.3311 58.2257 31.2931 58.366C31.2824 58.4052 31.2812 58.4445 31.2884 58.4813L33.4527 73.4579C33.4681 73.5673 33.55 73.6529 33.6508 73.6767L50.9915 79.2262C51.1292 79.2702 51.2775 79.1929 51.3214 79.055C51.3333 79.0169 51.3368 78.9777 51.3321 78.9408C51.2739 78.5116 51.2229 78.0692 51.1826 77.6174C51.1422 77.1619 51.1114 76.6911 51.0936 76.2071C51.0402 74.7124 51.2419 73.1809 51.5243 71.8253V71.8265ZM64.5114 67.4411C64.5138 67.2961 64.3987 67.176 64.2539 67.1724C64.1804 67.1712 64.1127 67.2009 64.0629 67.2485C61.6873 69.6231 59.7734 72.0381 58.2546 74.2617C56.7358 76.4853 55.6121 78.5199 54.8194 80.1347C54.7553 80.2643 54.8076 80.42 54.9345 80.4854C54.9523 80.495 54.9701 80.5021 54.9891 80.5068L63.8623 83.3464C64 83.3904 64.1483 83.3131 64.1922 83.1752C64.2005 83.1502 64.2041 83.1252 64.2041 83.1014L64.5102 67.4411H64.5114ZM83.2166 89.5416L65.2637 83.7959C65.151 83.7638 65.0703 83.6591 65.0727 83.5378L65.3847 67.6076C65.3835 67.5802 65.3859 67.5529 65.393 67.5255C65.431 67.3852 65.5746 67.3008 65.7158 67.3389L83.3507 72.0738C83.4706 72.0988 83.5596 72.2046 83.5596 72.3319V89.2906C83.5596 89.3168 83.556 89.3442 83.5477 89.3703C83.5038 89.5083 83.3567 89.5855 83.2178 89.5416H83.2166ZM66.8098 132.946C66.8098 133.054 66.8763 133.147 66.9688 133.187L83.1929 140.118C83.327 140.175 83.4813 140.112 83.5382 139.979C83.5525 139.946 83.5596 139.91 83.5596 139.876V90.7627C83.5596 90.6367 83.4706 90.5309 83.3531 90.5047L66.9356 85.2501C66.7979 85.2061 66.6496 85.2834 66.6057 85.4214C66.5974 85.4487 66.5939 85.4749 66.5939 85.5022L66.8098 132.946ZM56.3869 128.497C56.3893 128.604 56.4545 128.694 56.5459 128.734L65.5663 132.588C65.7004 132.645 65.8546 132.582 65.9116 132.449C65.9282 132.409 65.9341 132.369 65.9317 132.329L65.717 85.0515C65.717 84.9326 65.6375 84.8316 65.5283 84.8006L55.5005 81.5913C55.3629 81.5473 55.2146 81.6246 55.1707 81.7625C55.1612 81.7911 55.1576 81.8196 55.1588 81.8481L56.3869 128.497Z" fill="#FFD95C"/>
<path id="Vector_5" fill-rule="evenodd" clip-rule="evenodd" d="M33.582 58.5527C37.703 59.6407 41.8181 60.7537 45.9319 61.8679C45.2888 62.2781 44.896 62.7597 44.5068 63.3518C40.7169 62.2864 36.9294 61.2103 33.1525 60.108C32.4358 59.9023 31.6396 59.6811 30.8481 59.4385L30.8054 59.1056C30.7152 58.234 30.6903 58.278 30.6832 57.7905C31.706 58.0318 32.7514 58.3291 33.5832 58.5527H33.582ZM64.8069 66.9465C66.2782 67.3377 67.7496 67.7265 69.2209 68.113C72.5718 68.9905 78.5 70.7456 82.4881 71.5256L82.5272 71.1023C82.8761 71.3271 83.3175 71.3794 83.6877 71.2426C83.7031 71.4103 83.7174 71.578 83.7304 71.7468C83.8906 71.7718 84.0472 71.7944 84.1979 71.8146C84.1766 71.8146 84.154 71.8158 84.1327 71.8182C88.8315 70.8919 94.9021 69.0131 99.6116 67.7396L102.947 66.8347C102.677 67.4815 102.767 68.2461 103.142 68.8288L99.9545 69.7218C95.6176 70.9335 88.6322 73.1761 84.3522 73.9205C84.3427 73.9371 83.8918 73.886 83.8503 73.8812C83.8776 74.6553 83.8894 75.4306 83.8954 76.2035C83.9903 82.2584 84.0057 88.3144 84.0449 94.3693C84.0983 102.92 84.0769 111.471 83.982 120.021C83.9167 125.771 83.8657 131.52 83.747 137.269C83.7316 138.532 83.6948 139.796 83.6094 141.058C83.2475 140.734 82.7005 140.55 82.2187 140.554C82.1618 139.456 82.144 138.356 82.1357 137.264C82.0455 131.483 82.0206 125.702 81.9838 119.92C81.9316 111.434 81.9517 102.946 82.0455 94.4596C82.1131 88.3727 82.1582 82.2857 82.284 76.1988C82.2947 75.3414 82.3148 74.4829 82.3528 73.6256C78.4466 72.8384 71.269 70.7397 68.8922 70.0964C67.5028 69.7194 66.1145 69.3401 64.7262 68.9596C64.8365 68.396 64.8211 67.975 64.8092 67.0344C64.8092 67.0059 64.8092 66.9762 64.8069 66.9465ZM121.687 61.7133C125.615 60.6383 129.547 59.567 133.483 58.5194C134.673 58.1959 136.023 57.8131 137.302 57.5515L137.263 59.0711C136.07 59.4742 134.719 59.8416 133.916 60.0735C130.376 61.1128 126.831 62.1306 123.283 63.1414C123.134 62.9047 122.956 62.6848 122.772 62.5302C122.267 62.1045 122.543 62.2674 121.78 61.7739C121.75 61.7537 121.719 61.7347 121.687 61.7145V61.7133Z" fill="#FFF5D6"/>
<path id="Vector_6" fill-rule="evenodd" clip-rule="evenodd" d="M84.6334 72.075L102.283 67.3364C102.303 67.3317 102.324 67.3281 102.345 67.3281C102.49 67.3257 102.61 67.4411 102.614 67.5861L102.641 68.9679L99.9533 69.7206C95.646 70.9239 88.7259 73.1439 84.4388 73.9038V72.3306C84.4388 72.2141 84.5171 72.1071 84.6346 72.0761L84.6334 72.075ZM123.932 62.9546C123.69 62.6847 123.439 62.4136 123.178 62.1413C123.144 62.1092 123.118 62.0664 123.105 62.0176C123.067 61.8773 123.151 61.7322 123.291 61.6942L136.38 58.1792C136.413 58.1709 136.449 58.1674 136.486 58.1733C136.629 58.1935 136.729 58.3279 136.709 58.4718L136.591 59.2887C135.591 59.6038 134.572 59.8832 133.916 60.0723C130.592 61.0485 127.262 62.0045 123.932 62.9546Z" fill="#FFD95C"/>
<path id="Vector_7" fill-rule="evenodd" clip-rule="evenodd" d="M89.3596 88.966C93.5981 87.5272 97.8508 86.1336 102.105 84.7388C101.993 85.3749 102.048 86.0884 102.293 86.6948C98.1498 87.9826 94.0051 89.2668 89.8473 90.5035C88.3677 90.9577 86.869 91.3834 85.3526 91.7009C85.0963 91.7544 84.4721 91.8852 83.912 91.9399L83.9156 91.0956C84.2348 90.928 84.5445 90.7877 84.7035 90.7163C86.2116 90.0373 87.791 89.4832 89.3608 88.966H89.3596ZM113.695 81.7732C113.718 81.9123 113.751 82.0348 113.804 82.1323C114.054 82.5924 114.526 82.7875 114.97 82.7387L113.376 83.2417L113.605 82.2226C113.629 82.0752 113.662 81.9266 113.694 81.7744L113.695 81.7732ZM115.991 80.2036C120.283 78.8207 124.581 77.4532 128.891 76.1297C130.577 75.6125 132.263 75.0929 133.954 74.5863L133.767 74.9906C133.597 75.5221 133.587 75.3592 133.428 75.7326L132.918 76.8919C127.101 78.8516 121.264 80.7458 115.413 82.5972C115.756 82.4069 116.011 82.036 116.011 81.4961L115.992 80.2036H115.991Z" fill="#D4991A"/>
<path id="Vector_8" fill-rule="evenodd" clip-rule="evenodd" d="M37.0752 75.6957C41.9058 77.0905 46.7209 78.5388 51.5361 79.9859C51.5479 80.2071 51.6001 80.4437 51.7081 80.7018C52.2611 82.0133 53.8202 82.2904 54.8193 81.5805L54.8087 83.0538C48.7393 81.1263 42.6605 79.2237 36.6089 77.2379C35.8875 77.0073 35.166 76.7706 34.4493 76.5185C34.4541 76.0227 34.4564 75.4424 34.4446 74.9549C35.3274 75.1832 36.2043 75.4353 37.074 75.6945L37.0752 75.6957ZM65.9732 84.3499C71.9749 86.193 77.9624 88.0789 83.9273 90.0385L83.9511 91.9482C81.8461 91.3465 79.7482 90.7258 77.6491 90.1051C73.7144 88.941 69.7916 87.74 65.8711 86.5271C65.9483 86.2441 66.0254 86.0277 66.0717 85.6591C66.1381 85.1894 66.1073 84.7423 65.972 84.3511L65.9732 84.3499Z" fill="#FAB725"/>
<path id="Vector_9" fill-rule="evenodd" clip-rule="evenodd" d="M65.6707 51.3942C69.5081 50.3502 73.8795 49.5738 78.8548 49.1814L78.8881 49.179C79.034 49.179 79.1515 49.2967 79.1515 49.443V51.8877C79.1515 52.0066 79.0708 52.1148 78.9498 52.1434C78.3185 52.2944 77.6884 52.4763 77.0607 52.6797C76.439 52.8818 75.8207 53.1065 75.2108 53.3467C74.506 53.6238 73.8083 53.9246 73.1201 54.2433C72.4319 54.5632 71.752 54.9021 71.0816 55.2564C70.1121 55.7689 69.1581 56.3218 68.2278 56.9116C67.307 57.4943 66.4112 58.1126 65.5497 58.7618L65.329 58.9295L65.6577 58.7262C66.6153 58.134 67.58 57.5704 68.5565 57.0412C69.539 56.5085 70.5381 56.0079 71.5597 55.5442C72.2112 55.2493 72.8745 54.9698 73.5508 54.7071C74.2224 54.4466 74.8964 54.2053 75.5728 53.9853C76.0984 53.814 76.6336 53.6523 77.1758 53.5013C77.7252 53.3479 78.2722 53.2076 78.8145 53.0792C78.8382 53.0721 78.8631 53.0685 78.8892 53.0685C79.0352 53.0685 79.1527 53.1862 79.1527 53.3325V55.7202C79.1527 55.8319 79.0803 55.9366 78.9687 55.9722C78.1405 56.2338 76.3903 56.889 73.9187 58.3504C71.4363 59.8178 68.2326 62.0937 64.5126 65.592C61.259 68.6515 58.7791 71.8418 56.9375 74.6695C55.1007 77.4912 53.8999 79.9491 53.201 81.5615C53.1713 81.6435 53.1025 81.7089 53.0123 81.7291C52.8711 81.7612 52.7299 81.6732 52.6967 81.5305C52.5412 80.8587 52.3775 80.0489 52.2446 79.1452C52.1117 78.2415 52.0073 77.2391 51.9693 76.1785C51.8257 72.1795 53.6068 67.8881 53.6471 67.7906C53.6566 67.7656 53.6637 67.743 53.6697 67.7193C53.6744 67.6967 53.678 67.6741 53.6804 67.6503V67.6455C53.6875 67.5243 53.6448 67.4125 53.57 67.3281C53.4964 67.246 53.3932 67.1901 53.2757 67.1818H53.2651C53.2366 67.1794 51.1707 67.0379 46.1195 69.1153C44.7122 69.6943 43.4497 70.2972 42.3604 70.8644C41.2676 71.434 40.361 71.9619 39.6621 72.3948C39.5945 72.4364 39.5079 72.4471 39.4272 72.415C39.2919 72.3615 39.2266 72.2081 39.28 72.0737C40.1178 69.9643 41.9356 66.3578 45.5582 62.6121C47.9753 60.1127 51.1957 57.5502 55.4638 55.3266C55.4757 55.3206 55.4887 55.3159 55.5029 55.3111C55.5243 55.304 55.5457 55.2945 55.567 55.2838C55.5848 55.2743 55.605 55.2612 55.6264 55.2457C55.6382 55.2374 55.6501 55.2303 55.6643 55.2231C58.5157 53.7558 61.8286 52.4406 65.6707 51.3954V51.3942ZM64.5115 67.4398C64.5138 67.2948 64.3987 67.1747 64.254 67.1711C64.1804 67.1699 64.1128 67.1996 64.0629 67.2472C61.6874 69.6218 59.7734 72.0369 58.2546 74.2605C56.7358 76.4841 55.6121 78.5186 54.8195 80.1334C54.7554 80.263 54.8076 80.4188 54.9346 80.4841C54.9524 80.4937 54.9702 80.5008 54.9892 80.5056L63.8624 83.3451C64 83.3891 64.1484 83.3118 64.1923 83.1739C64.2006 83.1489 64.2041 83.1239 64.2041 83.1001L64.5103 67.4398H64.5115ZM113.019 80.5032L104.143 83.3439C104.117 83.3534 104.09 83.3582 104.06 83.3594C103.915 83.3617 103.796 83.2464 103.792 83.1013L103.486 67.4517C103.481 67.3792 103.507 67.3055 103.562 67.2496C103.664 67.1461 103.831 67.1461 103.933 67.2496C106.309 69.6242 108.223 72.0392 109.742 74.2628C111.254 76.4793 112.376 78.5079 113.17 80.1203C113.241 80.244 113.202 80.4021 113.079 80.477H113.077C113.059 80.4877 113.04 80.4972 113.019 80.5032ZM102.067 132.344C102.067 132.489 102.183 132.608 102.328 132.608C102.365 132.608 102.4 132.601 102.432 132.588L111.453 128.734C111.555 128.69 111.615 128.589 111.613 128.484L112.841 81.848C112.844 81.703 112.729 81.5817 112.585 81.5781C112.551 81.5781 112.519 81.5829 112.491 81.5936L102.467 84.8017C102.355 84.8374 102.284 84.9397 102.284 85.0514L102.069 132.344H102.067ZM55.4994 81.59C55.3617 81.546 55.2134 81.6233 55.1695 81.7612C55.16 81.7898 55.1565 81.8183 55.1577 81.8468L56.3858 128.496C56.3881 128.603 56.4534 128.692 56.5448 128.733L65.5651 132.587C65.6992 132.644 65.8535 132.581 65.9104 132.447C65.9271 132.408 65.933 132.368 65.9306 132.328L65.7158 85.0514C65.7158 84.9325 65.6363 84.8315 65.5272 84.8005L55.4994 81.5912V81.59ZM72.8092 60.0615C70.9463 61.2839 68.7464 62.9379 66.2712 65.1639C66.1632 65.2602 66.1537 65.4267 66.251 65.5349C66.3317 65.6253 66.4622 65.6467 66.5654 65.5944L81.1924 58.1209C81.3217 58.0543 81.3739 57.8962 81.3075 57.7666C81.2612 57.675 81.1687 57.6227 81.0726 57.6215H79.5893C79.4695 57.6215 79.3603 57.574 79.282 57.4967C79.2025 57.4182 79.1515 57.31 79.1491 57.1911C79.1467 57.046 79.0281 56.9295 78.8821 56.9318C78.8536 56.9318 78.8252 56.9378 78.8003 56.9461C77.7133 57.3278 75.6416 58.203 72.8092 60.0615ZM101.43 65.5956L86.8132 58.1269C86.7219 58.0853 86.659 57.9937 86.659 57.8867C86.659 57.7404 86.7776 57.6227 86.9224 57.6227H88.4056C88.5266 57.6227 88.6346 57.5751 88.7129 57.4978C88.7913 57.4217 88.8411 57.3159 88.8446 57.2006C88.8446 57.1708 88.8482 57.1399 88.8589 57.1102C88.9064 56.9735 89.057 56.9009 89.1935 56.9485C90.2804 57.3302 92.3522 58.2054 95.1845 60.0639C97.0439 61.2839 99.2367 62.9332 101.706 65.152C101.807 65.2269 101.841 65.3661 101.782 65.4826C101.715 65.6122 101.558 65.6645 101.427 65.5979L101.43 65.5956ZM87.9666 48.0814V56.4764C87.9666 56.6227 87.8491 56.7404 87.7032 56.7404H80.293C80.147 56.7404 80.0295 56.6227 80.0295 56.4764V48.0814C80.0295 47.9352 80.147 47.8175 80.293 47.8175H87.7032C87.8491 47.8175 87.9666 47.9352 87.9666 48.0814ZM102.325 51.3931C98.4844 50.3478 94.1095 49.5714 89.1294 49.179C88.9847 49.1671 88.8577 49.2765 88.8458 49.4215V49.4418V51.8865C88.8458 52.0197 88.9443 52.1291 89.0713 52.1481C89.6942 52.298 90.3184 52.4775 90.9366 52.6785C91.5584 52.8806 92.1766 53.1053 92.7865 53.3455C93.4913 53.6226 94.189 53.9234 94.8772 54.2421C95.5654 54.562 96.2453 54.9009 96.9158 55.2552C97.8852 55.7677 98.8392 56.3206 99.7695 56.9104C100.69 57.4931 101.586 58.1114 102.448 58.7607L102.668 58.9283L102.341 58.725C101.383 58.1328 100.419 57.5692 99.442 57.04C98.4595 56.5073 97.4604 56.0067 96.4388 55.543C95.7873 55.2481 95.124 54.9687 94.4477 54.7059C93.7761 54.4455 93.1021 54.2041 92.4257 53.9841C91.9001 53.8129 91.3649 53.6511 90.8227 53.5001C90.2685 53.3455 89.7168 53.204 89.1686 53.0744C89.0274 53.0411 88.885 53.1291 88.853 53.2718C88.8482 53.292 88.8458 53.3123 88.8458 53.3313V55.719C88.8458 55.8403 88.9277 55.9425 89.0392 55.9734C89.871 56.2374 91.6177 56.8926 94.0798 58.348C96.5622 59.8154 99.7659 62.0913 103.486 65.5896C106.739 68.6491 109.219 71.8395 111.061 74.6671C112.904 77.4972 114.106 79.9621 114.803 81.5734C114.86 81.7065 115.016 81.7684 115.149 81.7101C115.228 81.6756 115.283 81.6066 115.302 81.527C115.457 80.8551 115.62 80.0454 115.754 79.1417C115.887 78.238 115.991 77.2356 116.029 76.1749C116.173 72.176 114.392 67.8846 114.351 67.787V67.7847C114.341 67.7621 114.334 67.7383 114.329 67.7157C114.323 67.6919 114.319 67.6681 114.318 67.6432C114.311 67.5219 114.354 67.4089 114.428 67.3245C114.5 67.2436 114.601 67.1889 114.714 67.1782L114.745 67.1759C114.928 67.1675 117.026 67.1152 121.878 69.1105C123.285 69.6896 124.548 70.2925 125.637 70.8597C126.73 71.4292 127.636 71.9572 128.336 72.39C128.46 72.4661 128.621 72.4281 128.698 72.3044C128.745 72.2283 128.748 72.1391 128.716 72.063C127.877 69.9524 126.059 66.3506 122.44 62.6074C120.023 60.1079 116.803 57.5454 112.535 55.3218C112.517 55.3123 112.498 55.3052 112.479 55.3004C112.464 55.2945 112.447 55.2873 112.431 55.279C112.414 55.2695 112.394 55.2564 112.372 55.241C112.353 55.2267 112.334 55.216 112.314 55.2077C109.466 53.7451 106.16 52.4335 102.328 51.3907L102.325 51.3931ZM96.2987 43.4737C98.9163 42.3595 101.383 41.6021 103.644 41.1217C106.414 40.5331 108.863 40.3571 110.887 40.4499C113.333 40.5628 115.17 41.0741 116.213 41.7293C116.7 42.0349 117.111 42.5308 117.435 43.1562C117.762 43.7876 118.001 44.5546 118.135 45.3905C118.304 46.4417 118.297 47.5725 118.101 48.6629C117.915 49.6938 117.559 50.6903 117.019 51.5536C116.563 52.2825 115.97 52.9282 115.226 53.4323C114.545 53.8937 113.737 54.2374 112.792 54.4193C112.736 54.4288 112.677 54.4217 112.624 54.3943C110.198 53.1529 107.448 52.0197 104.334 51.0649C101.219 50.11 97.7392 49.3324 93.8508 48.802C93.7654 48.7925 93.6859 48.7402 93.6444 48.657C93.5803 48.5262 93.6337 48.368 93.7642 48.3038C94.1119 48.1314 94.4595 47.9637 94.806 47.802C95.1537 47.6403 95.5049 47.4821 95.8609 47.3299C96.3984 47.0993 96.9454 46.8793 97.5019 46.6724C98.0525 46.4678 98.6019 46.2776 99.1501 46.1052C99.5986 45.9637 100.057 45.8281 100.521 45.6997C100.974 45.5748 101.435 45.4559 101.905 45.3418C102.308 45.2455 102.699 45.1563 103.085 45.0754C103.479 44.9922 103.874 44.9137 104.268 44.8388L104.365 44.821C104.456 44.8043 104.605 44.7877 104.774 44.7722C104.633 44.7793 104.491 44.7877 104.346 44.7984C103.508 44.8566 102.672 44.9529 101.844 45.0814C100.98 45.2157 100.115 45.387 99.2593 45.5891C98.66 45.7306 98.0608 45.8876 97.464 46.0588C96.8588 46.2336 96.2691 46.4191 95.696 46.6189C95.1596 46.8056 94.6185 47.0089 94.0775 47.2348C93.5423 47.4572 93.0167 47.6962 92.5064 47.9566C92.3451 48.0386 92.1861 48.1219 92.0365 48.2039C91.887 48.286 91.7292 48.3751 91.5655 48.4727C91.518 48.5 91.4634 48.5143 91.4053 48.5071C91.0125 48.4655 90.6304 48.4287 90.2591 48.3942C89.9078 48.3621 89.5222 48.33 89.1045 48.2967C88.9621 48.2931 88.8482 48.1766 88.8482 48.0327V47.5868C88.8482 47.5 88.8909 47.4156 88.9692 47.3644C91.5073 45.7449 93.9647 44.4666 96.3011 43.4725L96.2987 43.4737ZM89.0665 38.0146C87.7755 40.4725 86.5178 43.3453 85.2683 46.5772C85.2161 46.7128 85.2837 46.865 85.419 46.9173C85.4498 46.9292 85.4819 46.9352 85.5139 46.9352H87.5228C87.6426 46.9352 87.7435 46.8555 87.7755 46.7461L87.7945 46.6973C87.9986 46.1848 88.2253 45.6783 88.4685 45.1801C88.7082 44.689 88.9692 44.1955 89.2445 43.7056C89.5376 43.1836 89.8426 42.6723 90.157 42.1752C90.4762 41.6699 90.8061 41.1752 91.1442 40.6912C91.6248 40.004 92.1338 39.3286 92.669 38.6734C93.178 38.0503 93.7132 37.4474 94.2697 36.8719C94.3646 36.7744 94.4595 36.6769 94.5568 36.5818C94.4453 36.7042 94.3492 36.8112 94.2958 36.8814L94.2412 36.9527C94.0086 37.2607 93.7796 37.5711 93.553 37.8826C93.3287 38.1918 93.1057 38.5069 92.8861 38.8291C92.6346 39.1966 92.383 39.5783 92.1303 39.973C91.8775 40.369 91.6379 40.759 91.4112 41.1419C91.1264 41.6247 90.8523 42.1158 90.5889 42.6152C90.3302 43.1063 90.0799 43.6105 89.839 44.1265C89.7132 44.3965 89.5993 44.6474 89.4961 44.8804C89.3952 45.1075 89.2861 45.3632 89.1698 45.6402C89.114 45.7746 89.1757 45.928 89.3098 45.9851C89.3928 46.0196 89.483 46.0089 89.5542 45.9637C91.8728 44.557 94.3195 43.3072 96.8564 42.2906C99.2118 41.3464 101.643 40.6056 104.116 40.1288C104.155 40.1217 104.191 40.105 104.22 40.0836C104.757 39.7257 105.281 39.1835 105.736 38.52C106.176 37.879 106.553 37.1228 106.813 36.313C107.093 35.4426 107.233 34.5163 107.165 33.6126C107.105 32.7933 106.876 31.9919 106.431 31.263C106.075 30.6815 105.579 30.1416 104.916 29.672C104.311 29.2439 103.565 28.8729 102.661 28.5804C100.85 27.9953 99.1631 28.0239 97.5696 28.603C95.9879 29.1785 94.507 30.2974 93.095 31.9015C91.6984 33.4889 90.3647 35.5449 89.0677 38.0134L89.0665 38.0146ZM71.1397 42.2906C68.7843 41.3464 66.353 40.6056 63.8802 40.1288C63.847 40.1229 63.8149 40.1098 63.7841 40.0896C63.2454 39.7328 62.7174 39.187 62.2593 38.52C61.8191 37.879 61.4418 37.1228 61.1819 36.313C60.9019 35.4426 60.7619 34.5163 60.8295 33.6126C60.89 32.7933 61.119 31.9919 61.564 31.263C61.92 30.6815 62.4171 30.1416 63.0793 29.672C63.6844 29.2439 64.4296 28.8729 65.3338 28.5804C67.1445 27.9953 68.8318 28.0239 70.4254 28.603C72.0071 29.1785 73.4879 30.2974 74.9 31.9015C76.2966 33.4889 77.6303 35.5449 78.9272 38.0134C80.2158 40.4665 81.4701 43.331 82.7172 46.5547C82.7338 46.5891 82.7433 46.6296 82.7433 46.67C82.7433 46.8163 82.6258 46.934 82.4798 46.934H80.471C80.3665 46.934 80.2681 46.8698 80.2265 46.7663L80.198 46.695C79.9939 46.1825 79.7673 45.6759 79.5241 45.1777C79.2844 44.6866 79.0233 44.1931 78.748 43.7032C78.455 43.1812 78.15 42.6699 77.8356 42.1729C77.5164 41.6675 77.1865 41.1728 76.8483 40.6889C76.369 40.0016 75.8587 39.3262 75.3236 38.671C74.8145 38.0479 74.2794 37.445 73.7229 36.8695C73.628 36.772 73.533 36.6745 73.4357 36.5794C73.5473 36.7019 73.6434 36.8101 73.6968 36.8802L73.7514 36.9516C73.9839 37.2595 74.2129 37.5699 74.4396 37.8814C74.6638 38.1906 74.8869 38.5057 75.1076 38.8279C75.3651 39.2049 75.6178 39.5854 75.8635 39.9707C76.1162 40.3666 76.3559 40.7566 76.5825 41.1395C76.8673 41.6223 77.1414 42.1134 77.4048 42.6128C77.6635 43.1039 77.9139 43.6081 78.1548 44.1242C78.2805 44.3929 78.3944 44.6438 78.4989 44.878C78.614 45.1373 78.7231 45.3905 78.8264 45.6379C78.8572 45.7128 78.8536 45.802 78.8086 45.8757C78.7338 45.9993 78.5724 46.0398 78.4478 45.9649C76.1281 44.557 73.6778 43.3061 71.1397 42.2882V42.2906ZM63.6619 51.0637C66.7778 50.1088 70.2604 49.3312 74.15 48.7997C74.2936 48.7806 74.3945 48.6475 74.3755 48.5036C74.3636 48.4132 74.3067 48.3395 74.2319 48.3026C73.8843 48.1302 73.5366 47.9625 73.1901 47.8008C72.8424 47.6391 72.49 47.481 72.1352 47.3288C71.5977 47.0981 71.0507 46.8781 70.4942 46.6712C69.9436 46.4667 69.3942 46.2764 68.846 46.104C68.3975 45.9625 67.9395 45.8269 67.4755 45.6985C67.0223 45.5737 66.5607 45.4547 66.0908 45.3406C65.6885 45.2443 65.297 45.1551 64.9113 45.0742C64.5174 44.991 64.1223 44.9125 63.7271 44.8376L63.6298 44.8198C63.5385 44.8031 63.3901 44.7865 63.2205 44.771C63.3617 44.7782 63.5041 44.7865 63.6488 44.7972C64.4865 44.8554 65.3231 44.9518 66.1513 45.0802C67.0151 45.2145 67.8802 45.3858 68.7357 45.5879C69.3349 45.7294 69.9341 45.8864 70.531 46.0576C71.1361 46.2324 71.7259 46.4179 72.299 46.6177C72.8353 46.8044 73.3764 47.0077 73.9175 47.2336C74.4526 47.456 74.9783 47.695 75.4885 47.9554C75.6499 48.0374 75.8089 48.1207 75.9584 48.2027C76.1079 48.2848 76.2657 48.374 76.4295 48.4715C76.4829 48.5036 76.5434 48.5143 76.6003 48.5059C76.9895 48.4655 77.368 48.4275 77.7359 48.3942C78.0907 48.3621 78.4787 48.3288 78.9035 48.2967C79.0423 48.286 79.1479 48.1706 79.1479 48.0339V47.588C79.1479 47.4857 79.0898 47.3965 79.0043 47.3525C76.4734 45.7401 74.0231 44.4654 71.6938 43.4737C69.0762 42.3595 66.6093 41.6021 64.3489 41.1217C61.5782 40.5331 59.1291 40.3571 57.106 40.4499C54.6593 40.5628 52.8225 41.0741 51.7795 41.7293C51.293 42.0349 50.8812 42.5308 50.5573 43.1562C50.231 43.7876 49.9913 44.5546 49.8572 45.3905C49.6887 46.4417 49.6958 47.5725 49.8928 48.6629C50.0791 49.6938 50.4351 50.6903 50.975 51.5536C51.4306 52.2825 52.0239 52.9282 52.7679 53.4323C53.449 53.8937 54.257 54.2374 55.2016 54.4193C55.268 54.4324 55.3333 54.4193 55.3867 54.386C57.8085 53.147 60.553 52.0173 63.6607 51.0649L63.6619 51.0637Z" fill="#F02D2D"/>
<path id="Vector_10" fill-rule="evenodd" clip-rule="evenodd" d="M79.1514 55.1375V55.719C79.1514 55.8307 79.079 55.9354 78.9675 55.971C78.1393 56.2326 76.3891 56.8878 73.9174 58.3492C71.4351 59.8166 68.2313 62.0925 64.5114 65.5908C61.2578 68.6503 58.7778 71.8406 56.9363 74.6683C55.0994 77.49 53.8986 79.9479 53.1997 81.5603C53.1701 81.6423 53.1012 81.7077 53.0111 81.7279C52.8699 81.76 52.7287 81.672 52.6954 81.5293C52.54 80.8575 52.3762 80.0477 52.2434 79.144C52.2291 79.0453 52.2149 78.9466 52.2006 78.8456C53.4715 75.509 56.0072 70.1914 60.4794 65.6169C67.339 58.5989 73.4582 55.5775 79.1502 55.1375H79.1514ZM103.556 71.0368C108.168 74.9739 110.101 79.5127 110.709 81.2416L113.019 80.502C113.04 80.4948 113.059 80.4865 113.077 80.4758H113.079C113.202 80.4009 113.241 80.2416 113.169 80.1191C112.377 78.5067 111.256 76.4781 109.741 74.2616C108.223 72.038 106.309 69.623 103.933 67.2484C103.83 67.1461 103.664 67.1461 103.562 67.2484C103.507 67.3043 103.481 67.378 103.486 67.4505L103.556 71.0368ZM102.274 86.6817C107.215 85.1263 111.024 83.9468 112.799 83.3986L112.84 81.8456C112.843 81.7006 112.728 81.5793 112.583 81.5757C112.55 81.5757 112.518 81.5805 112.49 81.5912L102.465 84.7993C102.354 84.835 102.283 84.9373 102.283 85.0491L102.275 86.6817H102.274ZM115.795 78.8444C115.781 78.9455 115.767 79.0442 115.753 79.1428C115.62 80.0466 115.456 80.8575 115.301 81.5282C115.282 81.6066 115.228 81.6768 115.148 81.7113C115.015 81.7684 114.86 81.7077 114.802 81.5745C114.104 79.9633 112.901 77.4983 111.06 74.6683C109.218 71.8406 106.738 68.6503 103.485 65.5908C99.7647 62.0925 96.5609 59.8166 94.0786 58.3492C91.6164 56.8938 89.871 56.2374 89.038 55.9746C88.9265 55.9437 88.8446 55.8414 88.8446 55.7201V55.1387C94.5354 55.5786 100.656 58.6001 107.515 65.6181C111.988 70.1926 114.523 75.5102 115.794 78.8468L115.795 78.8444ZM87.9677 53.7629H80.0307V56.4764C80.0307 56.6227 80.1481 56.7404 80.2941 56.7404H87.7043C87.8502 56.7404 87.9677 56.6227 87.9677 56.4764V53.7629ZM55.1991 83.3986C56.9742 83.9468 60.782 85.1263 65.7229 86.6817L65.7158 85.0491C65.7158 84.9301 65.6363 84.8291 65.5271 84.7982L55.4993 81.5888C55.3617 81.5448 55.2134 81.6221 55.1695 81.76C55.16 81.7886 55.1564 81.8171 55.1576 81.8456L55.1979 83.3986H55.1991ZM57.2899 81.2416C57.8974 79.5115 59.8292 74.9739 64.4426 71.0368L64.5126 67.4398C64.515 67.2948 64.3999 67.1747 64.2551 67.1711C64.1815 67.1699 64.1139 67.1996 64.0641 67.2472C61.6885 69.6218 59.7746 72.0368 58.2558 74.2604C56.7369 76.484 55.6132 78.5186 54.8206 80.1334C54.7565 80.263 54.8087 80.4187 54.9357 80.4841C54.9535 80.4937 54.9713 80.5008 54.9903 80.5055L57.2887 81.2416H57.2899ZM78.8037 43.7068C78.7741 43.6842 78.7444 43.6628 78.7148 43.6402L78.7515 43.7068C78.7966 43.7864 78.8405 43.8661 78.8844 43.947C78.8583 43.8673 78.831 43.7876 78.8026 43.7068H78.8037ZM77.4926 42.7769C77.7216 43.2169 77.9435 43.6675 78.1582 44.1265C78.284 44.3953 78.3979 44.6462 78.5024 44.8804C78.6175 45.1396 78.7266 45.3929 78.8299 45.6402C78.8607 45.7151 78.8571 45.8043 78.8121 45.878C78.7373 46.0017 78.5759 46.0421 78.4513 45.9672C76.1316 44.5593 73.6813 43.3084 71.1432 42.2906C68.7878 41.3464 66.3565 40.6056 63.8837 40.1288C63.8505 40.1229 63.8184 40.1098 63.7876 40.0896C63.2489 39.7328 62.7208 39.187 62.2628 38.52C62.1893 38.4141 62.1181 38.3035 62.0492 38.1918C65.7348 38.3178 71.9726 39.1347 77.4926 42.7757V42.7769ZM77.5911 46.4785C75.6356 46.3775 73.7703 46.3977 71.9999 46.5154C72.1019 46.5499 72.2028 46.5844 72.3037 46.6189C72.84 46.8055 73.3811 47.0089 73.9222 47.2348C74.4573 47.4572 74.983 47.6962 75.4932 47.9566C75.6546 48.0386 75.8136 48.1219 75.9631 48.2039C76.1126 48.286 76.2704 48.3751 76.4341 48.4726C76.4875 48.5048 76.5481 48.5155 76.605 48.5071C76.9942 48.4667 77.3727 48.4286 77.7406 48.3954C78.0954 48.3632 78.4834 48.33 78.9082 48.2978C79.047 48.2871 79.1526 48.1718 79.1526 48.0351V47.5892C79.1526 47.4869 79.0945 47.3977 79.009 47.3537C78.5332 47.0505 78.0609 46.7592 77.5911 46.4797V46.4785ZM70.4301 46.6474L70.4965 46.6724C71.053 46.8793 71.6 47.0992 72.1375 47.3299C72.4935 47.4821 72.8447 47.6403 73.1924 47.802C73.5389 47.9637 73.8866 48.1314 74.2342 48.3038C74.3102 48.3418 74.3659 48.4144 74.3778 48.5048C74.3968 48.6486 74.2959 48.7818 74.1524 48.8008C70.2628 49.3312 66.7801 50.1088 63.6642 51.0649C60.5565 52.0173 57.812 53.147 55.3902 54.386C55.3368 54.4181 55.2715 54.4312 55.2051 54.4193C54.2593 54.2374 53.4525 53.8937 52.7714 53.4323C52.502 53.2504 52.254 53.0495 52.0238 52.833C54.8075 51.0363 61.2186 47.5737 70.4289 46.6462L70.4301 46.6474ZM89.1958 43.7068C89.2255 43.6842 89.2551 43.6628 89.2848 43.6414L89.248 43.7068C89.2029 43.7864 89.159 43.8661 89.1151 43.9458C89.1412 43.8673 89.1685 43.7876 89.197 43.7068H89.1958ZM90.507 42.7769C90.278 43.2169 90.0561 43.6675 89.8413 44.1265C89.7155 44.3964 89.6016 44.6473 89.4984 44.8804C89.3975 45.1075 89.2884 45.3632 89.1721 45.6402C89.1163 45.7746 89.178 45.928 89.3121 45.9851C89.3952 46.0196 89.4853 46.0088 89.5565 45.9637C91.8751 44.557 94.3218 43.3072 96.8587 42.2906C99.2141 41.3464 101.645 40.6056 104.118 40.1288C104.157 40.1217 104.193 40.105 104.223 40.0836C104.759 39.7257 105.283 39.1835 105.738 38.52C105.811 38.4141 105.883 38.3035 105.952 38.1918C102.266 38.3178 96.0281 39.1347 90.5082 42.7757L90.507 42.7769ZM90.4085 46.4785C92.364 46.3775 94.2293 46.3977 95.9997 46.5154C95.8976 46.5499 95.7968 46.5844 95.6959 46.6189C95.1596 46.8055 94.6185 47.0089 94.0774 47.2348C93.5423 47.4572 93.0166 47.6962 92.5064 47.9566C92.345 48.0386 92.186 48.1219 92.0365 48.2039C91.887 48.286 91.7292 48.3751 91.5654 48.4726C91.5179 48.5 91.4634 48.5143 91.4052 48.5071C91.0125 48.4655 90.6304 48.4286 90.259 48.3942C89.9078 48.3621 89.5221 48.33 89.1044 48.2967C88.9621 48.2931 88.8481 48.1766 88.8481 48.0327V47.5868C88.8481 47.5 88.8909 47.4155 88.9692 47.3644C89.4521 47.0564 89.9315 46.7604 90.4085 46.4774V46.4785ZM97.5695 46.6474L97.5031 46.6724C96.9466 46.8793 96.3995 47.0992 95.862 47.3299C95.506 47.4821 95.1548 47.6403 94.8071 47.802C94.4607 47.9637 94.113 48.1314 93.7653 48.3038C93.6348 48.368 93.5814 48.5262 93.6455 48.657C93.687 48.7402 93.7653 48.7925 93.852 48.802C97.7392 49.3324 101.221 50.11 104.335 51.0649C107.45 52.0197 110.199 53.1529 112.625 54.3943C112.679 54.4217 112.739 54.4288 112.793 54.4181C113.739 54.2374 114.546 53.8937 115.227 53.4323C115.496 53.2504 115.744 53.0495 115.975 52.833C113.191 51.0363 106.779 47.5737 97.5695 46.6462V46.6474ZM72.8103 60.0615C70.9474 61.2839 68.7475 62.9379 66.2723 65.1639C66.1643 65.2602 66.1548 65.4267 66.2521 65.5349C66.3328 65.6253 66.4633 65.6467 66.5666 65.5944L81.1935 58.1209C81.3229 58.0543 81.3751 57.8962 81.3086 57.7666C81.2623 57.675 81.1698 57.6227 81.0737 57.6215H79.5905C79.4706 57.6215 79.3614 57.5739 79.2831 57.4967C79.2036 57.4182 79.1526 57.31 79.1502 57.1911C79.1479 57.046 79.0292 56.9295 78.8833 56.9318C78.8548 56.9318 78.8263 56.9378 78.8014 56.9461C77.7145 57.3278 75.6427 58.203 72.8103 60.0615ZM101.431 65.5955C101.56 65.6621 101.719 65.6098 101.785 65.4802C101.844 65.3637 101.809 65.2257 101.709 65.1496C99.2414 62.9308 97.0474 61.2827 95.188 60.0615C92.3557 58.203 90.2839 57.3278 89.197 56.9461C89.0605 56.8985 88.9099 56.9711 88.8624 57.1078C88.8517 57.1375 88.847 57.1685 88.8481 57.1982C88.8434 57.3135 88.7936 57.4194 88.7164 57.4955C88.6381 57.5728 88.529 57.6203 88.4091 57.6203H86.9259C86.7799 57.6203 86.6625 57.738 86.6625 57.8843C86.6625 57.9913 86.7254 58.0829 86.8167 58.1245L101.433 65.5932L101.431 65.5955Z" fill="#B52424"/>
<path id="Vector_11" fill-rule="evenodd" clip-rule="evenodd" d="M79.5145 50.3788C75.7566 50.6237 72.0379 51.1695 68.3868 52.1041C64.8911 52.9983 61.4762 54.2112 58.2202 55.7725C56.699 56.5085 55.2905 57.2707 53.8429 58.1447C51.1458 59.8237 49.0539 61.4254 46.7839 63.6466C44.0797 66.3363 41.8501 69.4494 40.266 72.9156C40.1735 72.9584 40.0821 73.0083 39.9908 73.0666C39.4437 73.3746 39.0439 73.4887 38.5158 73.654C38.5597 73.5125 38.6025 73.3876 38.6333 73.2997C39.1044 71.8811 39.7736 70.4779 40.5105 69.1795C41.913 66.705 43.6822 64.4267 45.6733 62.4005C48.0002 60.0734 50.1455 58.4087 52.9316 56.656C54.3875 55.7653 55.8019 54.9912 57.335 54.2445C60.7096 52.6154 64.2682 51.3705 67.9122 50.5036C69.9543 50.0185 72.0237 49.6403 74.1061 49.3811C75.8338 49.1659 77.5875 49.0279 79.3318 49.0018C79.1075 48.8686 78.8892 48.7283 78.6839 48.5999C77.737 48.0255 76.77 47.4833 75.7911 46.9673C74.3399 46.2039 72.8555 45.4987 71.3438 44.8649C69.0892 43.9196 66.7541 43.1027 64.3797 42.5153C62.7268 42.1158 61.2282 41.8458 59.5314 41.702C58.8087 41.6496 58.1371 41.633 57.4133 41.6663C56.3466 41.7305 55.4875 41.8649 54.4718 42.2026C54.2392 42.2846 54.0209 42.3714 53.7966 42.4725C52.8758 42.9077 52.2434 43.3477 51.5528 44.098C51.1482 44.5653 50.8753 44.9779 50.6012 45.5308C50.4386 45.8852 50.3116 46.2193 50.1918 46.5903C50.0743 46.9827 49.9901 47.3525 49.9177 47.7544C49.875 48.0006 49.7872 48.8365 49.6104 48.9732C49.322 48.8924 49.1867 48.167 49.1559 47.9102C49.055 46.9363 49.2401 45.9839 49.621 45.0885C49.9129 44.4155 50.2155 43.9184 50.6771 43.3477C51.3617 42.5379 51.9989 42.0349 52.9245 41.52C53.2982 41.3215 53.6495 41.1645 54.0446 41.0159C55.1576 40.6128 56.0998 40.438 57.278 40.3369C58.0837 40.2798 58.8218 40.2822 59.6275 40.3309C61.386 40.4558 62.919 40.7174 64.6313 41.1264C67.1243 41.7364 69.5757 42.6176 71.9204 43.6604C73.2779 44.2645 74.614 44.9232 75.9156 45.639C77.0607 46.2681 78.1986 46.9482 79.2701 47.6974C79.4766 47.8377 79.6878 47.9875 79.8907 48.1492L79.8954 48.1064C79.912 47.8924 79.9619 47.6534 80.0995 47.4821C80.3345 47.5107 80.5706 47.5333 80.8067 47.5142C80.9325 47.7045 80.9622 47.9102 80.9681 48.1326C80.999 48.5642 81.0144 48.9982 81.0298 49.4311C81.0927 51.3146 81.1734 53.1981 81.1283 55.0828C81.12 55.4217 81.1129 55.7618 81.0986 56.1007C81.0891 56.3302 81.0796 56.5929 81.0334 56.8177C81.0239 56.9116 80.9859 56.9711 80.8969 57.0044C80.7925 57.0436 80.6121 57.04 80.5018 57.0424C80.5041 57.0424 80.2787 57.0519 80.1719 57.0377C80.0426 57.0198 79.9785 56.9734 79.9607 56.8415C79.9132 56.65 79.8931 56.43 79.8753 56.2338C79.8408 55.8545 79.8195 55.4728 79.7969 55.0923C79.6878 53.2445 79.7151 51.3776 79.7934 49.5286C79.7969 49.4394 79.8017 49.3502 79.8052 49.261C79.6973 49.2063 79.5893 49.148 79.4837 49.0862L79.5122 50.3752L79.5145 50.3788ZM90.1866 52.8461C89.6859 52.726 89.1579 52.6131 88.6298 52.5346C88.6215 52.9995 88.6204 53.4597 88.5871 53.9246C89.0095 54.0233 89.4355 54.1173 89.8532 54.2148C90.9532 54.4716 92.0472 54.7415 93.1341 55.0519C94.2673 55.3765 95.3874 55.7404 96.4909 56.1542C97.3702 56.4835 98.2388 56.8403 99.0979 57.2184C99.8098 57.5323 100.512 57.8653 101.211 58.2065C101.376 58.2874 102.884 59.0544 102.976 58.9295C102.997 58.8665 102.801 58.6917 102.755 58.6501C102.383 58.3171 101.972 58.0341 101.555 57.763C100.143 56.8426 98.6268 56.0341 97.0973 55.3301C95.9582 54.8057 94.7977 54.3242 93.6194 53.8973C92.4981 53.4906 91.3483 53.1267 90.1878 52.8473L90.1866 52.8461ZM78.0313 52.8461C76.8708 53.1256 75.7222 53.4894 74.5997 53.8961C73.4203 54.323 72.2598 54.8045 71.1207 55.3289C69.5912 56.0329 68.0747 56.8415 66.6627 57.7618C66.245 58.0329 65.8345 58.3159 65.4631 58.6489C65.4168 58.6917 65.221 58.8653 65.2424 58.9283C65.3349 59.0532 66.8419 58.2862 67.0068 58.2053C67.7057 57.8641 68.4093 57.5311 69.1201 57.2172C69.9792 56.8391 70.8478 56.4824 71.727 56.153C72.8305 55.7392 73.9507 55.3741 75.0839 55.0507C76.1708 54.7403 77.2636 54.4704 78.3647 54.2136C78.7824 54.1161 79.2072 54.0221 79.6308 53.9234C79.5976 53.4585 79.5964 52.9983 79.5881 52.5334C79.0601 52.6119 78.5321 52.7248 78.0313 52.8449V52.8461ZM78.7812 44.8209C78.4525 44.0397 78.0705 43.2739 77.6694 42.5284C77.2636 41.7745 76.8317 41.0337 76.3808 40.3072C76.0699 39.8066 75.746 39.3131 75.4042 38.8327C75.1111 38.4213 74.8086 38.017 74.4834 37.6305C74.2853 37.3939 74.08 37.162 73.8332 36.9741C73.2043 36.4973 74.0207 37.9266 74.0539 37.9861C74.29 38.4177 74.5273 38.8481 74.7564 39.2822C75.0435 39.8268 75.3212 40.3761 75.5893 40.9291C75.9406 41.6544 76.2657 42.3904 76.5766 43.1336C76.98 44.098 77.3526 45.0754 77.762 46.0374C78.2283 46.0255 78.5688 46.3525 78.7053 46.4262C78.9663 46.5677 79.1918 46.6807 79.4077 46.7746C79.3971 46.7092 79.384 46.6474 79.3733 46.5963C79.2487 46.0029 79.0138 45.3786 78.78 44.8209H78.7812ZM72.9824 47.4714C71.9976 47.0505 70.9854 46.6807 69.9709 46.3418C68.9611 46.0053 67.9418 45.6985 66.9143 45.4202C66.2177 45.2312 65.5165 45.06 64.8104 44.9125C64.2148 44.7888 63.6156 44.6783 63.0116 44.5986C62.6485 44.5498 62.2818 44.5106 61.9152 44.5344C61.6269 44.5534 61.5521 44.6247 61.8499 44.7651C62.2035 44.9327 62.5785 45.0409 62.9523 45.1551C63.5218 45.3287 64.0914 45.5035 64.6574 45.6878C65.3776 45.9232 66.0943 46.1706 66.8051 46.4298C67.7532 46.7758 68.6894 47.1504 69.6185 47.5428C70.8039 48.0434 71.975 48.5737 73.1568 49.0815C73.298 49.0446 73.4428 49.0077 73.5935 48.9721C73.8902 48.9019 74.9154 48.8841 75.6083 48.896C75.4636 48.7521 75.25 48.6225 75.1218 48.5416C74.4585 48.1278 73.7015 47.777 72.9836 47.4702L72.9824 47.4714ZM89.4367 44.8209C89.203 45.3786 88.9668 46.0029 88.8434 46.5963C88.8327 46.6474 88.8197 46.7092 88.809 46.7746C89.025 46.6807 89.2516 46.5677 89.5115 46.4262C89.6479 46.3525 89.9885 46.0255 90.4548 46.0374C90.8642 45.0766 91.2368 44.098 91.6402 43.1336C91.9511 42.3904 92.2774 41.6544 92.6274 40.9291C92.8956 40.3749 93.1744 39.8268 93.4604 39.2822C93.6894 38.847 93.9267 38.4165 94.1629 37.9861C94.1949 37.9266 95.0113 36.4973 94.3836 36.9741C94.1368 37.162 93.9315 37.3939 93.7333 37.6305C93.4094 38.017 93.1056 38.4213 92.8125 38.8327C92.4708 39.3131 92.1469 39.8066 91.836 40.3072C91.3851 41.0349 90.9532 41.7757 90.5474 42.5284C90.1463 43.2739 89.7642 44.0397 89.4355 44.8209H89.4367ZM95.2355 47.4714C96.2204 47.0505 97.2325 46.6807 98.2471 46.3418C99.2568 46.0053 100.276 45.6985 101.304 45.4202C102 45.2312 102.701 45.06 103.408 44.9125C104.003 44.7888 104.602 44.6783 105.206 44.5986C105.569 44.5498 105.936 44.5106 106.303 44.5344C106.591 44.5534 106.666 44.6247 106.368 44.7651C106.014 44.9327 105.639 45.0409 105.266 45.1551C104.696 45.3287 104.127 45.5035 103.561 45.6878C102.84 45.9232 102.125 46.1706 101.413 46.4298C100.466 46.7758 99.5298 47.1504 98.6007 47.5428C97.4153 48.0434 96.2441 48.5737 95.0623 49.0815C94.9211 49.0446 94.7763 49.0077 94.6256 48.9721C94.329 48.9019 93.3038 48.8841 92.6108 48.896C92.7556 48.7521 92.9692 48.6225 93.0973 48.5416C93.7606 48.1278 94.5177 47.777 95.2355 47.4702V47.4714ZM88.4815 50.3776L88.51 49.0886C88.4032 49.1492 88.2952 49.2087 88.1884 49.2634C88.1932 49.3526 88.1967 49.4418 88.2003 49.5309C88.2786 51.3788 88.3047 53.2468 88.1967 55.0947C88.1742 55.4752 88.1528 55.8569 88.1184 56.2362C88.1006 56.4324 88.0805 56.6524 88.033 56.8438C88.014 56.9758 87.9499 57.021 87.8206 57.04C87.7138 57.0555 87.4884 57.0448 87.4907 57.0448C87.3804 57.0424 87.2 57.0448 87.0956 57.0067C87.0054 56.9734 86.9674 56.914 86.9591 56.8201C86.914 56.5953 86.9046 56.3325 86.8939 56.103C86.8796 55.7641 86.8725 55.4241 86.8642 55.0852C86.8191 53.2005 86.8998 51.3169 86.9627 49.4334C86.9769 49.0006 86.9924 48.5666 87.0244 48.1349C87.0303 47.9114 87.0612 47.7069 87.1858 47.5166C87.4219 47.5356 87.658 47.513 87.893 47.4845C88.0306 47.6557 88.0805 47.8947 88.0971 48.1088L88.1018 48.1516C88.3047 47.9899 88.5159 47.8389 88.7224 47.6997C89.7939 46.9506 90.9306 46.2704 92.0769 45.6414C93.3785 44.9256 94.7158 44.2668 96.0721 43.6628C98.4168 42.6199 100.867 41.7388 103.36 41.1288C105.072 40.7198 106.607 40.4582 108.364 40.3333C109.17 40.2858 109.908 40.2822 110.713 40.3393C111.89 40.4403 112.833 40.6151 113.947 41.0182C114.343 41.1669 114.693 41.3238 115.067 41.5224C115.992 42.0373 116.63 42.5403 117.314 43.35C117.776 43.9208 118.078 44.4178 118.37 45.0909C118.751 45.9874 118.936 46.9387 118.835 47.9126C118.806 48.1682 118.67 48.8948 118.381 48.9756C118.204 48.8389 118.116 48.003 118.074 47.7568C118.002 47.3549 117.917 46.9839 117.8 46.5927C117.68 46.2217 117.553 45.8876 117.39 45.5332C117.117 44.9791 116.843 44.5665 116.439 44.1004C115.749 43.35 115.115 42.9101 114.195 42.4749C113.97 42.3738 113.751 42.287 113.52 42.205C112.504 41.8672 111.645 41.7329 110.578 41.6687C109.854 41.6354 109.183 41.6508 108.46 41.7043C106.763 41.8482 105.264 42.1181 103.612 42.5177C101.237 43.1051 98.9021 43.922 96.6476 44.8673C95.1359 45.5011 93.6514 46.2062 92.2003 46.9696C91.2201 47.4857 90.2543 48.0279 89.3074 48.6023C89.1033 48.7307 88.885 48.8698 88.6595 49.0042C90.4038 49.0291 92.1575 49.1683 93.8852 49.3835C95.9677 49.6427 98.0382 50.0196 100.079 50.506C103.723 51.3728 107.28 52.6178 110.656 54.2469C112.191 54.9936 113.605 55.7677 115.061 56.6583C117.847 58.4111 119.992 60.0758 122.319 62.4028C124.31 64.429 126.079 66.7073 127.482 69.1818C128.219 70.4803 128.888 71.8835 129.359 73.302C129.39 73.39 129.434 73.5149 129.477 73.6564C128.95 73.4923 128.549 73.3781 128.002 73.069C127.912 73.0107 127.819 72.9608 127.726 72.918C126.142 69.4518 123.913 66.3399 121.209 63.649C118.939 61.4278 116.847 59.8261 114.151 58.1471C112.703 57.2731 111.295 56.5109 109.774 55.7748C106.519 54.2136 103.104 53.0007 99.6081 52.1065C95.957 51.1719 92.237 50.6261 88.4803 50.3811L88.4815 50.3776ZM107.251 34.7077C107.278 35.1263 107.273 35.4902 107.229 35.9075C107.14 36.6329 106.989 37.1894 106.646 37.8362C106.503 38.0943 106.018 38.8172 105.688 38.7887C105.641 38.5378 105.936 37.6912 106.012 37.3784C106.209 36.514 106.26 35.6768 106.181 34.7957C106.094 34.0561 105.944 33.477 105.661 32.7874C105.218 31.7945 104.727 31.1048 103.869 30.4306C103.862 30.4258 103.812 30.3866 103.81 30.3866C102.817 29.6993 101.956 29.4722 100.752 29.4757C100.471 29.4841 100.207 29.5067 99.9285 29.5447C98.9032 29.704 98.1533 29.9704 97.2361 30.4508C96.0756 31.0977 95.2521 31.7766 94.3183 32.716C94.2875 32.7469 94.208 32.8218 94.1866 32.8516C92.5503 34.6126 91.4325 36.3261 90.2661 38.4177C90.0122 38.8814 89.769 39.3464 89.5316 39.8196C88.2751 42.3726 87.2202 45.0255 86.2211 47.6878C85.8782 47.5107 85.489 47.4251 85.1057 47.4429C85.5934 45.9898 86.125 44.5463 86.6874 43.1253C87.4041 41.3274 88.1778 39.5521 89.0677 37.8327C90.2673 35.5686 91.4219 33.7648 93.1709 31.8777C93.2385 31.8075 93.3062 31.7374 93.3738 31.6684C94.4026 30.6446 95.3079 29.9205 96.587 29.226C97.6882 28.666 98.5852 28.3711 99.8122 28.2129C99.9273 28.1998 100.665 28.1368 100.727 28.157C102.236 28.1784 103.322 28.4959 104.549 29.3854C104.687 29.4912 104.815 29.597 104.944 29.7124C105.797 30.5114 106.291 31.2677 106.73 32.3486C107.035 33.1607 107.184 33.8385 107.248 34.7042L107.251 34.7077ZM60.744 34.7077C60.7167 35.1263 60.7215 35.4902 60.7654 35.9075C60.8544 36.6329 61.0063 37.1894 61.3492 37.8362C61.4916 38.0943 61.9769 38.8172 62.3068 38.7887C62.353 38.5378 62.0588 37.6912 61.9828 37.3784C61.7859 36.514 61.7348 35.6768 61.8143 34.7957C61.901 34.0561 62.0505 33.477 62.3341 32.7874C62.7766 31.7945 63.2679 31.1048 64.1258 30.4306C64.1329 30.4258 64.1827 30.3866 64.1851 30.3866C65.1795 29.6993 66.0386 29.4722 67.2429 29.4757C67.5242 29.4841 67.7876 29.5067 68.0664 29.5447C69.0916 29.704 69.8415 29.9704 70.7576 30.4508C71.9181 31.0977 72.7415 31.7766 73.6754 32.716C73.7062 32.7469 73.7857 32.8218 73.8071 32.8516C75.4434 34.6126 76.5611 36.3261 77.7276 38.4177C77.9815 38.8814 78.2259 39.3464 78.462 39.8196C79.7186 42.3726 80.7735 45.0255 81.7726 47.6878C82.1155 47.5107 82.5047 47.4251 82.888 47.4429C82.4003 45.9898 81.8687 44.5463 81.3063 43.1253C80.5896 41.3274 79.8159 39.5521 78.926 37.8327C77.7264 35.5686 76.5718 33.7648 74.8228 31.8777C74.7552 31.8075 74.6875 31.7374 74.6199 31.6684C73.5911 30.6446 72.6858 29.9205 71.4066 29.226C70.3055 28.666 69.4084 28.3711 68.1815 28.2129C68.0664 28.1998 67.3284 28.1368 67.2667 28.157C65.7573 28.1784 64.6716 28.4959 63.4447 29.3854C63.307 29.4912 63.1789 29.597 63.0496 29.7124C62.1964 30.5114 61.7028 31.2677 61.2638 32.3486C60.9588 33.1607 60.8093 33.8385 60.7452 34.7042L60.744 34.7077Z" fill="#FF9494"/>
<path id="Vector_12" fill-rule="evenodd" clip-rule="evenodd" d="M78.2686 48.349C77.4558 47.8674 76.63 47.4072 75.7946 46.9673C75.4386 46.7794 75.0803 46.5963 74.7196 46.4155C75.5822 46.4084 76.465 46.425 77.3656 46.4678C77.9732 46.8317 78.5712 47.2122 79.1515 47.6129V48.0339C79.1515 48.1706 79.0458 48.2872 78.907 48.2967C78.6839 48.3133 78.4715 48.3311 78.2686 48.3478V48.349ZM81.1449 53.7653C81.1461 54.2053 81.1425 54.6452 81.1319 55.0864C81.1235 55.4253 81.1164 55.7653 81.1022 56.1042C81.0939 56.3064 81.0844 56.5371 81.0512 56.7428H80.2929C80.147 56.7428 80.0295 56.625 80.0295 56.4788V53.7653H81.1437H81.1449ZM112.028 83.6388L112.798 83.401L112.838 81.848V81.8302L112.834 81.7886C112.81 81.6709 112.707 81.5805 112.582 81.5781C112.549 81.5781 112.517 81.5829 112.488 81.5936L112.27 81.6637C112.213 81.9586 112.176 82.2488 112.16 82.3843C112.106 82.8005 112.064 83.219 112.028 83.6388ZM87.9677 53.7653H86.8535C86.8524 54.2053 86.8559 54.6452 86.8666 55.0864C86.8749 55.4253 86.882 55.7653 86.8963 56.1042C86.9046 56.3064 86.9141 56.5371 86.9473 56.7428H87.7055C87.8515 56.7428 87.9689 56.625 87.9689 56.4788V53.7653H87.9677ZM55.1992 83.401L55.9692 83.6388C55.9336 83.219 55.8909 82.8005 55.8375 82.3843C55.8197 82.2488 55.783 81.9586 55.7272 81.6637L55.4994 81.5912C55.3617 81.5472 55.2134 81.6245 55.1695 81.7624C55.1671 81.7719 55.1647 81.7803 55.1624 81.7898L55.1576 81.8326V81.8492L55.198 83.4022L55.1992 83.401ZM77.4914 42.7781C77.012 42.4618 76.5267 42.1669 76.0391 41.8922C76.2242 42.3036 76.4033 42.7186 76.5778 43.1348C76.8934 43.8875 77.19 44.6497 77.4997 45.406C77.8189 45.5903 78.1346 45.7782 78.449 45.9684C78.5724 46.0433 78.7338 46.0041 78.8097 45.8792C78.8548 45.8043 78.8584 45.7163 78.8275 45.6414C78.7243 45.3941 78.6151 45.1408 78.5 44.8804C78.3968 44.6462 78.2829 44.3953 78.1559 44.1265C77.9411 43.6675 77.7193 43.2169 77.4902 42.7769L77.4914 42.7781ZM62.2166 38.2001L62.0481 38.1942C62.1169 38.3071 62.1893 38.4165 62.2617 38.5223L62.2996 38.577C62.283 38.4676 62.2534 38.3368 62.2166 38.2001ZM70.4289 46.6486C69.6446 46.7271 68.8816 46.8258 68.1376 46.9387C68.6336 47.1349 69.1284 47.3383 69.6197 47.5452C70.7255 48.0113 71.8184 48.5059 72.9207 48.9816C73.3265 48.9197 73.7371 48.8603 74.1536 48.8032C74.2972 48.7842 74.398 48.651 74.379 48.5071C74.3672 48.4168 74.3102 48.343 74.2354 48.3062C73.8878 48.1338 73.5401 47.9661 73.1936 47.8044C72.846 47.6427 72.4936 47.4845 72.1388 47.3323C71.6012 47.1016 71.0542 46.8816 70.4977 46.6747L70.4313 46.6498L70.4289 46.6486ZM90.5058 42.7781C91.0825 42.3976 91.6675 42.048 92.256 41.7269C92.0436 42.1931 91.8395 42.6628 91.6426 43.1348C91.3507 43.8328 91.0742 44.5379 90.7894 45.2383C90.3741 45.475 89.9624 45.7175 89.5554 45.9649C89.4854 46.01 89.394 46.0207 89.3109 45.9863C89.1769 45.9304 89.1152 45.7758 89.1709 45.6414C89.2872 45.3632 89.3964 45.1087 89.4972 44.8816C89.6005 44.6485 89.7144 44.3976 89.8402 44.1277C90.0549 43.6687 90.2768 43.2181 90.5058 42.7781ZM105.782 38.2001L105.95 38.1942C105.88 38.3071 105.809 38.4165 105.737 38.5223L105.7 38.5759C105.717 38.4676 105.747 38.3357 105.783 38.2001H105.782ZM90.6316 46.469C91.5334 46.4262 92.415 46.4096 93.2789 46.4167C92.9181 46.5963 92.5598 46.7806 92.2038 46.9684C91.3685 47.4084 90.5414 47.8686 89.7298 48.3502C89.5305 48.3335 89.3204 48.3169 89.1033 48.299C88.9609 48.2955 88.847 48.1789 88.847 48.0351V47.6141C89.4272 47.2134 90.0253 46.8329 90.6328 46.469H90.6316ZM97.5695 46.6486C98.4108 46.733 99.2272 46.8388 100.021 46.9625C99.5452 47.1516 99.0718 47.3454 98.6007 47.5452C97.4758 48.0196 96.3628 48.5226 95.2415 49.0065C94.7835 48.9352 94.3195 48.8674 93.8508 48.8032C93.7654 48.7937 93.6859 48.7414 93.6443 48.6581C93.5803 48.5273 93.6337 48.3692 93.7642 48.305C94.1118 48.1326 94.4595 47.9649 94.806 47.8032C95.1537 47.6415 95.5049 47.4833 95.8609 47.3311C96.3984 47.1004 96.9454 46.8805 97.5019 46.6736L97.5684 46.6486H97.5695Z" fill="#E85A5A"/>
<path id="Vector_13" fill-rule="evenodd" clip-rule="evenodd" d="M126.528 76.9228C122.548 73.3449 116.02 72.4685 116.02 72.4685L115.043 67.7621C115.043 67.7621 118.065 68.0225 123.626 70.1296C129.186 72.2354 130.935 75.0679 130.935 75.0679L126.528 76.9228Z" fill="#D4991A"/>
<path id="Vector_14" fill-rule="evenodd" clip-rule="evenodd" d="M41.4692 76.9228C45.4489 73.3449 51.9775 72.4685 51.9775 72.4685L52.9541 67.7621C52.9541 67.7621 49.9318 68.0225 44.3715 70.1296C38.81 72.2354 37.0622 75.0679 37.0622 75.0679L41.4703 76.9228H41.4692Z" fill="#D9A56A"/>
<g id="Group">
<g id="Group_2">
<path id="Vector_15" fill-rule="evenodd" clip-rule="evenodd" d="M33.0374 57.379L46.5632 61.0105C46.1871 61.3387 45.9581 61.8 45.8857 62.2852L31.5482 58.4349L33.7137 73.421L52.2813 79.3629L52.1389 79.8778C52.0784 80.1429 52.0037 80.4473 51.9954 80.7446L35.2788 75.3949C38.4209 97.8247 38.3283 117.407 38.2892 120.647L83.295 139.874V90.7615L54.1502 81.4343C54.2499 81.2761 54.3151 81.0883 54.3306 80.8766C54.3697 80.6554 54.4385 80.3748 54.5169 80.0787L83.295 89.2894V72.3306L63.6535 67.057C64.07 66.7573 64.4011 66.3388 64.5363 65.837L83.9986 71.063L103.063 65.944C103.124 66.4648 103.355 66.9084 103.692 67.2318L84.7023 72.3306V89.2894L113.936 79.9336C113.925 80.4378 113.944 80.961 114.246 81.307L84.7023 90.7615V139.874L129.708 120.647C129.668 117.407 129.575 97.8247 132.718 75.3949L116.274 80.6578C116.288 80.5698 116.296 80.4759 116.296 80.376C116.296 80.03 116.31 79.6043 116.3 79.1762L134.285 73.4198L136.45 58.4337L122.484 62.1841C122.349 61.9463 122.158 61.7239 121.902 61.5325L121.515 61.3256C121.446 61.2281 121.369 61.1353 121.282 61.0509L134.962 57.3778L117.648 51.0923C117.962 50.7344 118.157 50.2718 118.191 49.795L137.505 56.8058C137.829 56.9057 138.043 57.2292 137.993 57.5764L135.612 74.0524H135.611C135.574 74.3104 135.394 74.5376 135.13 74.622L134.205 74.9181C130.679 99.6416 131.117 121.033 131.118 121.096C131.122 121.39 130.946 121.645 130.692 121.753L84.3226 141.564C84.1232 141.666 83.88 141.666 83.6806 141.564L37.3079 121.756C37.054 121.647 36.8772 121.392 36.8819 121.099C36.8819 121.036 37.3209 99.644 33.7944 74.9204L32.8701 74.6244C32.6055 74.5399 32.4251 74.3128 32.3883 74.0548H32.3871L30.0069 57.5788C29.9582 57.2315 30.1706 56.9069 30.4945 56.8082L49.6329 49.8616C49.6531 50.3586 49.8536 50.8128 50.168 51.1612L33.0374 57.379ZM87.9108 40.3013L83.9974 38.8815L80.7996 40.0421C80.7533 39.5605 80.5374 39.1074 80.1992 38.7662L83.7577 37.4748C83.9179 37.4165 84.0864 37.4201 84.2359 37.4748L88.3403 38.9647C88.0579 39.3345 87.8906 39.8363 87.9096 40.3025L87.9108 40.3013Z" fill="#1A1A1A"/>
<g id="Group_3">
<path id="Vector_16" fill-rule="evenodd" clip-rule="evenodd" d="M80.0651 46.6735H82.4834C79.9915 40.2298 77.4712 35.2226 74.7053 32.0774C71.9394 28.9347 68.9231 27.7004 65.418 28.8312C63.5918 29.4198 62.442 30.3378 61.7918 31.4008C60.8971 32.8634 60.9244 34.6411 61.4358 36.2333C61.9472 37.8267 62.925 39.2025 63.9324 39.8707C69.6707 40.9766 75.1847 43.4986 80.0663 46.6735H80.0651ZM83.9856 46.6735H83.9986V48.0826H80.2941V56.4776H83.9986V57.9722L65.6517 67.347L65.3254 84.0335C65.3183 84.4212 64.9979 84.7292 64.6111 84.722C64.2243 84.7149 63.9169 84.3938 63.9241 84.0062L64.248 67.435C59.5242 72.1581 56.6325 77.0417 55.0556 80.251C55.2537 80.3711 55.3878 80.5864 55.3937 80.8349L56.6586 128.882C56.6681 129.27 56.362 129.591 55.9752 129.601C55.5883 129.61 55.268 129.303 55.2585 128.916L54.0363 82.4937C53.7278 83.238 53.5593 83.7196 53.5118 83.8599C53.4549 84.0811 53.2899 84.2714 53.0574 84.3498C52.6907 84.4747 52.292 84.2773 52.1674 83.9099C52.1639 83.9004 50.982 80.4627 50.8302 76.2165C50.721 73.1771 51.6465 70.0058 52.1995 68.4065C51.2027 68.5635 49.4039 68.9963 46.5525 70.1687C41.875 72.0927 38.9204 74.2331 38.6523 74.4304C38.4885 74.5612 38.2666 74.6171 38.0471 74.5636C37.671 74.4709 37.4408 74.0904 37.5333 73.7134C37.544 73.6682 40.056 62.7678 53.5047 55.1077C51.955 54.4858 50.81 53.4299 50.015 52.1588C48.7548 50.1433 48.3633 47.5427 48.737 45.2121C49.0527 43.2454 49.9212 41.5557 51.1814 40.7649C52.928 39.6686 56.6408 38.9171 61.5734 39.5033C59.7188 37.0633 58.9179 33.4128 60.5945 30.6695C61.4097 29.3354 62.8087 28.1986 64.9896 27.4947C69.1082 26.1653 72.6027 27.5589 75.7602 31.1476C78.7171 34.5067 81.3727 39.8351 83.9867 46.6735H83.9856ZM55.2549 54.1612C53.354 53.795 52.0369 52.7521 51.2015 51.4156C50.1265 49.6962 49.8026 47.4179 50.1218 45.4321C50.3757 43.847 51.0176 42.5212 51.923 41.9528C53.7741 40.7911 58.257 40.0955 64.299 41.3797C68.5517 42.2834 73.5425 44.1776 78.8892 47.5879V48.0338C68.7784 48.8186 61.0881 51.1742 55.2561 54.1612H55.2549ZM55.7841 55.4561C55.7248 55.5013 55.6572 55.5358 55.586 55.5596C44.9934 61.077 40.908 68.6859 39.5244 72.17C40.9436 71.2924 43.1803 70.0391 46.0209 68.8703C51.1576 66.7572 53.2781 66.9166 53.284 66.9166C53.6708 66.9392 53.9651 67.2721 53.9425 67.6598C53.9378 67.7406 53.92 67.8179 53.8903 67.8881C53.8856 67.9 52.0891 72.1866 52.2315 76.1677C52.3063 78.2605 52.6444 80.1428 52.9518 81.471C54.3567 78.2272 57.7894 71.5493 64.3311 65.3993C71.8053 58.3706 77.2102 56.2504 78.888 55.7201V49.4441C68.9635 50.2253 61.4536 52.5405 55.7841 55.4561ZM65.45 84.3593L65.6731 133.414C65.6743 133.802 65.9899 134.114 66.3755 134.113C66.7624 134.112 67.0744 133.796 67.0732 133.409L66.8525 85.005C66.3186 84.7779 65.914 84.3332 65.7205 83.8029C65.5544 83.9313 65.4476 84.1334 65.4488 84.3605L65.45 84.3593ZM81.0737 57.8866H79.5905C79.2072 57.8866 78.8951 57.5787 78.888 57.1958C77.1046 57.8212 72.6371 59.7939 66.4479 65.3613L81.0749 57.8866H81.0737Z" fill="#1A1A1A"/>
<path id="Vector_17" fill-rule="evenodd" clip-rule="evenodd" d="M87.9322 46.6734H85.5139C88.0057 40.2298 90.526 35.2225 93.292 32.0774C96.0579 28.9346 99.0742 27.7003 102.579 28.8312C104.405 29.4198 105.555 30.3377 106.205 31.4008C107.1 32.8634 107.073 34.641 106.561 36.2332C106.05 37.8266 105.072 39.2024 104.065 39.8707C98.3266 40.9765 92.8126 43.4986 87.931 46.6734H87.9322ZM84.0117 46.6734H83.9987V48.0825H87.7032V56.4775H83.9987V57.9722L102.346 67.347L102.672 84.0335C102.679 84.4211 102.999 84.7291 103.386 84.722C103.773 84.7148 104.08 84.3938 104.073 84.0061L103.749 67.435C108.473 72.158 111.365 77.0416 112.942 80.251C112.744 80.3711 112.609 80.5863 112.604 80.8348L111.339 128.882C111.329 129.27 111.635 129.591 112.022 129.601C112.409 129.61 112.729 129.303 112.739 128.916L113.961 82.4936C114.269 83.238 114.438 83.7196 114.485 83.8599C114.542 84.081 114.707 84.2713 114.94 84.3498C115.307 84.4746 115.705 84.2772 115.83 83.9098C115.833 83.9003 117.015 80.4626 117.167 76.2164C117.276 73.1771 116.351 70.0058 115.799 68.4065C116.796 68.5634 118.596 68.9962 121.446 70.1687C126.123 72.0926 129.078 74.233 129.346 74.4304C129.51 74.5612 129.732 74.6171 129.951 74.5636C130.327 74.4708 130.558 74.0903 130.465 73.7134C130.454 73.6682 127.942 62.7678 114.494 55.1077C116.043 54.4858 117.188 53.4299 117.983 52.1587C119.244 50.1432 119.635 47.5427 119.261 45.2121C118.946 43.2453 118.077 41.5556 116.817 40.7649C115.07 39.6685 111.358 38.917 106.425 39.5032C108.28 37.0632 109.082 33.4127 107.404 30.6695C106.589 29.3353 105.19 28.1986 103.009 27.4946C98.8902 26.1652 95.3958 27.5588 92.2383 31.1475C89.2813 34.5067 86.6257 39.835 84.0117 46.6734ZM112.742 54.1611C114.643 53.7949 115.96 52.7521 116.796 51.4155C117.871 49.6961 118.195 47.4178 117.876 45.432C117.622 43.847 116.98 42.5211 116.074 41.9528C114.223 40.791 109.74 40.0954 103.698 41.3796C99.4455 42.2833 94.4548 44.1775 89.1081 47.5879V48.0338C99.2189 48.8186 106.909 51.1742 112.741 54.1611H112.742ZM112.213 55.4561C112.272 55.5013 112.34 55.5357 112.411 55.5595C123.004 61.0769 127.089 68.6859 128.473 72.1699C127.054 71.2924 124.817 70.0391 121.976 68.8702C116.84 66.7572 114.719 66.9165 114.713 66.9165C114.326 66.9391 114.032 67.2721 114.055 67.6597C114.059 67.7406 114.077 67.8179 114.107 67.888C114.112 67.8999 115.908 72.1866 115.766 76.1676C115.691 78.2604 115.353 80.1428 115.046 81.471C113.641 78.2271 110.208 71.5492 103.666 65.3992C96.192 58.3705 90.7871 56.2504 89.1104 55.72V49.444C99.035 50.2253 106.545 52.5404 112.214 55.4561H112.213ZM102.547 84.3593L102.324 133.414C102.323 133.802 102.007 134.114 101.622 134.113C101.235 134.112 100.923 133.796 100.924 133.409L101.147 84.5055L102.074 84.2059C102.226 84.1536 102.346 84.0727 102.436 83.9752C102.507 84.0858 102.548 84.2178 102.548 84.3593H102.547ZM86.9236 57.8866H88.4068C88.7901 57.8866 89.1021 57.5786 89.1093 57.1957C90.8927 57.8212 95.3602 59.7939 101.549 65.3612L86.9224 57.8866H86.9236Z" fill="#1A1A1A"/>
</g>
<path id="Vector_18" fill-rule="evenodd" clip-rule="evenodd" d="M79.0802 51.8425C79.2487 51.8033 79.4208 51.7664 79.594 51.7308L79.9452 53.0958C78.4976 53.3979 77.0571 53.776 75.6522 54.2338C74.2959 54.6761 72.9658 55.1934 71.6665 55.7832C69.6327 56.7059 67.6938 57.7761 65.7941 58.9497C65.1783 59.3302 64.5707 59.7226 63.9359 60.071C63.8813 60.1008 63.5716 60.2744 63.5289 60.2292C63.5076 60.1638 63.7757 59.9058 63.8291 59.8534C64.318 59.3814 64.8496 58.9592 65.3918 58.5514C67.142 57.2339 69.024 56.0472 70.9593 55.0233C72.3084 54.3099 73.6955 53.6607 75.1159 53.1018C76.4021 52.5952 77.7346 52.1541 79.0814 51.8425H79.0802ZM88.9182 51.8425C88.7497 51.8033 88.5776 51.7664 88.4044 51.7308L88.0531 53.0958C89.5008 53.3979 90.9413 53.776 92.3462 54.2338C93.7024 54.6761 95.0326 55.1934 96.3319 55.7832C98.3657 56.7059 100.305 57.7761 102.204 58.9497C102.82 59.3302 103.428 59.7226 104.062 60.071C104.117 60.1008 104.427 60.2744 104.469 60.2292C104.491 60.1638 104.223 59.9058 104.169 59.8534C103.682 59.3814 103.149 58.9592 102.607 58.5514C100.856 57.2339 98.9744 56.0472 97.0391 55.0233C95.69 54.3099 94.3029 53.6607 92.8825 53.1018C91.5963 52.5952 90.2637 52.1541 88.917 51.8425H88.9182ZM87.5512 46.6022C87.4765 46.7901 87.4017 46.9851 87.3317 47.1825C87.8099 47.0374 88.3735 47.1944 88.6642 47.6284C89.0973 46.4833 89.5601 45.3465 90.0786 44.2383C90.5521 43.2264 91.0706 42.2383 91.639 41.2775C92.1017 40.495 92.5918 39.7293 93.1056 38.979C93.5387 38.3452 93.992 37.7257 94.4535 37.1121C94.5639 36.9658 95.6081 35.6281 95.506 35.5151C95.4479 35.483 95.2379 35.6412 95.1869 35.6792C94.7882 35.9801 94.431 36.3297 94.0833 36.6888C92.9347 37.8755 91.8775 39.187 90.9306 40.5402C90.2448 41.5212 89.6016 42.5331 89.0166 43.5772C88.4708 44.551 87.9641 45.5629 87.5524 46.601L87.5512 46.6022ZM92.3877 47.7211C93.4224 47.1944 94.5141 46.752 95.6105 46.3703C96.7876 45.9613 97.9884 45.6176 99.1999 45.3311C100.877 44.9351 102.611 44.6533 104.329 44.5344C104.85 44.4987 105.371 44.4761 105.892 44.5189C105.956 44.5237 106.233 44.5475 106.254 44.6105C106.254 44.7627 104.503 45.0623 104.316 45.098C103.53 45.2478 102.744 45.4107 101.966 45.5974C101.045 45.8198 100.131 46.0707 99.2272 46.3561C98.1189 46.7057 97.0296 47.1135 95.9629 47.5725C94.8404 48.0553 93.7369 48.5963 92.6583 49.1683C92.5515 49.1433 92.4352 49.1267 92.3094 49.1195C91.8051 49.0945 91.092 49.0018 90.4536 48.8995C91.0421 48.4465 91.7351 48.0529 92.3865 47.7211H92.3877ZM80.4472 46.6022C80.5219 46.7901 80.5967 46.9851 80.6667 47.1825C80.1885 47.0374 79.6249 47.1944 79.3341 47.6284C78.901 46.4833 78.4383 45.3465 77.9197 44.2383C77.4463 43.2264 76.9278 42.2383 76.3594 41.2775C75.8966 40.495 75.4066 39.7293 74.8928 38.979C74.4597 38.3452 74.0064 37.7257 73.5448 37.1121C73.4345 36.9658 72.3891 35.6281 72.4923 35.5151C72.5493 35.483 72.7605 35.6412 72.8115 35.6792C73.2102 35.9801 73.5674 36.3297 73.915 36.6888C75.0637 37.8755 76.1209 39.187 77.0678 40.5402C77.7536 41.5212 78.3968 42.5331 78.9817 43.5772C79.5276 44.551 80.033 45.5629 80.446 46.601L80.4472 46.6022ZM75.6107 47.7211C74.576 47.1944 73.4843 46.752 72.3879 46.3703C71.212 45.9613 70.01 45.6176 68.7985 45.3311C67.1219 44.9351 65.3871 44.6533 63.6689 44.5344C63.148 44.4987 62.6271 44.4761 62.1062 44.5189C62.0421 44.5237 61.7657 44.5475 61.7443 44.6105C61.7443 44.7627 63.4957 45.0623 63.682 45.098C64.4687 45.2478 65.2542 45.4107 66.0326 45.5974C66.9534 45.8198 67.867 46.0707 68.7712 46.3561C69.8795 46.7057 70.9676 47.1135 72.0355 47.5725C73.158 48.0553 74.2615 48.5963 75.3401 49.1683C75.4469 49.1433 75.5632 49.1267 75.689 49.1195C76.1933 49.0945 76.9064 49.0018 77.5448 48.8995C76.9562 48.4465 76.2633 48.0529 75.6118 47.7211H75.6107Z" fill="#1A1A1A"/>
</g>
<path id="Vector_19" fill-rule="evenodd" clip-rule="evenodd" d="M82.437 46.6736H85.5613V48.0827H82.437V46.6736ZM82.437 56.4776H85.5613V57.8867H82.437V56.4776Z" fill="#1A1A1A"/>
</g>
</g>
</g>
<defs>
<filter id="filter0_f_11_5969" x="0" y="0" width="167.678" height="167.678" filterUnits="userSpaceOnUse" color-interpolation-filters="sRGB">
<feFlood flood-opacity="0" result="BackgroundImageFix"/>
<feBlend mode="normal" in="SourceGraphic" in2="BackgroundImageFix" result="shape"/>
<feGaussianBlur stdDeviation="2" result="effect1_foregroundBlur_11_5969"/>
</filter>
</defs>
</svg>
