<svg width="160" height="160" viewBox="0 0 160 160" fill="none" xmlns="http://www.w3.org/2000/svg">
<g id="hand">
<rect id="Rectangle 26" width="159.678" height="159.678" rx="55" fill="#BAF2E9"/>
<g id="Group 5">
<g id="Group">
<path id="Vector" d="M37.2922 93.6903V122.394H42.3861C48.221 122.394 54.1134 123.703 59.3973 126.205L68.4257 130.452C71.1816 131.761 74.1467 132.386 77.0926 132.386C81.4072 132.386 85.6648 131.021 89.257 128.329L132.079 96.307C134.531 94.4681 135.995 91.5482 135.995 88.496C135.995 85.0074 134.208 81.8792 131.205 80.0972C128.221 78.3151 124.61 78.2583 121.531 79.9076L91.5567 96.1556C91.5567 96.1556 90.7582 100.895 87.5652 100.308C84.3531 99.7197 47.6126 91.6809 37.2917 93.6907L37.2922 93.6903Z" fill="#F5BF9A"/>
<path id="Vector_2" d="M37.2922 78.0682V97.833C47.6131 95.8232 84.3532 99.7197 87.5657 100.307C88.9626 100.564 89.9013 99.8013 90.515 98.8621C91.5036 97.3498 91.6807 95.4307 91.1369 93.7093C90.2273 90.83 87.9281 88.4878 84.9233 87.6231L70.1361 83.3761L59.7774 80.3994C54.3982 78.8446 48.8103 78.0673 43.2033 78.0673H37.2922V78.0682Z" fill="#F5CFB2"/>
<path id="Vector_3" d="M37.2927 76.3425H23.6837V124.291H37.2927V76.3425Z" fill="#7FBD3A"/>
<path id="Vector_4" d="M30.488 76.3425H23.6837V124.291H30.488V76.3425Z" fill="#30864B"/>
<g id="Group_2">
<path id="Vector_5" d="M83.5073 76.4204C96.215 76.4204 106.517 66.1446 106.517 53.4687C106.517 40.7928 96.215 30.517 83.5073 30.517C70.7996 30.517 60.4979 40.7928 60.4979 53.4687C60.4979 66.1446 70.7996 76.4204 83.5073 76.4204Z" fill="#FFC700"/>
<path id="Vector_6" d="M81.5796 42.9402H88.9846C89.2541 44.0733 90.2757 44.9176 91.4945 44.9176C92.9186 44.9176 94.0737 43.7668 94.0737 42.3448V40.3674C94.0737 38.9454 92.9191 37.7946 91.4945 37.7946H86.0866V37.0182C86.0866 35.5962 84.9319 34.4454 83.5073 34.4454C82.0827 34.4454 80.928 35.5962 80.928 37.0182V37.8601C76.4737 38.1991 72.9413 41.8835 72.9413 46.4121V48.4372C72.9413 53.1884 76.8165 57.0547 81.5796 57.0547H85.4346C87.3537 57.0547 88.9157 58.6124 88.9157 60.5243C88.9157 62.4362 87.3542 63.9967 85.4346 63.9967H78.0999V63.7804C78.0999 62.3584 76.9452 61.2076 75.5206 61.2076C74.096 61.2076 72.9413 62.3584 72.9413 63.7804V66.569C72.9413 67.991 74.096 69.1418 75.5206 69.1418H80.9285V69.9182C80.9285 71.3402 82.0832 72.491 83.5078 72.491C84.9324 72.491 86.087 71.3402 86.087 69.9182V69.0759C90.5419 68.7364 94.0737 65.0525 94.0737 60.5243C94.0737 55.7731 90.1986 51.9092 85.4346 51.9092H81.5796C79.6604 51.9092 78.0999 50.3516 78.0999 48.4368V46.4117C78.0999 44.4974 79.6604 42.9393 81.5796 42.9393V42.9402Z" fill="#A47400"/>
</g>
</g>
<g id="Group_3">
<path id="Vector_7" d="M83.503 79.3006C97.7962 79.3006 109.41 67.7163 109.41 53.459C109.41 39.2017 97.7962 27.6366 83.503 27.6366C69.2099 27.6366 57.5965 39.2208 57.5965 53.459C57.5965 67.6972 69.2285 79.3006 83.503 79.3006ZM83.503 31.4285C95.6865 31.4285 105.608 41.3061 105.608 53.459C105.608 65.612 95.6865 75.5087 83.503 75.5087C71.3195 75.5087 61.3979 65.612 61.3979 53.459C61.3979 41.3061 71.3195 31.4285 83.503 31.4285Z" fill="black"/>
<path id="Vector_8" d="M132.169 78.7429C128.884 76.7942 124.916 76.7163 121.556 78.5356L92.8306 94.0956C92.1412 90.3768 89.393 87.2477 85.6639 86.1757L60.5171 78.9458C55.0407 77.371 49.3728 76.5721 43.6724 76.5721H39.6733V75.8119C39.6733 74.7505 38.8179 73.9163 37.7729 73.9163H24.1633C23.0992 73.9163 22.2629 74.7505 22.2629 75.8119V123.741C22.2629 124.784 23.0992 125.637 24.1633 125.637H37.7724C38.8179 125.637 39.6729 124.783 39.6729 123.741V122.801H42.8472C48.5509 122.801 54.2949 124.085 59.4548 126.513L68.4822 130.762C71.3798 132.126 74.4775 132.797 77.5589 132.797C82.0712 132.797 86.5466 131.358 90.2996 128.55L133.122 96.5151C135.81 94.5033 137.416 91.3002 137.416 87.9463C137.416 84.1329 135.454 80.692 132.169 78.7424V78.7429ZM26.0643 121.845V77.7081H35.872V78.4282C35.872 78.4425 35.8638 78.454 35.8638 78.4683C35.8638 78.4826 35.8715 78.4946 35.872 78.5084V120.865C35.872 120.88 35.8638 120.891 35.8638 120.905C35.8638 120.92 35.8715 120.932 35.872 120.946V121.846H26.0643V121.845ZM130.841 93.482L88.0186 125.518C82.8323 129.399 75.9677 130.093 70.105 127.334L61.0776 123.084C55.4127 120.418 49.1091 119.009 42.8476 119.009H39.6733V80.364H43.6724C49.0162 80.364 54.3293 81.1127 59.4644 82.5896L84.6112 89.8195C87.3173 90.5974 89.2077 93.1033 89.2077 95.9139C89.2077 97.8545 88.3355 99.6613 86.8152 100.871C85.2938 102.081 83.3359 102.526 81.4379 102.098L52.416 95.5042C51.3987 95.2755 50.3743 95.9105 50.1402 96.9319C49.9071 97.9528 50.5476 98.9694 51.5715 99.202L80.5934 105.796C81.3498 105.967 82.1119 106.052 82.8682 106.052C85.143 106.052 87.3628 105.288 89.1867 103.836C90.921 102.456 92.1149 100.585 92.663 98.502L123.369 81.8691C125.542 80.6944 128.105 80.7436 130.225 82.0023C132.347 83.2624 133.614 85.4843 133.614 87.9472C133.614 90.1137 132.577 92.1827 130.84 93.4824L130.841 93.482Z" fill="black"/>
</g>
</g>
</g>
</svg>
