<svg width="168" height="168" viewBox="0 0 168 168" fill="none" xmlns="http://www.w3.org/2000/svg">
<g id="love" filter="url(#filter0_f_6_5748)">
<rect id="Rectangle 26" x="4" y="4" width="159.678" height="159.678" rx="55" fill="#FAC93C"/>
<g id="Group 2">
<path id="Vector" d="M79.1737 110.937C78.7847 112.942 78.4312 114.315 78.2624 114.932L78.2128 115.124L78.024 115.17C76.2561 115.649 68.2989 117.617 57.0682 117.617C51.1979 117.617 44.4322 117.079 37.1916 115.509C14.1834 110.52 14.6516 88.555 20.2876 82.6308C24.258 78.4576 29.6192 76.0223 34.8167 76.0228C36.6342 76.0228 38.4327 76.3207 40.1429 76.9463C37.7466 70.3388 40.2348 62.4506 45.8826 57.1078C47.8944 55.2048 51.7434 53.8995 56.1474 53.8995C58.3389 53.8995 60.6683 54.223 62.9758 54.9577C69.7224 57.1032 76.2884 62.759 78.7151 74.1029C82.1942 90.3634 80.4804 104.208 79.1737 110.937Z" fill="white"/>
<path id="Vector_2" d="M140.782 96.8167C121.513 118.221 99.8212 126.962 96.3436 128.269L96.0973 128.365L95.9004 128.196C94.3391 126.926 88.4039 121.888 81.4637 113.339C82.0083 110.893 82.7638 106.826 83.1834 101.624C83.5225 97.4206 83.5895 93.1455 83.3822 88.9177C83.1291 83.7576 82.4641 78.622 81.4048 73.6536C80.5782 69.7744 79.2432 66.3067 77.4379 63.347C75.7761 60.6227 73.7073 58.31 71.289 56.4735C69.2827 54.9501 67.0514 53.7624 64.6471 52.9382C70.3451 43.9469 80.1595 39.3693 86.0336 40.1712C96.2925 41.572 105.11 48.1983 107.647 57.2409C112.914 49.4746 123.371 46.0006 133.542 47.9407C144.239 49.9817 161.801 73.4692 140.782 96.8167Z" fill="white"/>
</g>
</g>
<defs>
<filter id="filter0_f_6_5748" x="0" y="0" width="167.678" height="167.678" filterUnits="userSpaceOnUse" color-interpolation-filters="sRGB">
<feFlood flood-opacity="0" result="BackgroundImageFix"/>
<feBlend mode="normal" in="SourceGraphic" in2="BackgroundImageFix" result="shape"/>
<feGaussianBlur stdDeviation="2" result="effect1_foregroundBlur_6_5748"/>
</filter>
</defs>
</svg>
