<svg width="138" height="138" viewBox="0 0 138 138" fill="none" xmlns="http://www.w3.org/2000/svg">
<g id="palms" filter="url(#filter0_f_11_5968)">
<path id="Rectangle 25" d="M4 59C4 28.6243 28.6243 4 59 4H79C109.376 4 134 28.6243 134 59V79C134 109.376 109.376 134 79 134H59C28.6243 134 4 109.376 4 79V59Z" fill="#FAC93C"/>
<g id="Group">
<g id="Layer 1">
<g id="Group_2">
<g id="Group_3">
<g id="Group_4">
<g id="Group_5">
<path id="Vector" d="M62.5041 82.5439C58.7487 70.3299 54.2309 59.8874 49.8851 51.3349C49.3581 50.6997 48.9434 50.1842 48.9474 50.1375L47.4168 51.2152C47.9858 51.6858 48.3954 53.2231 48.7382 53.8752C49.2501 54.8487 49.1595 56.0742 49.8199 56.8993C50.0085 57.135 50.1274 57.4885 50.2718 57.7937C50.7693 58.8464 51.2242 59.943 51.7737 60.9412C52.1272 61.5834 52.4355 62.2381 52.7047 62.9428C53.0439 63.8295 53.386 64.7169 53.7643 65.5741C53.9532 66.0019 54.2673 66.3319 54.4485 66.763C54.6559 67.2576 54.7682 67.8209 54.9402 68.3441C55.1674 69.0353 55.4344 69.7062 55.6444 70.405C55.9349 71.3727 56.5717 72.062 56.7798 73.1044C56.9271 73.842 57.1669 74.5563 57.3794 75.2739C57.5399 75.8163 57.7116 76.3543 57.8979 76.8827C58.1196 77.5116 58.3877 78.1147 58.5881 78.7536C58.7369 79.2278 58.7976 79.7459 58.9203 80.236C59.0952 80.9349 59.2819 81.6304 59.4808 82.3193C59.6536 82.9177 59.8421 83.5098 60.0399 84.0952C60.1666 84.4708 60.3787 84.8144 60.4557 85.1984C60.673 86.2817 60.8339 87.3801 61.0302 88.4696C61.1481 89.1236 61.2788 89.7764 61.4283 90.4215C61.5094 90.7717 61.6438 91.1038 61.7506 91.4459C61.9646 92.1289 62.2754 92.7704 62.2942 93.5359C62.3037 93.9291 62.3266 94.3275 62.377 94.7193C62.5807 96.2989 62.7549 97.8804 63.2584 99.3964C63.4907 100.096 63.7743 100.806 63.7198 101.616C63.6977 101.94 63.7924 102.294 63.8089 102.633C63.852 103.512 63.8553 104.391 63.9242 105.269C63.9809 105.991 64.1084 106.711 64.2071 107.431C64.2203 107.528 64.2406 107.629 64.2741 107.718C64.5426 108.426 64.7853 109.151 64.8133 109.935C64.8313 110.441 64.747 110.939 64.7554 111.445C64.775 112.608 64.7801 113.774 64.8718 114.937C64.9562 116.011 65.1237 117.088 65.3016 118.155C65.3535 118.466 65.5255 118.874 65.7126 119.01C66.0732 119.271 66.4809 119.432 66.8742 119.52C67.2672 119.608 67.6712 119.6 68.0612 119.557C68.726 119.484 69.3878 119.387 70.0492 119.287C68.9407 108.945 66.7641 96.3984 62.5041 82.5436V82.5439Z" fill="#A85619"/>
<g id="Vector_2" style="mix-blend-mode:multiply" opacity="0.42">
<path d="M62.5041 82.5439C58.7487 70.3299 54.2309 59.8874 49.8851 51.3349C49.3581 50.6997 48.9434 50.1842 48.9474 50.1375L47.4168 51.2152C47.9858 51.6858 48.3954 53.2231 48.7382 53.8752C49.2501 54.8487 49.1595 56.0742 49.8199 56.8993C50.0085 57.135 50.1274 57.4885 50.2718 57.7937C50.7693 58.8464 51.2242 59.943 51.7737 60.9412C52.1272 61.5834 52.4355 62.2381 52.7047 62.9428C53.0439 63.8295 53.386 64.7169 53.7643 65.5741C53.9532 66.0019 54.2673 66.3319 54.4485 66.763C54.6559 67.2576 54.7682 67.8209 54.9402 68.3441C55.1674 69.0353 55.4344 69.7062 55.6444 70.405C55.9349 71.3727 56.5717 72.062 56.7798 73.1044C56.9271 73.842 57.1669 74.5563 57.3794 75.2739C57.5399 75.8163 57.7116 76.3543 57.8979 76.8827C58.1196 77.5116 58.3877 78.1147 58.5881 78.7536C58.7369 79.2278 58.7976 79.7459 58.9203 80.236C59.0952 80.9349 59.2819 81.6304 59.4808 82.3193C59.6536 82.9177 59.8421 83.5098 60.0399 84.0952C60.1666 84.4708 60.3787 84.8144 60.4557 85.1984C60.673 86.2817 60.8339 87.3801 61.0302 88.4696C61.1481 89.1236 61.2788 89.7764 61.4283 90.4215C61.5094 90.7717 61.6438 91.1038 61.7506 91.4459C61.9646 92.1289 62.2754 92.7704 62.2942 93.5359C62.3037 93.9291 62.3266 94.3275 62.377 94.7193C62.5807 96.2989 62.7549 97.8804 63.2584 99.3964C63.4907 100.096 63.7743 100.806 63.7198 101.616C63.6977 101.94 63.7924 102.294 63.8089 102.633C63.852 103.512 63.8553 104.391 63.9242 105.269C63.9809 105.991 64.1084 106.711 64.2071 107.431C64.2203 107.528 64.2406 107.629 64.2741 107.718C64.5426 108.426 64.7853 109.151 64.8133 109.935C64.8313 110.441 64.747 110.939 64.7554 111.445C64.775 112.608 64.7801 113.774 64.8718 114.937C64.9562 116.011 65.1237 117.088 65.3016 118.155C65.3535 118.466 65.5255 118.874 65.7126 119.01C66.0732 119.271 66.4809 119.432 66.8742 119.52C67.2672 119.608 67.6712 119.6 68.0612 119.557C68.726 119.484 69.3878 119.387 70.0492 119.287C68.9407 108.945 66.7641 96.3984 62.5041 82.5436V82.5439Z" fill="#A85619"/>
</g>
<path id="Vector_3" d="M73.2603 112.429C73.0964 111.793 72.9222 111.16 72.7322 110.536C72.4902 109.741 72.2243 108.959 71.9757 108.168C71.8855 107.88 71.8958 107.63 72.0844 107.437C72.3403 107.176 72.414 106.804 72.3098 106.333C72.1842 105.769 72.0844 105.195 71.9518 104.633C71.8623 104.253 71.747 103.88 71.6222 103.516C71.3879 102.83 71.1375 102.154 70.8959 101.473C70.6396 100.75 70.3961 100.019 70.1273 99.3046C69.945 98.8204 69.8058 98.3867 70.1494 97.9872C70.2212 97.9036 70.2448 97.6473 70.2113 97.496C70.0625 96.8258 69.9115 96.1516 69.7115 95.5039C69.4345 94.6077 69.1362 93.7181 68.8037 92.855C68.4888 92.0376 68.1374 91.2404 67.7636 90.4686C67.5876 90.1048 67.6207 89.853 67.799 89.6434C67.9548 89.4604 67.9522 89.2447 67.891 89.0131C67.7934 88.6441 67.6752 88.2825 67.5541 87.9242C67.3559 87.3392 67.1788 86.7357 66.9379 86.1826C66.4249 85.005 65.8842 83.8485 65.3373 82.6982C65.1896 82.3874 65.1237 82.1838 65.341 81.9216C65.4556 81.7835 65.52 81.5317 65.3753 81.2456C65.236 80.9705 65.1502 80.6469 65.0272 80.3549C64.6704 79.5076 64.3275 78.6475 63.9393 77.8271C63.6399 77.1938 63.2716 76.6212 62.9512 76.0048C62.7766 75.669 62.4813 75.3612 62.7357 74.8681C62.8039 74.7363 62.7357 74.3795 62.6566 74.1755C62.4164 73.5547 62.173 72.9251 61.871 72.3591C61.3086 71.3056 60.7002 70.299 60.1224 69.2606C60.0528 69.1358 60.0432 68.9377 60.024 68.772C59.9894 68.4704 60.0281 68.1276 59.9294 67.8739C59.7242 67.3451 59.4731 66.8366 59.1983 66.3679C58.7092 65.5332 58.197 64.7227 57.6769 63.9248C57.4552 63.5846 57.2431 63.2826 57.3816 62.8065C57.3956 62.7587 57.3451 62.6508 57.3098 62.586C57.0059 62.0281 56.7179 61.45 56.3876 60.9242C55.8959 60.1421 55.3696 59.4024 54.8669 58.6332C54.7807 58.501 54.6931 58.3118 54.6839 58.1505C54.6614 57.7539 54.5701 57.4328 54.3583 57.1302C53.8954 56.4692 53.4622 55.7659 52.9971 55.1079C52.6947 54.6801 52.3519 54.3104 52.0414 53.8928C52.0016 53.8394 50.7815 52.4148 49.8858 51.3352C54.2316 59.8877 58.7494 70.3306 62.5048 82.5443C66.7648 96.3987 68.941 108.945 70.0499 119.288C70.2812 119.253 70.5121 119.218 70.7434 119.183C70.8679 119.164 70.9858 119.096 71.1047 119.045C71.4575 118.89 71.8093 118.732 72.1617 118.576C72.7178 118.33 73.2883 118.105 73.7317 117.576C73.8772 117.402 74.0002 117.264 74.1512 117.223L73.9619 115.073C73.696 114.185 73.4868 113.304 73.2614 112.429L73.2603 112.429Z" fill="#A85619"/>
</g>
<g id="Group_6">
<g id="Group_7">
<path id="Vector_4" d="M43.5579 66.0771C44.1129 59.3605 47.3881 54.7365 49.5662 52.3571C41.5868 56.3422 39.8305 65.8219 39.8305 65.8219L42.0192 66.7108L39.6559 67.618C41.2495 81.415 48.8852 82.1658 49.0848 82.1831C46.554 79.8199 42.7204 76.2192 43.5583 66.0774L43.5579 66.0771Z" fill="#419805"/>
<path id="Vector_5" d="M43.5579 66.077C42.7201 76.2188 46.5536 79.8195 49.0845 82.1827C49.087 82.1827 49.0889 82.1827 49.0889 82.1827C45.0366 77.0642 47.7056 64.0261 47.7056 64.0261L45.7433 62.6103L48.0982 61.7896C47.8724 55.1186 49.8284 52.2271 49.8284 52.2271C49.74 52.269 49.6531 52.3128 49.5662 52.3563C47.3881 54.7357 44.1129 59.3601 43.5579 66.0763V66.077Z" fill="#215503"/>
</g>
<g id="Group_8">
<path id="Vector_6" d="M32.0529 60.3661C37.7661 54.841 46.5951 53.0467 49.8029 52.5441C49.8246 52.5371 49.8464 52.5301 49.8681 52.5231C49.8681 52.5231 41.1846 51.6666 32.5512 56.5768L33.1007 57.8799L31.1661 57.5109C31.1661 57.5109 21.9537 63.7713 23.8007 76.5947C24.141 74.2098 25.5342 66.6695 32.0529 60.3657V60.3661Z" fill="#419805"/>
<path id="Vector_7" d="M32.0529 60.3662C25.5345 66.6696 24.1409 74.2099 23.8006 76.5952C23.8006 76.5959 23.8006 76.5967 23.8006 76.5978C23.8006 76.5978 31.3505 58.3807 49.8025 52.5446C46.5947 53.0472 37.7657 54.8415 32.0525 60.3665L32.0529 60.3662Z" fill="#215503"/>
</g>
<g id="Group_9">
<path id="Vector_8" d="M29.1109 50.7929C38.4249 47.2389 47.9934 52.2728 49.8581 53.261C49.397 52.7662 39.0238 41.8744 25.3279 48.7408C25.3279 48.7408 16.6248 52.7238 15.3167 64.8951C15.882 63.3383 19.3609 54.5137 29.1113 50.7933L29.1109 50.7929Z" fill="#419805"/>
<path id="Vector_9" d="M29.1107 50.7928C19.3602 54.5132 15.8818 63.3382 15.3161 64.8947C15.3161 64.898 15.3153 64.9009 15.315 64.9042C15.315 64.9042 18.8992 58.5699 27.829 55.7188L29.4985 52.6431L29.9088 54.9293C29.9088 54.9293 40.9942 50.2766 49.8737 53.2783C49.8737 53.2783 49.8681 53.272 49.8574 53.2606C47.9928 52.2723 38.4243 47.2384 29.1103 50.7924L29.1107 50.7928Z" fill="#215503"/>
</g>
<g id="Group_10">
<path id="Vector_10" d="M34.2295 39.7108C25.0172 35.8857 16.8018 37.2308 13.7704 37.8837C13.8289 37.8855 26.3146 38.313 31.0862 42.6288L32.1988 41.0135L32.9247 43.3137L49.8475 53.1822C49.8475 53.1822 49.8468 53.1804 49.8457 53.1785C47.9494 50.5937 42.2472 43.0398 34.2303 39.7111L34.2295 39.7108Z" fill="#215503"/>
<path id="Vector_11" d="M34.2295 39.7107C42.2468 43.0393 47.9486 50.5936 49.8449 53.1781C49.6773 52.8607 36.486 28.0449 13.7696 37.8836H13.7704C16.8017 37.2308 25.0171 35.8857 34.2295 39.7107Z" fill="#419805"/>
</g>
</g>
<g id="Group_11">
<g id="Group_12">
<path id="Vector_12" d="M62.6816 59.4783C58.1167 54.5195 52.6907 52.8832 49.5102 52.3434C58.2548 50.5863 65.4659 56.9869 65.4659 56.9869L64.2851 59.0327L66.7074 58.297C73.9284 70.162 68.365 75.4448 68.2181 75.5806C68.7628 72.1614 69.5749 66.9659 62.6816 59.4783Z" fill="#419805"/>
<path id="Vector_13" d="M62.6816 59.4783C69.5749 66.9655 68.7628 72.1614 68.2181 75.5806C68.2163 75.5825 68.2148 75.5836 68.2148 75.5836C68.2667 69.0562 58.1488 60.408 58.1488 60.408L58.8271 58.0857L56.4646 58.8847C52.5434 53.4826 49.2233 52.4027 49.2233 52.4027C49.3191 52.3817 49.4141 52.3629 49.5095 52.3438C52.69 52.8832 58.116 54.5199 62.6809 59.4786L62.6816 59.4783Z" fill="#215503"/>
</g>
<g id="Group_13">
<path id="Vector_14" d="M68.2497 47.9053C60.3466 47.0555 52.2782 51.0627 49.4383 52.6369C49.417 52.645 49.3956 52.6523 49.3739 52.6604C49.3739 52.6604 55.6992 46.6508 65.5281 45.2218L65.8953 46.5875L67.195 45.1084C67.195 45.1084 78.3106 44.3892 84.7336 55.6415C82.9997 53.9687 77.2665 48.8752 68.2497 47.9057V47.9053Z" fill="#419805"/>
<path id="Vector_15" d="M68.2497 47.9054C77.2665 48.8749 82.9997 53.9684 84.7336 55.6412C84.7339 55.6419 84.7343 55.6427 84.7347 55.6434C84.7347 55.6434 67.5835 45.9075 49.4379 52.6366C52.2778 51.0628 60.3466 47.0552 68.2493 47.905L68.2497 47.9054Z" fill="#215503"/>
</g>
<g id="Group_14">
<path id="Vector_16" d="M64.6883 38.5449C55.1556 41.4619 50.6993 51.3109 49.8353 53.2363C49.8949 52.5624 51.3865 37.5971 66.4123 34.6021C66.4123 34.6021 75.7267 32.399 84.2378 41.1986C82.835 40.3178 74.6675 35.4917 64.688 38.5453L64.6883 38.5449Z" fill="#419805"/>
<path id="Vector_17" d="M64.688 38.545C74.6675 35.4914 82.835 40.3175 84.2378 41.1983C84.24 41.2005 84.2423 41.2027 84.2445 41.2049C84.2445 41.2049 77.5239 38.4087 68.7263 41.6442L65.5189 40.2428L66.6002 42.2985C66.6002 42.2985 54.9947 45.4368 49.8331 53.2595C49.8331 53.2595 49.8338 53.2514 49.8349 53.2356C50.6986 51.3106 55.1552 41.4612 64.688 38.5442V38.545Z" fill="#215503"/>
</g>
<g id="Group_15">
<path id="Vector_18" d="M53.8393 32.9452C58.7575 24.2686 66.0661 20.2834 68.8592 18.9365C68.8143 18.9741 59.2256 26.9805 58.113 33.3167L56.2424 32.7254L57.0832 34.9859L49.7952 53.1672C49.7952 53.1672 49.7952 53.1653 49.7944 53.1631C49.7024 49.9589 49.5595 40.4962 53.8393 32.9452Z" fill="#215503"/>
<path id="Vector_19" d="M53.8394 32.9451C49.5591 40.4961 49.7024 49.9588 49.7945 53.163C49.7315 52.8095 44.8903 25.1268 68.86 18.936L68.8596 18.9364C66.0665 20.2833 58.7579 24.2685 53.8397 32.9451H53.8394Z" fill="#419805"/>
</g>
</g>
<g id="Group_16">
<path id="Vector_20" d="M39.8312 17.0298C39.762 17.1723 36.7247 23.5019 38.7635 33.1137L40.7781 33.2478L39.0445 35.0498C39.0445 35.0498 41.0097 44.8391 49.54 52.9929C47.3745 48.3508 45.1684 42.7631 43.3657 36.2995C41.3456 29.0556 40.3291 22.4959 39.8312 17.0298Z" fill="#215503"/>
<path id="Vector_21" d="M46.4779 34.0372L44.3209 33.894L45.9123 32.2426C45.9123 32.2426 44.2737 22.7986 39.8329 17.0261C39.8329 17.0261 39.8322 17.028 39.8315 17.0294C40.3294 22.4956 41.3459 29.0553 43.3659 36.2988C45.1687 42.7624 47.3747 48.3504 49.5403 52.9921C49.6415 53.089 49.7425 53.1855 49.8456 53.2816C49.8456 53.2816 49.6611 39.7258 46.4783 34.0369L46.4779 34.0372Z" fill="#419805"/>
</g>
<path id="Vector_22" d="M51.2753 59.7843C51.381 59.4426 51.5998 59.1377 51.8709 58.8932C52.1434 58.6487 52.473 58.4635 52.828 58.3564C53.1827 58.2488 53.5591 58.2201 53.9211 58.2702C54.282 58.321 54.6334 58.4484 54.9162 58.6675C54.5634 58.6204 54.2316 58.6001 53.9045 58.6182C53.5786 58.6355 53.2608 58.6889 52.9562 58.7806C52.6516 58.8726 52.3581 59.0037 52.0789 59.1716C51.7987 59.3391 51.5364 59.5431 51.2757 59.7847L51.2753 59.7843Z" fill="#7A3001"/>
<path id="Vector_23" d="M53.678 65.1654C53.7837 64.8237 54.0025 64.5188 54.2736 64.2743C54.5461 64.0298 54.8757 63.8446 55.2307 63.7375C55.5854 63.63 55.9618 63.6012 56.3238 63.6513C56.6847 63.7021 57.0361 63.8295 57.3189 64.0486C56.9661 64.0015 56.6343 63.9812 56.3072 63.9993C55.9813 64.0166 55.6635 64.07 55.3589 64.1617C55.0543 64.2537 54.7608 64.3848 54.4816 64.5527C54.2014 64.7202 53.9392 64.9242 53.6784 65.1658L53.678 65.1654Z" fill="#7A3001"/>
<path id="Vector_24" d="M55.7932 70.1078C55.8989 69.7661 56.1176 69.4612 56.3887 69.2167C56.6612 68.9722 56.9909 68.787 57.3459 68.6799C57.7005 68.5723 58.0769 68.5436 58.439 68.5937C58.7999 68.6445 59.1512 68.7719 59.4341 68.991C59.0813 68.9439 58.7494 68.9236 58.4224 68.9417C58.0965 68.959 57.7786 69.0124 57.474 69.104C57.1695 69.1961 56.8759 69.3272 56.5968 69.4951C56.3165 69.6626 56.0543 69.8666 55.7936 70.1082L55.7932 70.1078Z" fill="#7A3001"/>
<path id="Vector_25" d="M58.3771 76.7176C58.5115 76.3601 58.763 76.0482 59.0636 75.8015C59.3656 75.5548 59.7217 75.3711 60.1003 75.2639C60.4785 75.1564 60.8763 75.1258 61.2622 75.1711C61.6467 75.2179 62.0246 75.3398 62.3388 75.5574C61.9613 75.5139 61.6036 75.4977 61.2505 75.5195C60.898 75.5401 60.5537 75.5964 60.2215 75.6899C59.8893 75.7842 59.5678 75.9168 59.2606 76.0876C58.9523 76.2585 58.6629 76.4665 58.3778 76.7176H58.3771Z" fill="#7A3001"/>
<path id="Vector_26" d="M60.4281 83.8205C60.6255 83.4324 60.9466 83.1095 61.3083 82.8577C61.6725 82.6062 62.0843 82.4232 62.5144 82.3134C62.9446 82.2037 63.3913 82.1676 63.8299 82.2048C64.2671 82.2435 64.7017 82.3539 65.081 82.5668C64.6494 82.5314 64.2358 82.5237 63.8259 82.5528C63.4171 82.5811 63.0149 82.6437 62.6234 82.7424C62.2323 82.8418 61.8508 82.9792 61.4839 83.1567C61.1164 83.3341 60.7665 83.551 60.4281 83.8205Z" fill="#7A3001"/>
<path id="Vector_27" d="M62.3888 92.1473C62.5987 91.7058 62.9435 91.3313 63.3305 91.026C63.7206 90.7212 64.1621 90.4826 64.6276 90.3132C65.0932 90.1438 65.5819 90.0429 66.0732 90.0138C66.5637 89.9866 67.0617 90.0289 67.525 90.1825C67.0396 90.2123 66.574 90.2679 66.1163 90.3592C65.6592 90.4494 65.2121 90.572 64.779 90.7289C64.3463 90.8861 63.9264 91.0794 63.5261 91.3125C63.125 91.546 62.7457 91.817 62.3888 92.1469V92.1473Z" fill="#7A3001"/>
<path id="Vector_28" d="M63.9791 100.14C64.1891 99.6983 64.5338 99.3238 64.9208 99.0186C65.3109 98.7137 65.7524 98.4751 66.218 98.3057C66.6835 98.1363 67.1722 98.0355 67.6635 98.0064C68.154 97.9791 68.652 98.0215 69.1153 98.175C68.6299 98.2048 68.1644 98.2604 67.7066 98.3518C67.2495 98.442 66.8024 98.5646 66.3693 98.7214C65.9366 98.8787 65.5167 99.072 65.1164 99.3051C64.7153 99.5385 64.336 99.8095 63.9791 100.139V100.14Z" fill="#7A3001"/>
<path id="Vector_29" d="M64.8752 109.783C65.1864 109.229 65.6533 108.759 66.187 108.394C66.7225 108.03 67.3313 107.768 67.9669 107.625C68.6026 107.481 69.2629 107.457 69.9027 107.547C70.5413 107.638 71.1663 107.844 71.7036 108.184C71.093 108.014 70.4823 107.915 69.8713 107.894C69.2611 107.872 68.6531 107.925 68.0642 108.057C67.4753 108.189 66.9041 108.403 66.3678 108.691C65.8305 108.979 65.3311 109.343 64.8752 109.783Z" fill="#7A3001"/>
</g>
<g id="Group_17">
<g id="Group_18">
<path id="Vector_30" d="M84.9259 90.5595C88.3105 81.567 92.1852 73.9391 95.8431 67.7218C96.2681 67.2697 96.6032 66.9018 96.6025 66.8668L97.7014 67.7465C97.2525 68.0735 96.8739 69.2079 96.5863 69.6815C96.1568 70.3884 96.1683 71.3123 95.6342 71.901C95.4818 72.0693 95.3761 72.3289 95.2534 72.5513C94.8314 73.3183 94.4391 74.1203 93.9806 74.8438C93.6856 75.3092 93.4238 75.7864 93.1892 76.303C92.8934 76.9529 92.5959 77.6028 92.2721 78.2288C92.1105 78.541 91.8593 78.7741 91.7035 79.0897C91.5249 79.4513 91.4144 79.8688 91.2612 80.2536C91.0586 80.7617 90.827 81.2529 90.6373 81.7677C90.3743 82.4806 89.8646 82.9684 89.6599 83.741C89.5151 84.2878 89.3019 84.8125 89.1093 85.3416C88.9638 85.7411 88.8099 86.1373 88.6456 86.525C88.45 86.9868 88.221 87.4271 88.0409 87.897C87.9072 88.2461 87.8376 88.6319 87.7227 88.9943C87.5588 89.5109 87.3868 90.0242 87.2052 90.5319C87.048 90.973 86.8789 91.4086 86.7032 91.8387C86.5905 92.1145 86.4156 92.3627 86.3397 92.6473C86.1265 93.4504 85.9549 94.2671 85.7567 95.0757C85.6378 95.561 85.5096 96.0448 85.3675 96.522C85.2905 96.7813 85.1741 97.0243 85.078 97.2758C84.8857 97.7784 84.6228 98.2456 84.5731 98.819C84.5477 99.1135 84.5123 99.4114 84.4559 99.7034C84.2298 100.879 84.0258 102.058 83.578 103.173C83.371 103.687 83.1253 104.207 83.1286 104.817C83.1301 105.062 83.0428 105.322 83.0145 105.576C82.9416 106.234 82.8981 106.894 82.8057 107.55C82.7298 108.088 82.6005 108.623 82.493 109.159C82.4786 109.231 82.4587 109.306 82.4296 109.371C82.1954 109.89 81.9796 110.424 81.9221 111.01C81.8849 111.389 81.9254 111.767 81.8956 112.146C81.8271 113.018 81.7689 113.893 81.6467 114.762C81.5336 115.564 81.3579 116.364 81.1749 117.157C81.1215 117.388 80.9734 117.686 80.8268 117.779C80.5444 117.959 80.2306 118.06 79.9315 118.108C79.6325 118.156 79.3297 118.131 79.0392 118.081C78.5438 117.996 78.0514 117.892 77.5598 117.787C78.8712 110.076 81.0861 100.761 84.9255 90.5606L84.9259 90.5595Z" fill="#A85619"/>
<g id="Vector_31" style="mix-blend-mode:multiply" opacity="0.42">
<path d="M84.9259 90.5595C88.3105 81.567 92.1852 73.9391 95.8431 67.7218C96.2681 67.2697 96.6032 66.9018 96.6025 66.8668L97.7014 67.7465C97.2525 68.0735 96.8739 69.2079 96.5863 69.6815C96.1568 70.3884 96.1683 71.3123 95.6342 71.901C95.4818 72.0693 95.3761 72.3289 95.2534 72.5513C94.8314 73.3183 94.4391 74.1203 93.9806 74.8438C93.6856 75.3092 93.4238 75.7864 93.1892 76.303C92.8934 76.9529 92.5959 77.6028 92.2721 78.2288C92.1105 78.541 91.8593 78.7741 91.7035 79.0897C91.5249 79.4513 91.4144 79.8688 91.2612 80.2536C91.0586 80.7617 90.827 81.2529 90.6373 81.7677C90.3743 82.4806 89.8646 82.9684 89.6599 83.741C89.5151 84.2878 89.3019 84.8125 89.1093 85.3416C88.9638 85.7411 88.8099 86.1373 88.6456 86.525C88.45 86.9868 88.221 87.4271 88.0409 87.897C87.9072 88.2461 87.8376 88.6319 87.7227 88.9943C87.5588 89.5109 87.3868 90.0242 87.2052 90.5319C87.048 90.973 86.8789 91.4086 86.7032 91.8387C86.5905 92.1145 86.4156 92.3627 86.3397 92.6473C86.1265 93.4504 85.9549 94.2671 85.7567 95.0757C85.6378 95.561 85.5096 96.0448 85.3675 96.522C85.2905 96.7813 85.1741 97.0243 85.078 97.2758C84.8857 97.7784 84.6228 98.2456 84.5731 98.819C84.5477 99.1135 84.5123 99.4114 84.4559 99.7034C84.2298 100.879 84.0258 102.058 83.578 103.173C83.371 103.687 83.1253 104.207 83.1286 104.817C83.1301 105.062 83.0428 105.322 83.0145 105.576C82.9416 106.234 82.8981 106.894 82.8057 107.55C82.7298 108.088 82.6005 108.623 82.493 109.159C82.4786 109.231 82.4587 109.306 82.4296 109.371C82.1954 109.89 81.9796 110.424 81.9221 111.01C81.8849 111.389 81.9254 111.767 81.8956 112.146C81.8271 113.018 81.7689 113.893 81.6467 114.762C81.5336 115.564 81.3579 116.364 81.1749 117.157C81.1215 117.388 80.9734 117.686 80.8268 117.779C80.5444 117.959 80.2306 118.06 79.9315 118.108C79.6325 118.156 79.3297 118.131 79.0392 118.081C78.5438 117.996 78.0514 117.892 77.5598 117.787C78.8712 110.076 81.0861 100.761 84.9255 90.5606L84.9259 90.5595Z" fill="#A85619"/>
</g>
<path id="Vector_32" d="M75.4679 112.489C75.6204 112.02 75.7802 111.553 75.9518 111.093C76.1702 110.508 76.4063 109.933 76.6291 109.351C76.7101 109.139 76.7138 108.951 76.5816 108.798C76.4015 108.59 76.3636 108.307 76.4637 107.959C76.5842 107.541 76.6854 107.115 76.811 106.699C76.8957 106.418 76.9996 106.144 77.1101 105.876C77.3178 105.373 77.5369 104.877 77.7498 104.377C77.9756 103.846 78.1921 103.309 78.4271 102.785C78.5865 102.43 78.711 102.111 78.4716 101.795C78.4215 101.729 78.4157 101.536 78.4481 101.424C78.5906 100.928 78.7353 100.429 78.9154 99.9519C79.1648 99.2921 79.4299 98.6385 79.7194 98.0059C79.9934 97.4072 80.2943 96.825 80.6107 96.2632C80.7598 95.9984 80.7466 95.8077 80.6224 95.6424C80.5142 95.498 80.5259 95.336 80.5827 95.1648C80.6729 94.8923 80.7786 94.6264 80.8861 94.3632C81.0622 93.9335 81.2231 93.4883 81.4294 93.0847C81.8691 92.2246 82.3283 91.3817 82.792 90.5437C82.9172 90.3172 82.9762 90.1677 82.8252 89.9608C82.7456 89.8518 82.7088 89.66 82.8311 89.4519C82.9482 89.252 83.0277 89.013 83.1334 88.7995C83.4406 88.1801 83.7378 87.5505 84.067 86.9529C84.3212 86.4915 84.6243 86.0787 84.8931 85.631C85.0397 85.3869 85.2758 85.1696 85.1075 84.7881C85.0625 84.6858 85.1303 84.4214 85.1992 84.2719C85.4083 83.8172 85.6201 83.3558 85.8731 82.9452C86.3438 82.1808 86.8472 81.4532 87.3293 80.701C87.3872 80.6108 87.4037 80.4624 87.4258 80.339C87.466 80.1144 87.4527 79.8552 87.5385 79.6696C87.7171 79.2822 87.9293 78.9126 88.1572 78.5731C88.5631 77.9692 88.9852 77.3848 89.4124 76.8101C89.5947 76.5648 89.7678 76.3479 89.686 75.9845C89.6779 75.9477 89.7206 75.8693 89.7501 75.8225C90.0042 75.4178 90.2469 74.9973 90.5194 74.6181C90.9249 74.054 91.354 73.523 91.7668 72.9692C91.8379 72.8742 91.9123 72.7358 91.9267 72.6154C91.962 72.3186 92.0453 72.0822 92.2184 71.8649C92.5966 71.3903 92.9542 70.8825 93.3335 70.4105C93.5803 70.1034 93.8547 69.842 94.1069 69.5426C94.139 69.5043 95.1208 68.4917 95.843 67.7229C92.1852 73.9402 88.3104 81.5681 84.9259 90.5606C81.0865 100.761 78.8716 110.076 77.5601 117.787C77.3881 117.75 77.2165 117.713 77.0445 117.676C76.9521 117.656 76.8666 117.6 76.7797 117.555C76.5219 117.423 76.2656 117.288 76.0082 117.155C75.6023 116.944 75.1847 116.749 74.8764 116.331C74.7751 116.194 74.6893 116.084 74.5781 116.047L74.8197 114.442C75.0606 113.788 75.2583 113.136 75.4679 112.49V112.489Z" fill="#A85619"/>
</g>
<g id="Group_19">
<g id="Group_20">
<path id="Vector_33" d="M99.9086 79.079C99.8036 74.0128 97.5597 70.3903 96.0353 68.5035C101.839 71.8642 102.718 79.0599 102.718 79.0599L101.034 79.6254L102.766 80.416C100.93 90.6969 95.1647 90.9064 95.0144 90.9101C97.0234 89.2539 100.067 86.729 99.9086 79.0786V79.079Z" fill="#419805"/>
<path id="Vector_34" d="M99.9086 79.079C100.067 86.7294 97.0234 89.2538 95.0144 90.9104C95.0126 90.9104 95.0111 90.9104 95.0111 90.9104C98.2896 87.257 96.8909 77.348 96.8909 77.348L98.4292 76.3763L96.6997 75.6513C97.1785 70.6554 95.8445 68.3945 95.8445 68.3945C95.909 68.4302 95.972 68.4671 96.0353 68.5035C97.5597 70.3903 99.8033 74.0124 99.9086 79.079Z" fill="#215503"/>
</g>
<g id="Group_21">
<path id="Vector_35" d="M108.808 75.3262C104.776 70.915 98.2329 69.1593 95.849 68.6331C95.8328 68.6269 95.817 68.6206 95.8011 68.6144C95.8011 68.6144 102.358 68.3739 108.609 72.4592L108.137 73.4118L109.606 73.2248C109.606 73.2248 116.229 78.3499 114.249 87.8885C114.104 86.0828 113.407 80.3593 108.808 75.3262H108.808Z" fill="#419805"/>
<path id="Vector_36" d="M108.808 75.3261C113.408 80.3588 114.104 86.0827 114.248 87.8884C114.248 87.8892 114.248 87.8895 114.248 87.8903C114.248 87.8903 109.427 73.8687 95.849 68.6334C98.2333 69.1592 104.776 70.9149 108.808 75.3264V75.3261Z" fill="#215503"/>
</g>
<g id="Group_22">
<path id="Vector_37" d="M111.459 68.2778C104.634 65.179 97.2195 68.5135 95.7743 69.1689C96.1433 68.8187 104.433 61.1253 114.394 66.9132C114.394 66.9132 120.741 70.3056 121.158 79.5006C120.806 78.3061 118.604 71.5218 111.459 68.2778Z" fill="#419805"/>
<path id="Vector_38" d="M111.459 68.2778C118.604 71.5218 120.806 78.3062 121.158 79.5006C121.158 79.5032 121.158 79.5054 121.159 79.5076C121.159 79.5076 118.762 74.5876 112.193 72.034L111.082 69.6483L110.668 71.3451C110.668 71.3451 102.564 67.3396 95.761 69.1811C95.761 69.1811 95.7654 69.1767 95.7739 69.1686C97.2191 68.5131 104.633 65.1786 111.459 68.2775L111.459 68.2778Z" fill="#215503"/>
</g>
<g id="Group_23">
<path id="Vector_39" d="M108.131 59.7231C115.222 57.2793 121.326 58.6697 123.571 59.3001C123.527 59.299 114.136 59.0412 110.355 62.0587L109.595 60.795L108.944 62.4877L95.7863 69.1097C95.7863 69.1097 95.7871 69.1085 95.7878 69.1071C97.3309 67.255 101.96 61.8499 108.132 59.7235L108.131 59.7231Z" fill="#215503"/>
<path id="Vector_40" d="M108.131 59.7232C101.96 61.85 97.3306 67.255 95.7875 69.1067C95.9278 68.8762 106.978 50.8636 123.571 59.2997H123.571C121.326 58.6693 115.222 57.2793 108.131 59.7228V59.7232Z" fill="#419805"/>
</g>
</g>
<g id="Group_24">
<g id="Group_25">
<path id="Vector_41" d="M85.8621 73.2406C89.5181 69.7308 93.6661 68.7539 96.078 68.4961C89.5969 66.7722 83.888 71.2419 83.888 71.2419L84.6795 72.8319L82.8955 72.1672C76.9263 80.7374 80.8567 84.9597 80.9605 85.0687C80.7101 82.4772 80.3418 78.5403 85.8621 73.2406Z" fill="#419805"/>
<path id="Vector_42" d="M85.8621 73.2407C80.3418 78.5404 80.7101 82.4773 80.9605 85.0688C80.962 85.0703 80.9627 85.071 80.9627 85.071C81.2264 80.1697 89.2205 74.1483 89.2205 74.1483L88.819 72.3739L90.5551 73.0831C93.7482 69.2106 96.2901 68.554 96.2901 68.554C96.2194 68.5338 96.1487 68.5154 96.078 68.4966C93.6661 68.754 89.518 69.7308 85.8621 73.241V73.2407Z" fill="#215503"/>
</g>
<g id="Group_26">
<path id="Vector_43" d="M82.22 64.297C88.1906 64.0253 94.0604 67.4069 96.1188 68.7196C96.1346 68.7266 96.1501 68.7332 96.1659 68.7402C96.1659 68.7402 91.6975 63.9369 84.387 62.4092L84.0481 63.4173L83.1414 62.2468C83.1414 62.2468 74.8325 61.1919 69.4904 69.339C70.8693 68.1636 75.4081 64.607 82.22 64.297Z" fill="#419805"/>
<path id="Vector_44" d="M82.2197 64.297C75.4078 64.607 70.869 68.1639 69.4902 69.3389C69.4902 69.3393 69.4894 69.34 69.4891 69.3404C69.4891 69.3404 82.8123 62.8285 96.1185 68.7196C94.0601 67.4069 88.1904 64.0252 82.2197 64.297Z" fill="#215503"/>
</g>
<g id="Group_27">
<path id="Vector_45" d="M85.3264 57.4372C92.3456 60.0681 95.2333 67.6666 95.7924 69.1512C95.7788 68.6427 95.3534 57.3422 84.2153 54.398C84.2153 54.398 77.3272 52.3128 70.5315 58.5227C71.625 57.9266 77.9787 54.683 85.3264 57.4372Z" fill="#419805"/>
<path id="Vector_46" d="M85.3262 57.4372C77.9782 54.6829 71.6248 57.9265 70.5314 58.5227C70.5295 58.5241 70.5277 58.526 70.5262 58.5275C70.5262 58.5275 75.6996 56.7401 82.1523 59.5761L84.6243 58.6733L83.7176 60.166C83.7176 60.166 92.2821 63.0591 95.793 69.1692C95.793 69.1692 95.793 69.1629 95.7926 69.1512C95.2336 67.6665 92.3458 60.0681 85.3266 57.4372H85.3262Z" fill="#215503"/>
</g>
<g id="Group_28">
<path id="Vector_47" d="M93.7281 53.7371C90.4393 46.9977 85.1389 43.6679 83.1052 42.5276C83.1373 42.5578 89.9624 49.0111 90.5038 53.8178L91.9349 53.4606L91.1991 55.1183L95.8259 69.1008C95.8259 69.1008 95.8259 69.0994 95.8266 69.0979C96.0443 66.6975 96.5901 59.602 93.7281 53.7371Z" fill="#215503"/>
<path id="Vector_48" d="M93.7279 53.737C96.5903 59.6023 96.0441 66.6974 95.8265 69.0978C95.8898 68.8356 100.806 48.2841 83.1047 42.5271C83.1047 42.5271 83.1047 42.5271 83.105 42.5271C85.1387 43.6675 90.4391 46.9968 93.7279 53.7366V53.737Z" fill="#419805"/>
</g>
</g>
<g id="Group_29">
<path id="Vector_49" d="M104.979 42.4418C105.024 42.5519 107.01 47.4429 105.034 54.5623L103.516 54.5693L104.734 56.002C104.734 56.002 102.805 63.2576 96.0254 68.9819C97.8657 65.5984 99.7805 61.5072 101.433 56.7395C103.285 51.3971 104.352 46.5208 104.979 42.4418Z" fill="#215503"/>
<path id="Vector_50" d="M99.2018 54.8977L100.827 54.89L99.7097 53.5766C99.7097 53.5766 101.377 46.5654 104.978 42.4388C104.978 42.4388 104.979 42.4403 104.979 42.4414C104.352 46.5205 103.285 51.3968 101.433 56.7392C99.7808 61.5064 97.8661 65.598 96.0257 68.9815C95.9454 69.0493 95.8648 69.1174 95.7834 69.1848C95.7834 69.1848 96.5502 59.0199 99.2026 54.8977H99.2018Z" fill="#419805"/>
</g>
<path id="Vector_51" d="M94.4078 73.9988C94.3441 73.7374 94.1942 73.4984 94.0019 73.3025C93.8086 73.1066 93.5699 72.9523 93.3084 72.8551C93.0473 72.7579 92.766 72.7193 92.4923 72.7399C92.2191 72.7612 91.9495 72.8408 91.727 72.9921C91.994 72.973 92.2441 72.9733 92.4886 73.002C92.7324 73.03 92.9685 73.0849 93.1928 73.1677C93.4171 73.251 93.6314 73.3629 93.8333 73.5017C94.0358 73.6405 94.2233 73.8055 94.4078 73.9992V73.9988Z" fill="#7A3001"/>
<path id="Vector_52" d="M92.3553 77.9258C92.2916 77.6644 92.1417 77.4254 91.9495 77.2295C91.7561 77.0336 91.5175 76.8793 91.256 76.7821C90.9949 76.6849 90.7135 76.6463 90.4399 76.6669C90.1666 76.6882 89.897 76.7678 89.6746 76.9191C89.9416 76.9 90.1916 76.9003 90.4362 76.9291C90.68 76.957 90.9161 77.0119 91.1403 77.0947C91.3646 77.178 91.579 77.2899 91.7808 77.4287C91.9834 77.5675 92.1708 77.7325 92.3553 77.9262V77.9258Z" fill="#7A3001"/>
<path id="Vector_53" d="M90.539 81.5373C90.4753 81.2758 90.3254 81.0368 90.1331 80.841C89.9398 80.6451 89.7011 80.4908 89.4396 80.3936C89.1785 80.2964 88.8972 80.2577 88.6235 80.2783C88.3502 80.2997 88.0807 80.3792 87.8582 80.5306C88.1252 80.5114 88.3753 80.5118 88.6198 80.5405C88.8636 80.5685 89.0997 80.6233 89.324 80.7062C89.5483 80.7894 89.7626 80.9013 89.9645 81.0402C90.167 81.179 90.3545 81.3439 90.539 81.5376V81.5373Z" fill="#7A3001"/>
<path id="Vector_54" d="M88.2935 86.3781C88.2092 86.1035 88.0346 85.8579 87.8206 85.6587C87.6052 85.4595 87.3466 85.3052 87.0675 85.2072C86.7887 85.1089 86.4915 85.0677 86.1998 85.0839C85.9088 85.1012 85.6197 85.1752 85.3741 85.3236C85.6595 85.3085 85.9287 85.3129 86.1928 85.3453C86.4561 85.3773 86.7121 85.4355 86.9574 85.5209C87.2023 85.6071 87.4376 85.7216 87.66 85.8641C87.8832 86.0066 88.0913 86.176 88.2935 86.3778V86.3781Z" fill="#7A3001"/>
<path id="Vector_55" d="M86.4248 91.6139C86.2948 91.3134 86.0687 91.056 85.809 90.8505C85.5475 90.6447 85.2466 90.4886 84.9288 90.3862C84.611 90.2839 84.2773 90.236 83.9466 90.2437C83.6166 90.2526 83.2855 90.3152 82.9909 90.4577C83.3164 90.451 83.6273 90.4647 83.9333 90.5055C84.239 90.5457 84.5377 90.6112 84.8268 90.7036C85.1155 90.7964 85.3958 90.9172 85.6628 91.0674C85.9305 91.2177 86.1828 91.3966 86.4244 91.6146L86.4248 91.6139Z" fill="#7A3001"/>
<path id="Vector_56" d="M84.5672 97.7722C84.4302 97.4313 84.1889 97.1341 83.9123 96.8871C83.6335 96.6404 83.3135 96.4408 82.9721 96.292C82.6307 96.1433 82.2683 96.045 81.9011 96.0004C81.5343 95.9573 81.1583 95.9658 80.8036 96.0597C81.1664 96.1046 81.5133 96.1679 81.8529 96.2578C82.1917 96.3465 82.5217 96.4596 82.8395 96.5973C83.157 96.7354 83.463 96.8999 83.7529 97.0933C84.0431 97.2869 84.3152 97.5079 84.5675 97.7722H84.5672Z" fill="#7A3001"/>
<path id="Vector_57" d="M83.0034 103.697C82.8664 103.356 82.6252 103.059 82.3486 102.811C82.0698 102.565 81.7498 102.365 81.4083 102.216C81.0669 102.068 80.7046 101.969 80.3374 101.925C79.9706 101.882 79.5945 101.89 79.2399 101.984C79.6026 102.029 79.9496 102.092 80.2891 102.182C80.6279 102.271 80.9579 102.384 81.2758 102.522C81.5932 102.66 81.8993 102.824 82.1891 103.018C82.4793 103.211 82.7515 103.432 83.0038 103.697H83.0034Z" fill="#7A3001"/>
<path id="Vector_58" d="M81.8835 110.893C81.6758 110.462 81.3469 110.088 80.9631 109.79C80.5779 109.491 80.1334 109.266 79.6631 109.129C79.1924 108.992 78.6981 108.943 78.2138 108.981C77.7303 109.02 77.2519 109.146 76.8328 109.376C77.299 109.277 77.7616 109.231 78.2212 109.243C78.6801 109.255 79.1342 109.323 79.5699 109.449C80.0056 109.576 80.4243 109.762 80.8136 110.003C81.2036 110.245 81.5616 110.541 81.8831 110.892L81.8835 110.893Z" fill="#7A3001"/>
</g>
</g>
<g id="Group_30">
<path id="Vector_59" d="M79.1367 116.836C79.1367 116.836 81.792 112.378 86.7503 110.522C91.7089 108.665 93.4789 107.674 93.4789 107.674C93.4789 107.674 86.7503 111.017 84.447 112.751C82.1467 114.484 79.1367 116.836 79.1367 116.836Z" fill="#419805"/>
<path id="Vector_60" d="M80.3921 117.933C80.2047 117.533 80.5678 113.105 77.5585 110.134C74.5492 107.162 72.6032 105.428 72.6032 105.428C72.6032 105.428 77.7637 112.562 78.4583 113.886C79.1525 115.21 80.3921 117.933 80.3921 117.933Z" fill="#419805"/>
<path id="Vector_61" d="M77.4992 115.705C77.4992 115.705 74.7912 111.023 71.8611 109.52C68.9314 108.018 67.417 107.085 67.417 107.085C67.417 107.085 73.6388 111.427 74.8627 113.282C76.0865 115.136 77.4992 115.705 77.4992 115.705Z" fill="#419805"/>
<path id="Vector_62" d="M91.7903 115.169C91.7903 115.169 91.257 111.702 87.5395 109.844C83.8205 107.987 82.7584 106.997 82.7584 106.997C82.7584 106.997 87.1204 110.784 88.303 111.986C89.4866 113.187 91.7903 115.169 91.7903 115.169Z" fill="#419805"/>
<path id="Vector_63" d="M82.5809 116.901C82.4811 116.432 84.8389 112.777 86.6527 111.082C88.4684 109.387 90.5503 107.244 90.5503 107.244C90.5503 107.244 87.0796 111.948 85.9143 113.861C86.4185 115.467 82.5805 116.901 82.5805 116.901H82.5809Z" fill="#419805"/>
<path id="Vector_64" d="M72.5402 114.775C72.5402 114.775 75.8526 111.455 78.5091 109.349C81.1644 107.244 84.1737 104.768 84.1737 104.768C84.1737 104.768 76.4636 112.121 75.095 113.274C73.7272 114.425 72.8426 115.292 72.8426 115.292L72.5402 114.774V114.775Z" fill="#419805"/>
<path id="Vector_65" d="M65.1944 115.641C65.0511 115.293 61.6861 112.568 64.5197 108.977C67.3533 105.386 68.4151 103.53 68.4151 103.53C68.4151 103.53 66.0893 109.559 65.2279 110.711C64.3672 111.864 65.194 115.641 65.194 115.641H65.1944Z" fill="#419805"/>
<path id="Vector_66" d="M64.3425 117.026C64.3425 117.026 64.3237 116.95 64.2803 116.814C63.9783 115.865 62.5066 111.965 58.3225 110.34C53.5414 108.482 51.4171 107.739 51.4171 107.739C51.4171 107.739 59.2075 112.072 60.4471 113.187C61.6868 114.301 64.3425 117.026 64.3425 117.026V117.026Z" fill="#419805"/>
<path id="Vector_67" d="M84.9917 117.68C84.9917 117.68 85.6981 114.832 88.3556 114.09C91.011 113.346 94.3749 111.117 94.3749 111.117C94.3749 111.117 91.011 114.707 89.4167 115.079C87.822 115.451 84.9913 117.68 84.9913 117.68L84.9917 117.68Z" fill="#419805"/>
<path id="Vector_68" d="M72.8426 115.293C72.8426 115.293 71.4932 111.111 68.1837 109.735C64.8743 108.359 63.2811 107.369 63.2811 107.369C63.2811 107.369 67.884 110.835 69.1233 111.702C70.3629 112.568 72.8422 115.293 72.8422 115.293H72.8426Z" fill="#419805"/>
<path id="Vector_69" d="M82.5809 116.901C82.5809 116.901 80.1767 116.088 79.6957 113.523C79.2169 110.959 79.3944 107.864 79.3944 107.864C79.3944 107.864 80.3229 112.823 81.1644 113.435C82.0082 114.047 82.5809 116.901 82.5809 116.901Z" fill="#419805"/>
<path id="Vector_70" d="M86.2513 117.473C86.4299 116.978 88.5516 115.786 91.0324 115.369C93.5128 114.952 94.3948 116.979 94.3948 116.979C94.3948 116.979 92.272 115.74 90.5006 116.111C88.7306 116.482 86.2516 117.473 86.2516 117.473H86.2513Z" fill="#419805"/>
<path id="Vector_71" d="M84.5479 117.326C84.4838 116.818 85.926 115.203 88.072 114.238C90.2181 113.274 92.0046 114.984 92.0046 114.984C92.0046 114.984 89.417 114.303 87.9188 115.062C86.4221 115.82 84.5475 117.326 84.5475 117.326H84.5479Z" fill="#419805"/>
<path id="Vector_72" d="M64.3425 115.54C64.3425 115.54 60.9786 113.558 57.0832 113.93C53.1878 114.302 55.6671 116.159 55.6671 116.159C55.6671 116.159 56.3742 113.682 59.2079 113.682C62.0415 113.682 64.3425 115.54 64.3425 115.54V115.54Z" fill="#419805"/>
<path id="Vector_73" d="M66.114 116.655C66.114 116.655 66.999 112.816 69.6547 112.072C72.3112 111.331 73.7711 110.351 73.7711 110.351C73.7711 110.351 69.3001 113.683 68.5926 114.426C67.884 115.169 66.114 116.655 66.114 116.655Z" fill="#419805"/>
<path id="Vector_74" d="M73.7449 116.799C73.7449 116.799 73.4665 112.88 71.0373 111.621C68.611 110.361 66.1313 108.503 66.1313 108.503C66.1313 108.503 70.205 111.972 71.4446 113.209C72.6843 114.447 73.7449 116.799 73.7449 116.799Z" fill="#419805"/>
<path id="Vector_75" d="M75.4287 116.5C75.4287 116.5 79.2169 110.959 81.5191 110.711C83.8205 110.464 85.0606 110.092 85.0606 110.092C79.6375 112.505 76.8662 116.505 76.2419 116.797C75.2354 117.269 75.4291 116.499 75.4291 116.499L75.4287 116.5Z" fill="#419805"/>
<path id="Vector_76" d="M74.0811 115.788C74.0811 115.293 77.0923 112.445 77.4451 111.206C77.7997 109.968 79.3941 104.273 79.3941 104.273C79.3941 104.273 75.6751 111.702 75.1448 112.939C74.613 114.178 74.0811 115.788 74.0811 115.788Z" fill="#419805"/>
</g>
<g id="Group_31">
<path id="Vector_77" d="M75.0981 119.387C75.0981 119.387 77.4338 115.466 81.7954 113.833C86.1574 112.199 87.7142 111.328 87.7142 111.328C87.7142 111.328 81.7954 114.269 79.7694 115.793C77.7461 117.318 75.0985 119.387 75.0985 119.387H75.0981Z" fill="#215503"/>
<path id="Vector_78" d="M76.2026 120.352C76.038 120 76.3573 116.104 73.71 113.491C71.0628 110.877 69.351 109.352 69.351 109.352C69.351 109.352 73.8901 115.626 74.5015 116.792C75.1121 117.956 76.2026 120.352 76.2026 120.352V120.352Z" fill="#215503"/>
<path id="Vector_79" d="M73.6577 118.392C73.6577 118.392 71.2756 114.274 68.6979 112.952C66.1207 111.63 64.7886 110.809 64.7886 110.809C64.7886 110.809 70.2617 114.629 71.3382 116.26C72.4147 117.892 73.6573 118.392 73.6573 118.392L73.6577 118.392Z" fill="#215503"/>
<path id="Vector_80" d="M86.2289 117.92C86.2289 117.92 85.7597 114.871 82.4896 113.236C79.2181 111.603 78.2838 110.732 78.2838 110.732C78.2838 110.732 82.1206 114.063 83.161 115.12C84.2022 116.177 86.2285 117.92 86.2285 117.92H86.2289Z" fill="#215503"/>
<path id="Vector_81" d="M78.128 119.444C78.0403 119.031 80.1142 115.816 81.71 114.325C83.3072 112.834 85.1387 110.949 85.1387 110.949C85.1387 110.949 82.0856 115.087 81.0607 116.77C81.5041 118.182 78.1284 119.444 78.1284 119.444L78.128 119.444Z" fill="#215503"/>
<path id="Vector_82" d="M69.2957 117.574C69.2957 117.574 72.2096 114.653 74.546 112.801C76.8817 110.949 79.5289 108.772 79.5289 108.772C79.5289 108.772 72.7465 115.24 71.543 116.254C70.3398 117.267 69.5616 118.029 69.5616 118.029L69.2957 117.574Z" fill="#215503"/>
<path id="Vector_83" d="M62.8337 118.336C62.7078 118.029 59.7478 115.633 62.2404 112.474C64.733 109.315 65.667 107.682 65.667 107.682C65.667 107.682 63.6211 112.985 62.8636 113.999C62.1064 115.013 62.8337 118.335 62.8337 118.335V118.336Z" fill="#215503"/>
<path id="Vector_84" d="M62.0843 119.554C62.0843 119.554 62.0677 119.488 62.0294 119.368C61.7639 118.533 60.4693 115.102 56.7887 113.673C52.5828 112.039 50.7141 111.385 50.7141 111.385C50.7141 111.385 57.5672 115.197 58.6573 116.177C59.7478 117.158 62.0839 119.554 62.0839 119.554H62.0843Z" fill="#215503"/>
<path id="Vector_85" d="M80.2486 120.129C80.2486 120.129 80.8699 117.624 83.2078 116.971C85.5434 116.316 88.5026 114.356 88.5026 114.356C88.5026 114.356 85.5434 117.514 84.141 117.841C82.7386 118.169 80.2482 120.129 80.2482 120.129H80.2486Z" fill="#215503"/>
<path id="Vector_86" d="M69.5616 118.029C69.5616 118.029 68.3746 114.351 65.4637 113.14C62.5527 111.93 61.151 111.059 61.151 111.059C61.151 111.059 65.2 114.108 66.2901 114.87C67.3806 115.633 69.5616 118.029 69.5616 118.029Z" fill="#215503"/>
<path id="Vector_87" d="M78.128 119.444C78.128 119.444 76.0133 118.729 75.5901 116.473C75.1688 114.217 75.325 111.494 75.325 111.494C75.325 111.494 76.1418 115.857 76.8817 116.395C77.6238 116.934 78.128 119.444 78.128 119.444Z" fill="#215503"/>
<path id="Vector_88" d="M79.8582 119.817C79.8018 119.37 81.0702 117.95 82.9584 117.101C84.8459 116.253 86.4178 117.758 86.4178 117.758C86.4178 117.758 84.1414 117.159 82.824 117.826C81.5074 118.493 79.8582 119.817 79.8582 119.817Z" fill="#215503"/>
<path id="Vector_89" d="M63.6425 119.227C63.6425 119.227 64.4211 115.85 66.7571 115.197C69.0939 114.544 70.3781 113.683 70.3781 113.683C70.3781 113.683 66.4452 116.613 65.8228 117.267C65.1993 117.92 63.6425 119.227 63.6425 119.227Z" fill="#215503"/>
<path id="Vector_90" d="M70.3553 119.355C70.3553 119.355 70.1104 115.907 67.9736 114.8C65.8393 113.691 63.658 112.057 63.658 112.057C63.658 112.057 67.2414 115.108 68.3315 116.197C69.422 117.286 70.3549 119.355 70.3549 119.355H70.3553Z" fill="#215503"/>
<path id="Vector_91" d="M71.8365 119.091C71.8365 119.091 75.1688 114.217 77.1937 113.999C79.2181 113.782 80.309 113.454 80.309 113.454C75.5386 115.577 73.1005 119.096 72.5514 119.353C71.666 119.768 71.8362 119.091 71.8362 119.091H71.8365Z" fill="#215503"/>
<path id="Vector_92" d="M70.651 118.465C70.651 118.029 73.2997 115.524 73.6102 114.434C73.9221 113.345 75.3245 108.335 75.3245 108.335C75.3245 108.335 72.053 114.871 71.5864 115.959C71.1187 117.049 70.6506 118.465 70.6506 118.465H70.651Z" fill="#215503"/>
</g>
<g id="Group_32">
<g id="Group_33">
<path id="Vector_93" d="M71.3051 119.317C70.6065 119.384 69.9222 119.528 69.2177 119.549C67.8311 119.59 66.5166 119.156 65.2681 118.733C64.9949 118.64 64.7124 118.542 64.522 118.377C64.1666 118.069 64.1659 117.558 63.6609 117.378C63.3906 117.282 63.0242 117.307 62.8279 117.145C62.6795 117.022 62.6975 116.832 62.8091 116.692C62.9207 116.551 63.107 116.449 63.2886 116.35C63.9018 116.016 64.5154 115.682 65.1286 115.349C65.7392 115.017 66.359 114.681 67.0724 114.47C68.7986 113.962 70.9379 114.314 72.2384 115.257C72.5765 115.502 72.8637 115.782 73.2305 116.007C73.569 116.213 73.9671 116.367 74.3174 116.564C74.8473 116.862 75.2535 117.252 75.6531 117.637C75.9378 117.911 76.2376 118.233 76.1301 118.563C76.0586 118.782 75.8108 118.959 75.5235 119.06C75.2362 119.162 74.9114 119.199 74.591 119.22C73.499 119.294 72.3916 119.212 71.3051 119.316V119.317Z" fill="#818383"/>
<path id="Vector_94" d="M66.0257 115.251C66.9546 114.822 68.0631 114.568 69.1753 114.598C70.2876 114.627 71.3954 114.953 72.1364 115.533C70.9678 115.046 69.544 114.865 68.2049 115.034C67.6027 115.222 66.9785 115.375 66.3406 115.491C66.5406 115.407 66.7406 115.322 66.9402 115.237C66.3682 115.341 65.7963 115.446 65.2243 115.551C65.583 115.369 65.99 115.233 66.4183 115.153" fill="#C0C0BF"/>
<path id="Vector_95" d="M74.9126 117.625C75.1545 117.93 75.2794 118.353 74.9218 118.595C74.6905 118.752 74.3391 118.774 74.0176 118.786C72.3957 118.851 70.7734 118.916 69.1514 118.98C70.8179 119.102 72.501 119.112 74.1701 119.011C74.5133 118.99 74.8813 118.957 75.1376 118.796C75.3847 118.64 75.4757 118.391 75.4554 118.159C75.4086 117.621 74.8477 117.17 74.2224 116.854C73.5967 116.539 72.8811 116.315 72.2859 115.972C73.2899 116.42 74.334 116.897 74.9129 117.625H74.9126Z" fill="#C0C0BF"/>
<path id="Vector_96" d="M63.433 116.452C63.6102 116.317 63.8201 116.191 64.0757 116.152C64.3202 116.115 64.5743 116.163 64.81 116.222C66.7435 116.701 68.2263 117.973 68.5076 119.394C66.668 119.334 64.8472 119.004 63.1966 118.433C62.9749 118.356 62.745 118.268 62.6187 118.119C62.4552 117.927 62.5045 117.682 62.5985 117.468C62.7635 117.092 63.0511 116.741 63.433 116.451V116.452Z" fill="#C0C0BF"/>
</g>
<g id="Group_34">
<path id="Vector_97" d="M59.682 118.46C59.3171 118.492 58.8913 118.525 58.7009 118.746C58.5127 118.963 58.6792 119.262 58.9683 119.416C59.2574 119.57 59.6323 119.616 59.991 119.658C61.4248 119.824 62.8744 119.99 64.3239 119.92C65.3312 119.87 66.3274 119.707 67.3373 119.716C67.6514 119.719 68.0061 119.728 68.2318 119.576C68.5235 119.378 68.4031 119.012 68.1004 118.822C67.7976 118.632 65.5728 117.01 64.061 116.944C60.9641 116.808 60.0466 118.428 59.6817 118.46H59.682Z" fill="#818383"/>
<g id="Group_35">
<path id="Vector_98" d="M59.4062 118.726C59.19 118.817 58.9739 118.975 59.0357 119.147C59.1042 119.336 59.4464 119.39 59.7248 119.408C60.2515 119.443 60.7781 119.477 61.3048 119.511C61.9529 119.553 62.603 119.595 63.2537 119.582C63.8084 119.571 64.3593 119.52 64.9092 119.468C65.5139 119.412 66.1183 119.356 66.723 119.299C67.036 119.27 67.3554 119.24 67.6393 119.143C67.7074 119.119 67.7782 119.091 67.854 119.095C68.0312 119.105 68.0853 119.291 67.9719 119.386C67.8584 119.482 67.6632 119.504 67.4861 119.51C66.9175 119.528 66.3459 119.449 65.7798 119.492C65.1839 119.537 64.6227 119.714 64.0282 119.768C63.5627 119.81 63.091 119.775 62.6247 119.74C61.6277 119.665 60.6308 119.59 59.6338 119.516C59.2865 119.489 58.8895 119.442 58.7098 119.233C58.5654 119.065 58.6358 118.823 58.8626 118.708C59.0427 118.617 59.2792 118.607 59.4895 118.556C60.0426 118.422 60.3568 118.027 60.7667 117.736C61.2002 117.427 61.7802 117.221 62.3919 117.158C63.004 117.094 63.6441 117.174 64.187 117.382C63.7804 117.336 63.3694 117.29 62.9584 117.31C62.5474 117.331 62.1305 117.423 61.831 117.621C61.6432 117.745 61.5099 117.904 61.3291 118.033C60.8201 118.394 60.0264 118.462 59.4062 118.726Z" fill="#706F6F"/>
<path id="Vector_99" d="M59.3867 118.703C59.2648 118.756 59.1513 118.822 59.0696 118.908C59.0298 118.952 58.9981 119.001 58.99 119.055C58.9812 119.109 58.9963 119.164 59.0316 119.211C59.1046 119.31 59.2493 119.362 59.3845 119.391C59.5222 119.421 59.6658 119.431 59.8043 119.439L61.4712 119.548C62.0269 119.583 62.5852 119.616 63.1461 119.609C63.7074 119.604 64.2635 119.554 64.8167 119.503L66.4762 119.348C66.7521 119.321 67.0312 119.303 67.3063 119.254C67.443 119.23 67.5796 119.195 67.7041 119.149C67.7645 119.128 67.8256 119.114 67.8783 119.125C67.9302 119.135 67.9685 119.171 67.9844 119.212C68.0002 119.253 67.9958 119.299 67.9715 119.337C67.9472 119.373 67.8971 119.406 67.8418 119.426C67.7284 119.47 67.5895 119.48 67.4529 119.483C67.1767 119.491 66.899 119.476 66.6206 119.464C66.3418 119.452 66.06 119.443 65.7783 119.464C65.4969 119.486 65.2237 119.536 64.9548 119.588C64.6856 119.64 64.419 119.696 64.1464 119.728C63.8746 119.761 63.5969 119.765 63.32 119.756C63.043 119.746 62.7661 119.723 62.4888 119.703L61.6564 119.64L59.9918 119.515C59.7152 119.491 59.4331 119.485 59.1727 119.429C59.0442 119.401 58.9193 119.359 58.8269 119.294C58.7333 119.229 58.6762 119.143 58.6729 119.051C58.6681 118.959 58.7086 118.866 58.7886 118.794C58.8677 118.721 58.99 118.679 59.12 118.653C59.25 118.625 59.39 118.61 59.5251 118.574C59.6603 118.539 59.7855 118.488 59.8982 118.427C60.1243 118.305 60.3026 118.15 60.4812 118.001C60.6587 117.851 60.8414 117.705 61.0598 117.588C61.4933 117.351 62.0258 117.2 62.5749 117.17C63.1237 117.137 63.6853 117.221 64.1689 117.405L64.1928 117.356C63.7483 117.306 63.2924 117.254 62.8346 117.292C62.607 117.311 62.3812 117.352 62.1739 117.424C61.9658 117.494 61.7816 117.602 61.6399 117.728C61.4955 117.851 61.3699 117.982 61.1997 118.081C61.0303 118.18 60.8351 118.257 60.6311 118.322C60.223 118.45 59.7818 118.537 59.3867 118.703C59.3867 118.703 59.4161 118.692 59.4736 118.669C59.531 118.647 59.6183 118.616 59.7343 118.58C59.8507 118.544 59.9962 118.503 60.1674 118.458C60.3387 118.413 60.5361 118.362 60.7479 118.291C60.9578 118.22 61.1839 118.124 61.3732 117.977C61.5621 117.832 61.7223 117.634 62.0104 117.507C62.2914 117.379 62.646 117.311 63.0187 117.301C63.3933 117.29 63.7837 117.332 64.1873 117.38L64.1855 117.383C63.8006 117.235 63.3447 117.142 62.8644 117.134C62.3845 117.124 61.8822 117.205 61.4288 117.376C61.2027 117.462 60.988 117.57 60.7979 117.699C60.6064 117.828 60.4425 117.977 60.265 118.12C60.0883 118.261 59.8949 118.401 59.6518 118.489C59.5314 118.535 59.3999 118.562 59.2629 118.583C59.1278 118.605 58.9845 118.629 58.8619 118.687C58.6147 118.805 58.5308 119.06 58.6888 119.245C58.7672 119.335 58.8939 119.401 59.0302 119.442C59.1672 119.483 59.313 119.505 59.4585 119.52C60.0407 119.569 60.6285 119.611 61.2237 119.658C61.8188 119.703 62.4177 119.751 63.0231 119.793C63.3262 119.812 63.6341 119.822 63.9413 119.801C64.2492 119.779 64.5475 119.723 64.8414 119.665C65.1353 119.608 65.4284 119.549 65.7282 119.522C66.0276 119.495 66.3318 119.505 66.6357 119.517C66.9399 119.53 67.2452 119.546 67.5531 119.531C67.7045 119.522 67.8753 119.498 67.9891 119.409C68.0477 119.364 68.0709 119.301 68.0639 119.243C68.058 119.186 68.0223 119.124 67.9424 119.091C67.8606 119.056 67.7623 119.073 67.6945 119.097C67.6238 119.121 67.5608 119.143 67.4908 119.161C67.3531 119.198 67.2084 119.223 67.0622 119.241C66.7694 119.276 66.4714 119.299 66.1783 119.329C65.5908 119.385 65.0104 119.44 64.4385 119.495C63.8673 119.548 63.3012 119.584 62.7455 119.573C62.1897 119.566 61.6472 119.53 61.1191 119.499C60.5902 119.467 60.0768 119.442 59.5778 119.407C59.4537 119.394 59.3292 119.373 59.218 119.329C59.1068 119.287 59.0151 119.209 58.9996 119.117C58.9815 119.025 59.039 118.936 59.1145 118.87C59.1907 118.802 59.2854 118.748 59.3859 118.703L59.3867 118.703Z" fill="#C0C0BF"/>
</g>
</g>
<g id="Group_36">
<path id="Vector_100" d="M82.17 120.66C81.4714 120.728 80.7871 120.871 80.0825 120.892C78.6959 120.934 77.3815 120.5 76.133 120.076C75.8597 119.984 75.5773 119.886 75.3869 119.721C75.0315 119.412 75.0307 118.902 74.5258 118.722C74.2555 118.625 73.889 118.651 73.6927 118.489C73.5443 118.366 73.5624 118.176 73.674 118.036C73.7856 117.895 73.9719 117.792 74.1535 117.694C74.7667 117.36 75.3802 117.026 75.9934 116.693C76.6041 116.36 77.2239 116.024 77.9373 115.814C79.6634 115.305 81.8028 115.658 83.1032 116.6C83.4413 116.846 83.7286 117.126 84.0954 117.35C84.4339 117.557 84.832 117.71 85.1822 117.907C85.7122 118.206 86.1184 118.595 86.518 118.981C86.8027 119.255 87.1025 119.576 86.9949 119.907C86.9235 120.126 86.6756 120.302 86.3884 120.404C86.1011 120.506 85.7763 120.542 85.4559 120.564C84.3639 120.638 83.2564 120.555 82.17 120.66V120.66Z" fill="#818383"/>
<path id="Vector_101" d="M76.8906 116.595C77.8194 116.166 78.928 115.912 80.0402 115.941C81.1524 115.97 82.2602 116.296 83.0012 116.877C81.8327 116.39 80.4089 116.209 79.0698 116.378C78.4676 116.566 77.8434 116.719 77.2055 116.835C77.4055 116.75 77.6054 116.665 77.8051 116.581C77.2331 116.685 76.6612 116.79 76.0892 116.895C76.4479 116.712 76.8549 116.577 77.2832 116.496" fill="#C0C0BF"/>
<path id="Vector_102" d="M85.7778 118.97C86.0197 119.274 86.1446 119.697 85.787 119.939C85.5557 120.096 85.2043 120.118 84.8828 120.131C83.2609 120.195 81.6386 120.26 80.0166 120.325C81.6831 120.446 83.3662 120.456 85.0353 120.355C85.3785 120.335 85.7465 120.301 86.0028 120.14C86.2499 119.984 86.3409 119.735 86.3206 119.503C86.2738 118.965 85.7129 118.514 85.0876 118.199C84.4619 117.883 83.7463 117.659 83.1511 117.316C84.1551 117.764 85.1992 118.242 85.7781 118.97H85.7778Z" fill="#C0C0BF"/>
<path id="Vector_103" d="M74.2979 117.796C74.475 117.661 74.6849 117.535 74.9405 117.496C75.1851 117.459 75.4392 117.507 75.6749 117.566C77.6084 118.045 79.0911 119.317 79.3725 120.738C77.5329 120.678 75.7121 120.348 74.0614 119.777C73.8397 119.7 73.6099 119.612 73.4836 119.463C73.3201 119.271 73.3694 119.026 73.4633 118.812C73.6283 118.435 73.916 118.085 74.2979 117.795V117.796Z" fill="#C0C0BF"/>
</g>
<g id="Group_37">
<path id="Vector_104" d="M70.341 119.759C69.976 119.791 69.5503 119.825 69.3599 120.045C69.1717 120.263 69.3381 120.562 69.6272 120.716C69.9163 120.87 70.2913 120.916 70.65 120.958C72.0837 121.123 73.5333 121.29 74.9829 121.219C75.9901 121.17 76.9864 121.006 77.9962 121.015C78.3104 121.018 78.665 121.028 78.8908 120.875C79.1825 120.677 79.062 120.311 78.7593 120.121C78.4566 119.932 76.2317 118.309 74.7199 118.243C71.623 118.107 70.7056 119.728 70.3406 119.759H70.341Z" fill="#818383"/>
<g id="Group_38">
<path id="Vector_105" d="M70.0652 120.025C69.849 120.117 69.6328 120.274 69.6947 120.446C69.7632 120.636 70.1053 120.689 70.3838 120.708C70.9104 120.742 71.4371 120.776 71.9637 120.811C72.6119 120.853 73.2619 120.895 73.9127 120.882C74.4673 120.871 75.0183 120.819 75.5682 120.768C76.1729 120.712 76.7772 120.655 77.382 120.599C77.695 120.57 78.0143 120.539 78.2983 120.442C78.3664 120.419 78.4371 120.391 78.513 120.395C78.6901 120.405 78.7443 120.59 78.6308 120.686C78.5174 120.781 78.3222 120.803 78.1451 120.809C77.5764 120.828 77.0048 120.748 76.4388 120.791C75.8429 120.836 75.2816 121.013 74.6872 121.068C74.2217 121.11 73.7499 121.075 73.2837 121.04C72.2867 120.965 71.2897 120.89 70.2928 120.815C69.9455 120.789 69.5485 120.742 69.3688 120.532C69.2244 120.364 69.2947 120.123 69.5216 120.008C69.7017 119.916 69.9381 119.906 70.1484 119.855C70.7016 119.722 71.0157 119.327 71.4256 119.035C71.8591 118.727 72.4392 118.52 73.0509 118.457C73.663 118.394 74.3031 118.474 74.8459 118.681C74.4393 118.636 74.0283 118.59 73.6173 118.61C73.2063 118.63 72.7894 118.722 72.49 118.92C72.3022 119.044 72.1689 119.204 71.988 119.333C71.4791 119.694 70.6854 119.762 70.0652 120.026V120.025Z" fill="#706F6F"/>
<path id="Vector_106" d="M70.0456 120.003C69.9237 120.055 69.8103 120.121 69.7285 120.208C69.6888 120.251 69.6571 120.301 69.649 120.354C69.6401 120.408 69.6552 120.463 69.6906 120.511C69.7635 120.61 69.9083 120.661 70.0434 120.69C70.1812 120.72 70.3248 120.731 70.4633 120.739L72.1301 120.847C72.6859 120.883 73.2442 120.915 73.8051 120.909C74.3664 120.903 74.9225 120.854 75.4757 120.803L77.1352 120.648C77.411 120.621 77.6902 120.603 77.9653 120.554C78.1019 120.529 78.2386 120.494 78.363 120.449C78.4234 120.428 78.4846 120.413 78.5372 120.424C78.5892 120.435 78.6275 120.47 78.6433 120.511C78.6592 120.553 78.6547 120.599 78.6304 120.636C78.6061 120.673 78.556 120.705 78.5008 120.726C78.3874 120.769 78.2489 120.78 78.1122 120.783C77.836 120.79 77.5583 120.775 77.2799 120.763C77.0011 120.752 76.7194 120.743 76.4376 120.764C76.1563 120.785 75.883 120.835 75.6141 120.888C75.3453 120.94 75.0783 120.995 74.8058 121.027C74.534 121.061 74.2563 121.064 73.9793 121.055C73.7024 121.046 73.4254 121.023 73.1481 121.002L72.3158 120.94L70.6511 120.815C70.3745 120.791 70.0924 120.784 69.832 120.729C69.7035 120.7 69.5786 120.659 69.4862 120.593C69.3927 120.529 69.3356 120.442 69.3323 120.35C69.3275 120.259 69.368 120.166 69.4479 120.094C69.5271 120.021 69.6494 119.978 69.7794 119.952C69.9094 119.924 70.0493 119.909 70.1845 119.874C70.3196 119.839 70.4449 119.787 70.5575 119.727C70.7837 119.604 70.9619 119.449 71.1406 119.301C71.3181 119.15 71.5007 119.005 71.7191 118.887C72.1526 118.65 72.6852 118.5 73.2343 118.469C73.783 118.437 74.3447 118.52 74.8282 118.704L74.8522 118.655C74.4076 118.605 73.9517 118.554 73.4939 118.591C73.2663 118.611 73.0405 118.652 72.8332 118.724C72.6251 118.794 72.441 118.901 72.2992 119.027C72.1548 119.151 72.0292 119.281 71.8591 119.38C71.6897 119.48 71.4945 119.557 71.2904 119.621C70.8824 119.75 70.4412 119.837 70.046 120.003C70.046 120.003 70.0755 119.991 70.1329 119.969C70.1904 119.946 70.2777 119.915 70.3937 119.879C70.51 119.843 70.6555 119.803 70.8268 119.758C70.998 119.712 71.1954 119.662 71.4072 119.591C71.6171 119.519 71.8432 119.424 72.0325 119.277C72.2215 119.132 72.3817 118.934 72.6697 118.807C72.9507 118.678 73.3054 118.611 73.6781 118.601C74.0526 118.589 74.443 118.632 74.8466 118.679L74.8448 118.683C74.4599 118.534 74.004 118.442 73.5237 118.433C73.0439 118.423 72.5415 118.504 72.0882 118.676C71.862 118.762 71.6473 118.869 71.4573 118.999C71.2658 119.128 71.1019 119.277 70.9244 119.419C70.7476 119.561 70.5542 119.7 70.3112 119.789C70.1907 119.834 70.0593 119.861 69.9223 119.882C69.7871 119.905 69.6438 119.928 69.5212 119.987C69.2741 120.104 69.1901 120.36 69.3481 120.544C69.4265 120.635 69.5532 120.701 69.6895 120.741C69.8265 120.783 69.9723 120.805 70.1178 120.82C70.7001 120.869 71.2879 120.911 71.883 120.958C72.4782 121.002 73.077 121.051 73.6825 121.093C73.9856 121.111 74.2935 121.121 74.6006 121.1C74.9085 121.079 75.2068 121.022 75.5007 120.965C75.7946 120.907 76.0878 120.848 76.3876 120.822C76.687 120.794 76.9912 120.804 77.295 120.817C77.5992 120.83 77.9045 120.846 78.2124 120.831C78.3638 120.821 78.5347 120.797 78.6485 120.708C78.707 120.663 78.7302 120.601 78.7232 120.543C78.7173 120.485 78.6816 120.424 78.6017 120.39C78.5199 120.356 78.4216 120.373 78.3538 120.396C78.2831 120.42 78.2202 120.442 78.1502 120.461C78.0124 120.498 77.8677 120.522 77.7215 120.54C77.4287 120.575 77.1308 120.599 76.8376 120.628C76.2502 120.684 75.6698 120.74 75.0978 120.795C74.5266 120.848 73.9605 120.883 73.4048 120.873C72.849 120.865 72.3066 120.829 71.7784 120.799C71.2496 120.766 70.7362 120.742 70.2371 120.707C70.113 120.694 69.9885 120.673 69.8773 120.628C69.7661 120.586 69.6744 120.508 69.6589 120.416C69.6409 120.324 69.6983 120.236 69.7738 120.169C69.8501 120.101 69.9447 120.047 70.0453 120.002L70.0456 120.003Z" fill="#C0C0BF"/>
</g>
</g>
</g>
</g>
</g>
</g>
</g>
<defs>
<filter id="filter0_f_11_5968" x="0" y="0" width="138" height="138" filterUnits="userSpaceOnUse" color-interpolation-filters="sRGB">
<feFlood flood-opacity="0" result="BackgroundImageFix"/>
<feBlend mode="normal" in="SourceGraphic" in2="BackgroundImageFix" result="shape"/>
<feGaussianBlur stdDeviation="2" result="effect1_foregroundBlur_11_5968"/>
</filter>
</defs>
</svg>
