<svg width="142" height="142" viewBox="0 0 142 142" fill="none" xmlns="http://www.w3.org/2000/svg">
<g id="plane">
<rect id="Rectangle 25" width="142" height="142" rx="55" fill="#FAC93C"/>
<g id="Group 4">
<g id="Group">
<path id="Vector" fill-rule="evenodd" clip-rule="evenodd" d="M76.0813 83.8934C75.7096 84.0229 75.4909 84.2036 75.2823 84.3888C75.6318 84.5652 76.0312 84.6665 76.4804 84.693L76.081 83.8931L76.0813 83.8934Z" fill="#DBF0FF"/>
<path id="Vector_2" fill-rule="evenodd" clip-rule="evenodd" d="M80.2999 84.9401L77.2015 85.1681C76.6744 85.1475 76.4026 84.9063 76.2322 84.5784C76.1457 84.3992 76.097 84.1816 76.0619 83.9508C76.009 83.6097 76.1265 83.2922 76.4231 82.9995L80.2277 81.431L80.2996 84.9401H80.2999Z" fill="#C2E8FF"/>
<path id="Vector_3" fill-rule="evenodd" clip-rule="evenodd" d="M72.1665 83.4757C73.4571 83.5182 74.7598 83.6007 76.1004 83.7977C77.4073 82.7966 78.9961 82.004 81.0592 81.0015C78.8362 81.0589 76.9741 81.1161 75.5865 81.3823L72.1665 83.4757Z" fill="#A1DBFF"/>
<path id="Vector_4" fill-rule="evenodd" clip-rule="evenodd" d="M75.5306 81.3631L76.4616 80.8883C78.1311 80.6545 79.422 80.7105 81.1927 80.6781C81.3468 80.7766 81.3394 80.8912 81.0401 81.0398C78.9182 81.006 77.1444 81.1442 75.5306 81.3631Z" fill="#E8F5FF"/>
<path id="Vector_5" fill-rule="evenodd" clip-rule="evenodd" d="M79.2278 82.5512C79.3422 81.7969 79.8769 81.106 80.5698 80.8135L83.1482 79.9565C83.928 79.7463 84.4933 79.8552 84.891 80.0595L85.3712 84.2553C84.01 84.9153 82.6399 85.0977 81.3229 85.1405C80.621 85.1816 80.1158 84.8846 79.718 84.4039C79.32 83.8351 79.1938 83.3353 79.2275 82.5515L79.2278 82.5512Z" fill="#E8F5FF"/>
<path id="Vector_6" fill-rule="evenodd" clip-rule="evenodd" d="M79.7433 84.4696C79.6258 84.3064 79.5362 84.1389 79.4673 83.9652C79.8139 84.1637 80.2308 84.2416 80.7126 84.2152C81.9461 84.1755 84.0398 83.7181 85.4628 83.1389L85.4878 84.1724C84.3322 84.8515 82.7788 85.1178 81.4233 85.1603C80.7022 85.1999 80.1532 84.9514 79.7433 84.4693V84.4696Z" fill="#87C9F2"/>
<path id="Vector_7" fill-rule="evenodd" clip-rule="evenodd" d="M83.7857 80.1299C84.4803 79.6314 85.4434 80.1254 85.9339 81.2309C86.4259 82.335 86.26 83.6376 85.564 84.136C84.8694 84.633 83.9077 84.1405 83.4157 83.035C82.9252 81.9295 83.0913 80.6283 83.7857 80.1299Z" fill="#2685EB"/>
</g>
<g id="Group_2">
<path id="Vector_8" fill-rule="evenodd" clip-rule="evenodd" d="M56.1126 95.0959C55.741 95.2268 55.5223 95.4075 55.3154 95.5913C55.6634 95.7677 56.0628 95.8691 56.5121 95.8955L56.1126 95.0956V95.0959Z" fill="#DBF0FF"/>
<path id="Vector_9" fill-rule="evenodd" clip-rule="evenodd" d="M60.3312 96.1426L57.2328 96.3706C56.7071 96.35 56.4339 96.1088 56.2652 95.781C56.1772 95.6017 56.1286 95.3841 56.0935 95.1533C56.0406 94.8122 56.1581 94.4947 56.4547 94.202L60.2592 92.6335L60.3312 96.1426Z" fill="#C2E8FF"/>
<path id="Vector_10" fill-rule="evenodd" clip-rule="evenodd" d="M52.1981 94.6782C53.4887 94.7207 54.7914 94.8046 56.132 95.0016C57.4389 93.9991 59.0277 93.2065 61.0908 92.2054C58.8677 92.2612 57.0057 92.3186 55.6195 92.5848L52.1981 94.6782Z" fill="#A1DBFF"/>
<path id="Vector_11" fill-rule="evenodd" clip-rule="evenodd" d="M55.5622 92.5658L56.4932 92.091C58.1627 91.8571 59.4536 91.9145 61.2243 91.8821C61.3783 91.9792 61.371 92.0952 61.0717 92.2424C58.9498 92.2086 57.176 92.3482 55.5622 92.5658Z" fill="#E8F5FF"/>
<path id="Vector_12" fill-rule="evenodd" clip-rule="evenodd" d="M59.2593 93.7537C59.3738 92.9994 59.9098 92.3101 60.6014 92.016L63.1814 91.159C63.9595 90.9502 64.5248 91.0577 64.9243 91.262L65.4044 95.4578C64.0419 96.1178 62.6732 96.3002 61.3547 96.343C60.6528 96.3841 60.1477 96.0872 59.7499 95.6064C59.3535 95.0376 59.2256 94.5392 59.2593 93.754V93.7537Z" fill="#E8F5FF"/>
<path id="Vector_13" fill-rule="evenodd" clip-rule="evenodd" d="M59.7749 95.6738C59.6574 95.5091 59.5677 95.3414 59.5002 95.1694C59.8454 95.3664 60.2623 95.4444 60.7439 95.4179C61.9774 95.3782 64.0711 94.9209 65.4941 94.3417L65.5191 95.3766C64.3635 96.0543 62.81 96.3202 61.4545 96.363C60.7335 96.4041 60.1845 96.1542 59.7746 95.6735L59.7749 95.6738Z" fill="#87C9F2"/>
<path id="Vector_14" fill-rule="evenodd" clip-rule="evenodd" d="M63.8173 91.3324C64.5119 90.834 65.475 91.3279 65.9655 92.4334C66.4575 93.5389 66.2916 94.8401 65.597 95.3385C64.9009 95.8355 63.9393 95.343 63.4473 94.2375C62.9568 93.132 63.1229 91.8308 63.8173 91.3324Z" fill="#2685EB"/>
</g>
<path id="Vector_15" fill-rule="evenodd" clip-rule="evenodd" d="M97.0848 47.1138C97.1992 46.3595 97.7353 45.6686 98.4268 45.3762L101.193 44.491C101.851 44.3483 102.352 44.4175 102.75 44.6219L103.192 48.7853C101.829 49.4439 100.499 49.66 99.1799 49.7025C98.478 49.7422 97.9157 49.5466 97.5191 49.0659C97.121 48.4971 97.0508 47.8971 97.0845 47.1135L97.0848 47.1138Z" fill="#E8F5FF"/>
<path id="Vector_16" fill-rule="evenodd" clip-rule="evenodd" d="M98.5665 49.6527L96.1467 49.6218L94.8898 45.5158C96.4126 45.2791 97.9031 45.1983 99.3654 45.2512C97.941 45.7848 97.3715 46.2773 97.1834 46.7521C96.8045 47.796 97.2244 49.4484 98.5668 49.6527H98.5665Z" fill="#A1DBFF"/>
<path id="Vector_17" fill-rule="evenodd" clip-rule="evenodd" d="M94.9792 45.9345C95.7706 45.7037 97.1657 45.6609 98.6266 45.5641L99.3651 45.2509C97.8423 45.2098 96.3536 45.3024 94.8896 45.4935L94.9792 45.9345Z" fill="#E8F5FF"/>
<path id="Vector_18" fill-rule="evenodd" clip-rule="evenodd" d="M85.1674 58.6306C85.539 57.7809 85.7855 56.9296 85.8356 56.0785L86.7152 45.4758C86.9251 42.656 87.1365 40.0923 87.4289 37.6871C87.4671 37.2064 87.4891 36.7963 87.3524 36.5433L86.26 34.6908C86.1192 34.3865 86.2688 34.207 86.6859 34.1439C87.0896 34.1161 87.495 34.1499 87.8989 34.2644C89.4436 34.6762 90.5155 35.0949 91.7153 35.592C92.1499 35.7786 92.5316 36.1566 92.6036 36.5739C93.9956 42.4207 96.0528 48.3702 98.4903 54.3771L85.6537 59.1772L85.1676 58.6303L85.1674 58.6306Z" fill="#5CA8FF"/>
<path id="Vector_19" d="M86.517 47.9472C86.7092 47.7707 86.8239 47.7414 87.1042 47.6238L88.1041 47.1799C88.4493 47.0226 88.6621 47.1079 88.6225 47.6606L88.7327 54.0351C88.8075 54.5099 88.602 54.8187 88.1778 54.9996C87.2881 55.323 86.5274 55.6861 85.8696 56.1567" stroke="#086ED9" stroke-width="2.61" stroke-linecap="round" stroke-linejoin="round"/>
<path id="Vector_20" fill-rule="evenodd" clip-rule="evenodd" d="M38.7697 65.0816L39.4745 63.5483C39.5743 63.3851 39.7387 63.241 40.1264 63.1779L42.7238 62.5914C43.0454 62.512 43.3142 62.5796 43.439 62.9485L45.2524 68.2043L38.7694 65.0816H38.7697Z" fill="#529CEB"/>
<path id="Vector_21" fill-rule="evenodd" clip-rule="evenodd" d="M30.8273 74.4816C30.7143 74.1464 30.6833 73.8407 31.1297 73.7025L51.4375 68.2397L79.1488 60.6963C81.6743 59.9274 84.2439 59.0307 86.8549 58.0088C91.9385 55.9064 97.8353 53.9999 105.026 52.4032C107.915 51.7416 110.099 51.3197 112.483 50.9949C113.625 50.9068 114.19 51.045 114.82 51.4359L123.462 54.529C124.353 54.8555 125.004 55.5332 124.926 56.0637L122.777 58.1014L113.626 62.9485L92.2013 69.0936L83.8624 69.914L52.8062 75.3166L31.8817 74.9859C31.3383 74.9668 30.967 74.8126 30.8276 74.4816H30.8273Z" fill="#DEF2FF"/>
<path id="Vector_22" fill-rule="evenodd" clip-rule="evenodd" d="M30.6305 74.5244C30.676 75.8753 31.435 76.7782 32.72 77.3707L38.8122 77.3369C45.2406 77.7956 51.7514 78.0132 58.3474 77.9676C62.1843 77.8868 66.2252 77.4633 70.5659 76.5415C80.147 74.9083 89.8678 72.3635 99.6369 69.4966C104.215 68.1631 109.061 66.6504 114.195 64.9451C117.685 63.7014 120.804 62.2151 122.671 59.9187C124.285 58.14 125.015 56.9607 124.925 56.0376C124.172 56.6993 123.031 57.4519 121.436 58.1135C119.428 58.8884 117.268 60.0454 115.067 61.3023C113.259 62.4079 110.516 63.0695 108.709 63.3296C106.371 63.6164 103.447 64.4748 100.512 65.6966C97.5961 66.9639 96.1571 67.4122 93.6316 68.24C92.1999 68.6987 81.6276 69.5147 78.1798 68.5856C75.5618 67.9402 72.9994 67.9462 70.4751 68.4122C67.8422 69.0106 65.2683 69.8383 62.8249 71.1879C60.9806 72.1273 59.1584 72.7535 57.2216 73.2269C49.3496 74.8103 45.8681 71.151 42.6375 70.5675L31.3018 73.6812C30.8348 73.7076 30.5425 74.1824 30.6307 74.525L30.6305 74.5244Z" fill="#3B96FF"/>
<path id="Vector_23" fill-rule="evenodd" clip-rule="evenodd" d="M17.8321 60.2581C17.6617 60.0096 17.7632 59.8391 18.0744 59.729L22.81 58.5382C23.1608 58.4898 23.4751 58.5163 23.7571 58.6044L47.3082 68.2836C48.4948 68.679 49.6561 68.8144 50.7619 68.4173C51.2275 68.4482 51.4153 69.0773 50.643 69.1054C49.364 69.4361 48.2688 69.5172 47.3993 69.3038L23.3284 59.129L17.8321 60.2581Z" fill="#DEF2FF"/>
<path id="Vector_24" fill-rule="evenodd" clip-rule="evenodd" d="M38.6992 77.4762L32.6055 77.51C31.6703 77.0777 31.0139 76.481 30.7083 75.6651C31.0108 75.9327 31.3765 76.1621 31.7993 76.3575L37.8929 76.3237C44.3214 76.7824 50.8322 76.9986 57.4282 76.9544C61.265 76.8736 65.306 76.45 69.6466 75.5283C79.2277 73.8951 88.9468 71.3502 98.7177 68.4834C103.296 67.1499 108.142 65.6372 113.275 63.9319C116.766 62.6868 119.322 61.3077 122.218 58.9849C122.975 58.4482 123.845 57.769 124.679 57.0604C124.4 57.8411 123.701 58.7994 122.558 60.058C120.691 62.353 117.572 63.8393 114.082 65.0844C108.948 66.7897 104.102 68.301 99.5239 69.6359C89.7533 72.5028 80.0342 75.0459 70.4529 76.6808C66.1122 77.6026 62.0713 78.0259 58.2344 78.1069C51.6384 78.1511 45.1276 77.935 38.6992 77.4762Z" fill="#268AF5"/>
<path id="Vector_25" fill-rule="evenodd" clip-rule="evenodd" d="M32.469 73.3333L17.9423 60.4785C17.6339 60.2947 17.8836 59.986 18.2155 59.9244L22.8336 58.8613C23.1302 58.7834 23.3857 58.7893 23.6075 58.8613L47.0384 68.5377C48.0869 69.0348 49.4039 69.0745 50.8311 68.8876L33.0433 73.3612C32.7453 73.5126 32.6028 73.4304 32.4693 73.3333H32.469Z" fill="#63ADFF"/>
<path id="Vector_26" fill-rule="evenodd" clip-rule="evenodd" d="M43.1615 75.0712C43.6813 75.1036 43.884 75.2787 43.9 75.5359C43.8384 75.6682 43.6782 75.7754 43.3934 75.8534C42.8633 75.9136 42.3699 76.0887 41.8957 76.318L23.8273 86.8633C23.312 87.1425 22.5704 87.3941 22.0962 87.4968C20.9816 87.7467 20.1433 87.8306 19.3298 87.8996L22.9817 86.0603L41.9589 75.3034L43.1615 75.0712Z" fill="#1A7DEB"/>
<path id="Vector_27" fill-rule="evenodd" clip-rule="evenodd" d="M32.8977 75.9576L19.2888 87.8996L21.92 87.2762C22.503 87.1144 23.2401 86.8763 23.9111 86.4617L42.614 75.3665C42.7975 75.2151 43.0044 75.1079 43.2467 75.071C40.0103 74.9064 36.8506 75.118 33.7258 75.6193C33.3587 75.6562 33.1428 75.7397 32.8977 75.9573V75.9576Z" fill="#5CA8FF"/>
<path id="Vector_28" fill-rule="evenodd" clip-rule="evenodd" d="M111.375 54.6144C113.284 53.5573 114.793 52.4872 114.715 51.3727L116.417 52.0166C116.632 52.6839 116.246 53.2102 115.525 53.6589C114.464 54.4396 113.306 55.0909 112.08 55.6538C111.765 55.7537 111.676 55.6287 111.645 55.4449L111.375 54.6144Z" fill="black"/>
<path id="Vector_29" d="M18.9832 61.5004L20.6513 61.0831C20.9743 61.0316 21.2563 61.1036 21.4868 61.3271L35.7433 71.1093C35.9578 71.3004 36.0854 71.5211 36.0208 71.8062L35.8122 72.7102" stroke="#055EBF" stroke-width="2.61" stroke-linecap="round" stroke-linejoin="round"/>
<path id="Vector_30" d="M21.7718 85.8017C22.0243 85.8428 22.2947 85.9221 22.9758 85.4693L35.4526 76.0648C35.8344 75.7825 35.9547 75.5531 35.874 75.3634" stroke="#055EBF" stroke-width="2.61" stroke-linecap="round" stroke-linejoin="round"/>
<path id="Vector_31" fill-rule="evenodd" clip-rule="evenodd" d="M30.698 106.194C39.6741 99.9178 49.154 93.5155 59.1391 86.9865C64.9567 83.1009 71.0228 78.7185 77.2207 74.0684C78.2279 73.3158 79.3015 72.7631 80.4349 72.3882C84.1456 71.2812 87.6518 70.38 90.9867 69.6508C92.9058 69.442 94.6914 69.5655 96.3581 69.9874C96.59 70.2269 96.5344 70.4681 96.2625 70.7079C73.5291 82.4941 52.1526 94.5931 34.8227 105.762L30.698 106.194V106.194Z" fill="#5CA8FF"/>
<path id="Vector_32" fill-rule="evenodd" clip-rule="evenodd" d="M67.7849 85.0063C76.7551 79.799 85.2966 74.6361 92.9926 69.5566C94.157 69.5611 95.2643 69.708 96.3229 69.9757C96.5549 70.2169 96.4992 70.4564 96.2259 70.6959C73.4939 82.4834 52.1174 94.5825 34.7875 105.75L33.6802 105.866H33.6788C44.7299 98.6593 56.1053 91.7101 67.7849 85.0063Z" fill="#459CFF"/>
<path id="Vector_33" d="M49.4036 93.4212C50.0291 93.1389 50.6399 92.8228 51.4183 92.8448L64.271 84.2975C63.3928 84.4726 62.606 84.7709 61.4709 85.4591" stroke="#0D66C9" stroke-width="2.61" stroke-linecap="round" stroke-linejoin="round"/>
<path id="Vector_34" fill-rule="evenodd" clip-rule="evenodd" d="M26.0666 106.802C26.093 106.633 26.14 106.464 26.5321 106.295C27.0915 106.078 27.6923 105.982 28.3088 105.935C30.6009 105.914 32.7301 105.766 34.7608 105.66C34.9179 105.634 34.8665 105.776 34.7389 105.935L31.4614 106.697L27.6541 106.761L26.8714 106.845L26.0669 106.803L26.0666 106.802Z" fill="#91C4FF"/>
<path id="Vector_35" fill-rule="evenodd" clip-rule="evenodd" d="M106.748 59.9655C106.716 59.8934 106.717 59.8301 106.826 59.7949L107.7 59.5081C107.757 59.4862 107.813 59.5185 107.87 59.5993C108.322 60.474 108.845 61.2944 109.434 62.0662C109.503 62.1351 109.485 62.1883 109.383 62.2235L108.56 62.472C108.469 62.503 108.378 62.4912 108.287 62.4191C107.689 61.6693 107.174 60.852 106.748 59.9655Z" stroke="#858585" stroke-width="2.61" stroke-linecap="round" stroke-linejoin="round"/>
<path id="Vector_36" fill-rule="evenodd" clip-rule="evenodd" d="M94.1553 63.6305C94.126 63.5599 94.1288 63.4969 94.2405 63.4614L95.1259 63.1732C95.1833 63.1512 95.239 63.185 95.2918 63.2644C95.7073 64.1391 96.1978 64.9609 96.7544 65.7327C96.8205 65.8016 96.8 65.8531 96.6957 65.8886L95.8647 66.1371C95.7722 66.1681 95.6811 66.1577 95.5932 66.0842C95.0264 65.3344 94.5446 64.5185 94.1556 63.6305H94.1553Z" stroke="#858585" stroke-width="2.61" stroke-linecap="round" stroke-linejoin="round"/>
<path id="Vector_37" fill-rule="evenodd" clip-rule="evenodd" d="M80.6007 67.2383C80.5788 67.1662 80.5875 67.1029 80.7005 67.0781L81.6079 66.8693C81.6667 66.8516 81.7195 66.8898 81.7651 66.9751C82.1027 67.8822 82.5564 68.7598 83.0441 69.5774C83.1029 69.6522 83.0778 69.7023 82.9721 69.7288L82.1221 69.9022C82.0265 69.9258 81.9371 69.9067 81.8547 69.8256C81.3569 69.0288 80.9122 68.1569 80.6007 67.2383Z" stroke="#858585" stroke-width="2.61" stroke-linecap="round" stroke-linejoin="round"/>
<path id="Vector_38" fill-rule="evenodd" clip-rule="evenodd" d="M64.3576 71.4724C64.3339 71.3989 64.3429 71.337 64.4573 71.3106L65.3648 71.1017C65.4235 71.0857 65.475 71.1237 65.5205 71.2076C65.8598 72.1161 66.3118 72.9939 66.7996 73.8112C66.8583 73.8861 66.8347 73.9362 66.7276 73.9612L65.8775 74.1363C65.7819 74.1582 65.6925 74.1391 65.6119 74.0597C65.1126 73.263 64.6676 72.391 64.3578 71.4724H64.3576Z" stroke="#0F61BF" stroke-width="2.61" stroke-linecap="round" stroke-linejoin="round"/>
<path id="Vector_39" fill-rule="evenodd" clip-rule="evenodd" d="M53.3521 74.2184C53.3302 74.1449 53.3389 74.083 53.4519 74.0565L54.3593 73.8477C54.4181 73.8317 54.4709 73.8697 54.5165 73.9535C54.8541 74.862 55.5442 75.8941 56.1008 76.4365C56.161 76.5113 56.1359 76.5614 56.0288 76.5879L55.1788 76.7612C55.0849 76.7849 54.9952 76.7658 54.9131 76.6864C54.2772 76.0483 53.6636 75.1367 53.3521 74.2181V74.2184Z" stroke="#0F61BF" stroke-width="2.61" stroke-linecap="round" stroke-linejoin="round"/>
<path id="Vector_40" fill-rule="evenodd" clip-rule="evenodd" d="M106.615 56.6092L106.679 57.09C106.685 57.137 106.728 57.1634 106.773 57.1474L106.996 57.0649C107.042 57.0489 107.073 56.9959 107.067 56.9473L107.001 56.468C106.995 56.4195 106.953 56.3945 106.907 56.4105L106.685 56.4913C106.64 56.509 106.607 56.562 106.615 56.609V56.6092Z" fill="black"/>
<path id="Vector_41" fill-rule="evenodd" clip-rule="evenodd" d="M105.844 56.8491L105.91 57.3284C105.916 57.3768 105.958 57.4018 106.004 57.3858L106.225 57.305C106.271 57.2873 106.303 57.2344 106.296 57.1874L106.231 56.7067C106.225 56.6597 106.183 56.6332 106.137 56.6509L105.916 56.7317C105.869 56.7477 105.838 56.8007 105.844 56.8493V56.8491Z" fill="black"/>
<path id="Vector_42" fill-rule="evenodd" clip-rule="evenodd" d="M105.074 57.084L105.139 57.5661C105.146 57.6145 105.189 57.641 105.234 57.6249L105.455 57.5515C105.502 57.5368 105.534 57.4853 105.527 57.4369L105.462 56.9548C105.455 56.9064 105.412 56.88 105.367 56.8946L105.146 56.968C105.099 56.9841 105.067 57.0356 105.074 57.0843V57.084Z" fill="black"/>
<path id="Vector_43" fill-rule="evenodd" clip-rule="evenodd" d="M104.247 57.3297L104.312 57.8164C104.319 57.8634 104.362 57.8929 104.409 57.8797L104.626 57.818C104.673 57.8048 104.707 57.7533 104.7 57.7063L104.635 57.2197C104.628 57.1713 104.585 57.1417 104.538 57.155L104.321 57.2183C104.274 57.2315 104.24 57.2816 104.247 57.33V57.3297Z" fill="black"/>
<path id="Vector_44" fill-rule="evenodd" clip-rule="evenodd" d="M103.458 57.5797L103.524 58.0677C103.529 58.1147 103.574 58.1443 103.621 58.1311L103.838 58.0677C103.885 58.0545 103.917 58.0044 103.911 57.9574L103.845 57.4694C103.839 57.4224 103.795 57.3928 103.748 57.4061L103.531 57.4694C103.484 57.4826 103.452 57.5327 103.458 57.5797Z" fill="black"/>
<path id="Vector_45" fill-rule="evenodd" clip-rule="evenodd" d="M102.701 57.8118L102.766 58.2999C102.773 58.3469 102.816 58.3764 102.863 58.3632L103.08 58.2999C103.127 58.2866 103.16 58.2365 103.154 58.1895L103.088 57.7015C103.082 57.6545 103.039 57.625 102.992 57.6382L102.773 57.7015C102.728 57.7147 102.694 57.7648 102.701 57.8118Z" fill="black"/>
<path id="Vector_46" fill-rule="evenodd" clip-rule="evenodd" d="M101.938 58.0266L102.003 58.5132C102.008 58.5602 102.053 58.5897 102.099 58.5765L102.317 58.5149C102.364 58.5017 102.396 58.4501 102.39 58.4031L102.324 57.9165C102.318 57.8681 102.274 57.8386 102.229 57.8518L102.01 57.9151C101.963 57.9283 101.931 57.9784 101.938 58.0269V58.0266Z" fill="black"/>
<path id="Vector_47" fill-rule="evenodd" clip-rule="evenodd" d="M101.18 58.2706L101.245 58.7572C101.252 58.8056 101.295 58.8337 101.342 58.8205L101.559 58.7589C101.606 58.7456 101.64 58.6956 101.633 58.6471L101.568 58.1605C101.561 58.1121 101.518 58.084 101.471 58.0972L101.254 58.1588C101.207 58.1721 101.173 58.2222 101.18 58.2706Z" fill="black"/>
<path id="Vector_48" fill-rule="evenodd" clip-rule="evenodd" d="M100.403 58.4969L100.469 58.9835C100.475 59.0319 100.518 59.0601 100.565 59.0468L100.784 58.9852C100.831 58.972 100.863 58.9219 100.856 58.8735L100.791 58.3868C100.784 58.3384 100.741 58.3103 100.694 58.3235L100.477 58.3852C100.43 58.3984 100.397 58.4485 100.403 58.4969Z" fill="black"/>
<path id="Vector_49" fill-rule="evenodd" clip-rule="evenodd" d="M97.5003 59.3173L97.5649 59.8039C97.5722 59.8524 97.615 59.8805 97.6619 59.8673L97.8806 59.8056C97.9262 59.7924 97.9599 59.7423 97.9526 59.6939L97.8879 59.2073C97.8806 59.1589 97.8379 59.1307 97.7909 59.144L97.5736 59.2056C97.5267 59.2188 97.4944 59.2689 97.5003 59.3173Z" fill="black"/>
<path id="Vector_50" fill-rule="evenodd" clip-rule="evenodd" d="M96.7426 59.5495L96.8087 60.0361C96.8146 60.0845 96.8587 60.1127 96.9043 60.0994L97.123 60.0378C97.1699 60.0246 97.2023 59.9745 97.1963 59.9261L97.1303 59.4395C97.1244 59.391 97.0803 59.3629 97.0333 59.3761L96.816 59.4378C96.7691 59.451 96.7367 59.5011 96.7426 59.5495Z" fill="black"/>
<path id="Vector_51" fill-rule="evenodd" clip-rule="evenodd" d="M95.9791 59.7628L96.0452 60.2494C96.0511 60.2978 96.0935 60.326 96.1408 60.3128L96.3595 60.2511C96.4064 60.2379 96.4387 60.1878 96.4314 60.1394L96.3668 59.6528C96.3595 59.6044 96.3167 59.5762 96.2698 59.5894L96.0525 59.6511C96.0055 59.6643 95.9732 59.7144 95.9791 59.7628Z" fill="black"/>
<path id="Vector_52" fill-rule="evenodd" clip-rule="evenodd" d="M95.2215 59.9773L95.2876 60.4653C95.2935 60.5123 95.3376 60.5419 95.3846 60.5287L95.6019 60.4653C95.6488 60.4521 95.6811 60.402 95.6752 60.355L95.6092 59.867C95.6033 59.82 95.5591 59.7904 95.5122 59.8036L95.2949 59.867C95.2479 59.8802 95.2156 59.9303 95.2215 59.9773Z" fill="black"/>
<path id="Vector_53" fill-rule="evenodd" clip-rule="evenodd" d="M94.4754 60.1743L94.5401 60.6609C94.5474 60.7093 94.5901 60.7375 94.6371 60.7243L94.8544 60.6626C94.9013 60.6494 94.935 60.5993 94.9277 60.5509L94.8631 60.0643C94.8558 60.0159 94.813 59.9877 94.7661 60.0009L94.5488 60.0626C94.5018 60.0758 94.4681 60.1259 94.4754 60.1743Z" fill="black"/>
<path id="Vector_54" fill-rule="evenodd" clip-rule="evenodd" d="M93.7193 60.3831L93.7839 60.8697C93.7913 60.9181 93.834 60.9463 93.8809 60.9331L94.0982 60.8714C94.1452 60.8582 94.1789 60.8081 94.1716 60.7597L94.1069 60.2731C94.0996 60.2247 94.0569 60.1965 94.01 60.2097L93.7927 60.2714C93.7457 60.2846 93.712 60.3347 93.7193 60.3831Z" fill="black"/>
<path id="Vector_55" fill-rule="evenodd" clip-rule="evenodd" d="M92.9617 60.5844L93.0278 61.0724C93.0337 61.1194 93.0761 61.1489 93.1233 61.1357L93.342 61.0724C93.389 61.0592 93.4213 61.0091 93.414 60.9621L93.3493 60.474C93.342 60.427 93.2993 60.3975 93.2524 60.4107L93.0351 60.474C92.9881 60.4873 92.9558 60.5374 92.9617 60.5844Z" fill="black"/>
<path id="Vector_56" fill-rule="evenodd" clip-rule="evenodd" d="M92.2129 60.783L92.2789 61.2696C92.2848 61.3181 92.329 61.3476 92.3745 61.3344L92.5932 61.2711C92.6401 61.2578 92.6725 61.2077 92.6666 61.1593L92.6005 60.6727C92.5946 60.6257 92.5505 60.5961 92.5035 60.6094L92.2862 60.671C92.2393 60.6842 92.2069 60.7357 92.2129 60.7827V60.783Z" fill="black"/>
<path id="Vector_57" fill-rule="evenodd" clip-rule="evenodd" d="M91.4549 60.9683L91.521 61.4549C91.5269 61.5034 91.571 61.5329 91.618 61.5197L91.8353 61.4564C91.8822 61.4431 91.9146 61.393 91.9087 61.3446L91.8426 60.858C91.8367 60.811 91.7926 60.7814 91.7456 60.7947L91.5283 60.8563C91.4814 60.8695 91.449 60.921 91.4549 60.968V60.9683Z" fill="black"/>
<path id="Vector_58" fill-rule="evenodd" clip-rule="evenodd" d="M90.6796 61.1946L90.7443 61.6812C90.7516 61.7296 90.7943 61.7578 90.8413 61.7445L91.0586 61.6829C91.1055 61.6697 91.1379 61.6196 91.132 61.5712L91.0659 61.0845C91.06 61.0361 91.0175 61.008 90.9703 61.0212L90.7516 61.0828C90.7061 61.0961 90.6723 61.1462 90.6796 61.1946Z" fill="black"/>
<path id="Vector_59" fill-rule="evenodd" clip-rule="evenodd" d="M89.9074 61.418L89.9734 61.9046C89.9793 61.9531 90.0235 61.9812 90.0704 61.968L90.2877 61.9063C90.3347 61.8931 90.367 61.843 90.3611 61.7946L90.295 61.308C90.2891 61.2596 90.245 61.2314 90.198 61.2447L89.9807 61.3063C89.9338 61.3195 89.9015 61.3696 89.9074 61.418Z" fill="black"/>
<path id="Vector_60" fill-rule="evenodd" clip-rule="evenodd" d="M89.1513 61.621L89.2159 62.1076C89.2232 62.156 89.266 62.1841 89.3129 62.1709L89.5302 62.1093C89.5771 62.0961 89.6095 62.046 89.6036 61.9975L89.5375 61.5109C89.5316 61.4625 89.4892 61.4344 89.4419 61.4476L89.2232 61.5092C89.1777 61.5225 89.144 61.5726 89.1513 61.621Z" fill="black"/>
<path id="Vector_61" fill-rule="evenodd" clip-rule="evenodd" d="M119.922 56.5138L120.044 56.9444C120.058 56.9928 120.103 57.0165 120.147 56.9987L120.416 56.8856C120.459 56.8679 120.485 56.8135 120.472 56.7665L120.35 56.3359C120.337 56.2889 120.291 56.2639 120.247 56.283L119.98 56.3947C119.935 56.4125 119.91 56.4668 119.922 56.5138H119.922Z" fill="black"/>
<path id="Vector_62" fill-rule="evenodd" clip-rule="evenodd" d="M118.946 56.9872L119.068 57.4136C119.081 57.4606 119.127 57.4826 119.171 57.4637L119.438 57.3416C119.482 57.321 119.509 57.2667 119.495 57.2194L119.372 56.793C119.359 56.746 119.313 56.7238 119.269 56.7429L119.002 56.8651C118.958 56.8856 118.933 56.94 118.946 56.9872H118.946Z" fill="black"/>
<path id="Vector_63" fill-rule="evenodd" clip-rule="evenodd" d="M117.942 57.4606L118.081 57.8825C118.096 57.9295 118.144 57.9532 118.187 57.9354L118.45 57.8251C118.492 57.8074 118.516 57.7545 118.501 57.7075L118.36 57.2842C118.346 57.2386 118.299 57.2152 118.256 57.2327L117.993 57.343C117.949 57.3607 117.927 57.4136 117.942 57.4606Z" fill="black"/>
<path id="Vector_64" fill-rule="evenodd" clip-rule="evenodd" d="M116.933 57.9515L117.097 58.366C117.115 58.4116 117.163 58.4322 117.206 58.4116L117.462 58.2867C117.504 58.2675 117.525 58.2132 117.507 58.1676L117.343 57.753C117.325 57.7074 117.277 57.6869 117.234 57.7074L116.978 57.8324C116.936 57.8515 116.917 57.9059 116.933 57.9515Z" fill="black"/>
<path id="Vector_65" fill-rule="evenodd" clip-rule="evenodd" d="M116.011 58.3601L116.193 58.7642C116.212 58.8098 116.262 58.8318 116.303 58.8143L116.556 58.7099C116.597 58.6922 116.614 58.6424 116.595 58.5968L116.412 58.1926C116.393 58.1484 116.343 58.1265 116.301 58.1425L116.05 58.2483C116.008 58.2661 115.99 58.3159 116.011 58.3601Z" fill="black"/>
<path id="Vector_66" fill-rule="evenodd" clip-rule="evenodd" d="M115.074 58.7764L115.259 59.1659C115.279 59.2101 115.329 59.232 115.37 59.2143L115.621 59.113C115.663 59.0969 115.68 59.0482 115.66 59.0041L115.475 58.6145C115.456 58.5703 115.406 58.5498 115.365 58.5661L115.114 58.6674C115.072 58.6835 115.055 58.7322 115.074 58.7764Z" fill="black"/>
<path id="Vector_67" fill-rule="evenodd" clip-rule="evenodd" d="M114.164 59.1923L114.347 59.5585C114.368 59.5982 114.418 59.6187 114.459 59.6041L114.71 59.5084C114.751 59.4924 114.769 59.4468 114.749 59.4071L114.564 59.0409C114.544 59.0012 114.494 58.9807 114.453 58.9953L114.202 59.091C114.161 59.1071 114.143 59.1527 114.164 59.1923Z" fill="black"/>
<path id="Vector_68" fill-rule="evenodd" clip-rule="evenodd" d="M113.277 59.5436L113.462 59.9097C113.482 59.9494 113.532 59.9699 113.573 59.9539L113.824 59.8599C113.865 59.8439 113.883 59.7983 113.863 59.7586L113.678 59.3924C113.658 59.3527 113.609 59.3322 113.567 59.3468L113.316 59.4425C113.275 59.4586 113.258 59.5042 113.277 59.5438V59.5436Z" fill="black"/>
<path id="Vector_69" fill-rule="evenodd" clip-rule="evenodd" d="M112.449 59.8714L112.634 60.2154C112.654 60.2537 112.704 60.2728 112.745 60.2579L112.996 60.1681C113.037 60.1535 113.055 60.1107 113.034 60.0724L112.849 59.7285C112.83 59.6902 112.78 59.6711 112.739 59.686L112.488 59.7758C112.447 59.7904 112.429 59.8332 112.449 59.8714Z" fill="black"/>
<path id="Vector_70" fill-rule="evenodd" clip-rule="evenodd" d="M111.615 60.1743L111.8 60.5182C111.82 60.5565 111.87 60.5757 111.911 60.5607L112.162 60.471C112.203 60.4563 112.221 60.4135 112.2 60.3753L112.015 60.0313C111.996 59.9931 111.946 59.9739 111.905 59.9888L111.654 60.0786C111.613 60.0918 111.595 60.136 111.615 60.1743Z" fill="black"/>
<path id="Vector_71" fill-rule="evenodd" clip-rule="evenodd" d="M110.766 60.4287L110.933 60.7831C110.95 60.8228 110.996 60.8433 111.033 60.8315L111.26 60.7549C111.299 60.7431 111.313 60.7006 111.295 60.6609L111.128 60.308C111.11 60.2683 111.065 60.2464 111.028 60.2596L110.801 60.3361C110.762 60.348 110.748 60.3905 110.766 60.4287Z" fill="black"/>
<path id="Vector_72" fill-rule="evenodd" clip-rule="evenodd" d="M109.962 60.6728L110.131 61.0271C110.149 61.0668 110.193 61.0873 110.231 61.0755L110.459 60.999C110.496 60.9871 110.512 60.9446 110.494 60.905L110.327 60.552C110.309 60.5123 110.263 60.4904 110.227 60.5036L109.999 60.5802C109.961 60.592 109.945 60.6345 109.962 60.6728Z" fill="black"/>
<path id="Vector_73" fill-rule="evenodd" clip-rule="evenodd" d="M107.547 61.0667L107.732 61.4106C107.751 61.4503 107.797 61.4695 107.833 61.4548L108.058 61.3681C108.095 61.3535 108.108 61.3107 108.089 61.2725L107.904 60.9268C107.885 60.8886 107.838 60.8694 107.801 60.8827L107.578 60.9707C107.541 60.984 107.528 61.0265 107.547 61.0664L107.547 61.0667Z" fill="black"/>
<path id="Vector_74" fill-rule="evenodd" clip-rule="evenodd" d="M105.91 61.8253L106.115 62.187C106.137 62.2266 106.184 62.2503 106.221 62.2385L106.441 62.1709C106.476 62.1591 106.488 62.118 106.466 62.0783L106.261 61.7181C106.239 61.677 106.192 61.6533 106.155 61.6652L105.936 61.7327C105.9 61.7445 105.888 61.7856 105.91 61.8253H105.91Z" fill="black"/>
<path id="Vector_75" fill-rule="evenodd" clip-rule="evenodd" d="M105.143 62.0533L105.355 62.4149C105.378 62.4546 105.425 62.4782 105.46 62.4664L105.679 62.3989C105.716 62.3871 105.726 62.346 105.704 62.3063L105.493 61.946C105.469 61.9049 105.422 61.8813 105.386 61.8931L105.167 61.9607C105.132 61.9725 105.121 62.0136 105.143 62.0533Z" fill="black"/>
<path id="Vector_76" fill-rule="evenodd" clip-rule="evenodd" d="M104.389 62.2827L104.597 62.6339C104.619 62.6736 104.666 62.6955 104.703 62.6854L104.922 62.6179C104.958 62.6074 104.968 62.5678 104.947 62.5281L104.738 62.1768C104.716 62.1371 104.669 62.1152 104.632 62.1253L104.414 62.1929C104.378 62.2033 104.367 62.243 104.389 62.2827Z" fill="black"/>
<path id="Vector_77" fill-rule="evenodd" clip-rule="evenodd" d="M103.582 62.5221L103.788 62.8837C103.81 62.9234 103.858 62.9471 103.894 62.9352L104.114 62.8677C104.149 62.8559 104.161 62.8148 104.139 62.7751L103.933 62.4134C103.912 62.3738 103.864 62.3501 103.829 62.3619L103.609 62.4295C103.572 62.4413 103.562 62.4824 103.582 62.5221Z" fill="black"/>
<path id="Vector_78" fill-rule="evenodd" clip-rule="evenodd" d="M102.816 62.7501L103.027 63.1118C103.051 63.1515 103.098 63.1751 103.134 63.1633L103.353 63.0957C103.388 63.0839 103.399 63.0428 103.377 63.0031L103.165 62.6415C103.142 62.6018 103.095 62.5781 103.058 62.59L102.841 62.6575C102.804 62.6693 102.794 62.7104 102.816 62.7501Z" fill="black"/>
<path id="Vector_79" fill-rule="evenodd" clip-rule="evenodd" d="M102.061 62.9792L102.27 63.3304C102.292 63.3687 102.339 63.3921 102.376 63.3819L102.594 63.3144C102.631 63.304 102.641 63.2629 102.619 63.2246L102.412 62.8734C102.388 62.8337 102.342 62.8117 102.306 62.8219L102.086 62.888C102.051 62.8998 102.039 62.9395 102.061 62.9792H102.061Z" fill="black"/>
<path id="Vector_80" fill-rule="evenodd" clip-rule="evenodd" d="M101.299 63.1734L101.503 63.5351C101.527 63.5748 101.574 63.5984 101.609 63.5866L101.829 63.5191C101.864 63.5072 101.876 63.4661 101.854 63.4265L101.649 63.0662C101.627 63.0251 101.58 63.0015 101.545 63.0133L101.324 63.0808C101.289 63.0927 101.277 63.1338 101.299 63.1734Z" fill="black"/>
<path id="Vector_81" fill-rule="evenodd" clip-rule="evenodd" d="M100.531 63.4013L100.743 63.763C100.766 63.8027 100.813 63.8263 100.85 63.8145L101.068 63.747C101.103 63.7351 101.114 63.694 101.092 63.6544L100.881 63.2941C100.859 63.253 100.81 63.2294 100.775 63.2412L100.556 63.3088C100.519 63.3206 100.509 63.3617 100.531 63.4013Z" fill="black"/>
<path id="Vector_82" fill-rule="evenodd" clip-rule="evenodd" d="M99.7778 63.6305L99.9849 63.9817C100.007 64.0214 100.055 64.0434 100.091 64.0332L100.309 63.9657C100.346 63.9553 100.358 63.9156 100.334 63.8759L100.127 63.5247C100.105 63.485 100.057 63.463 100.021 63.4732L99.8028 63.5407C99.7659 63.5511 99.7544 63.5908 99.7778 63.6305Z" fill="black"/>
<path id="Vector_83" fill-rule="evenodd" clip-rule="evenodd" d="M98.888 63.879L99.0935 64.2407C99.1154 64.2804 99.1624 64.304 99.1978 64.2922L99.4182 64.2246C99.455 64.2128 99.4652 64.1717 99.4432 64.132L99.2391 63.7704C99.2172 63.7307 99.1686 63.7071 99.1334 63.7189L98.913 63.7864C98.8779 63.7982 98.8661 63.8393 98.888 63.879Z" fill="black"/>
<path id="Vector_84" fill-rule="evenodd" clip-rule="evenodd" d="M98.1215 64.107L98.3329 64.4686C98.3548 64.5083 98.4034 64.532 98.4386 64.5201L98.6573 64.4526C98.6924 64.4408 98.7042 64.3997 98.6809 64.36L98.4695 63.9983C98.4476 63.9587 98.3989 63.935 98.3638 63.9468L98.1451 64.0144C98.1099 64.0262 98.0981 64.0673 98.1215 64.107Z" fill="black"/>
<path id="Vector_85" fill-rule="evenodd" clip-rule="evenodd" d="M97.3667 64.3364L97.5739 64.6876C97.5958 64.7259 97.6444 64.7492 97.6796 64.7391L97.9 64.6716C97.9351 64.6612 97.9469 64.6201 97.925 64.5818L97.7164 64.2305C97.6945 64.1909 97.6458 64.1689 97.6107 64.179L97.392 64.2452C97.3552 64.257 97.345 64.2967 97.367 64.3364H97.3667Z" fill="black"/>
<path id="Vector_86" fill-rule="evenodd" clip-rule="evenodd" d="M93.2774 65.4404L93.4829 65.8065C93.5048 65.8476 93.552 65.8727 93.5872 65.8623L93.8076 65.7989C93.8444 65.7885 93.8545 65.7474 93.834 65.7064L93.6285 65.3402C93.6066 65.3005 93.558 65.2755 93.5228 65.2859L93.3024 65.3492C93.2673 65.3596 93.2555 65.4007 93.2774 65.4404Z" fill="black"/>
<path id="Vector_87" fill-rule="evenodd" clip-rule="evenodd" d="M92.5108 65.6507L92.7222 66.0168C92.7441 66.0565 92.7928 66.0815 92.8279 66.0711L93.0466 66.0078C93.0817 65.9974 93.0935 65.9563 93.0702 65.9166L92.8588 65.5505C92.8369 65.5094 92.7883 65.4843 92.7531 65.4947L92.5344 65.5581C92.4993 65.5685 92.4875 65.6096 92.5108 65.6507Z" fill="black"/>
<path id="Vector_88" fill-rule="evenodd" clip-rule="evenodd" d="M91.7559 65.8593L91.9631 66.2164C91.9867 66.2561 92.0337 66.2797 92.0688 66.2693L92.2892 66.2091C92.3244 66.1987 92.3362 66.159 92.3142 66.1193L92.1057 65.7622C92.0837 65.7225 92.0351 65.6988 92 65.7092L91.7812 65.7709C91.7444 65.7796 91.7343 65.821 91.7562 65.859L91.7559 65.8593Z" fill="black"/>
<path id="Vector_89" fill-rule="evenodd" clip-rule="evenodd" d="M90.9808 66.0828L91.1862 66.4489C91.2082 66.49 91.2554 66.5151 91.2919 66.5047L91.5106 66.4413C91.5475 66.4309 91.559 66.3898 91.5371 66.3487L91.3316 65.9826C91.3096 65.9429 91.2624 65.9179 91.2259 65.9283L91.0072 65.9916C90.9703 66.002 90.9588 66.0431 90.9808 66.0828Z" fill="black"/>
<path id="Vector_90" fill-rule="evenodd" clip-rule="evenodd" d="M90.2144 66.2916L90.4258 66.6577C90.4477 66.6988 90.4964 66.7239 90.5315 66.7135L90.7502 66.6501C90.787 66.6397 90.7972 66.5986 90.7752 66.559L90.5638 66.1914C90.5402 66.1517 90.4933 66.1267 90.4567 66.1371L90.238 66.2004C90.2029 66.2108 90.1925 66.2519 90.2144 66.2916Z" fill="black"/>
<path id="Vector_91" fill-rule="evenodd" clip-rule="evenodd" d="M89.4596 66.5018L89.6682 66.8589C89.6901 66.8986 89.7374 66.9223 89.7739 66.9118L89.9926 66.8516C90.0277 66.8412 90.0396 66.8015 90.0176 66.7618L89.809 66.4047C89.7871 66.365 89.7402 66.3413 89.7034 66.3518L89.4846 66.412C89.4495 66.4224 89.4377 66.4621 89.4596 66.5018Z" fill="black"/>
<path id="Vector_92" fill-rule="evenodd" clip-rule="evenodd" d="M88.693 66.7268L88.9016 67.0839C88.9235 67.1236 88.9721 67.1472 89.0073 67.1368L89.226 67.0752C89.2628 67.0665 89.2729 67.0251 89.251 66.9854L89.0438 66.6297C89.0219 66.59 88.9733 66.5663 88.9381 66.5753L88.7177 66.637C88.6826 66.6474 88.6708 66.6871 88.6927 66.7268H88.693Z" fill="black"/>
<path id="Vector_93" fill-rule="evenodd" clip-rule="evenodd" d="M87.1042 67.128L87.3097 67.4942C87.3316 67.5339 87.3788 67.5589 87.414 67.5485L87.6344 67.4852C87.6712 67.4748 87.6827 67.4337 87.6608 67.394L87.4553 67.0278C87.4334 66.9867 87.3847 66.9631 87.3496 66.9735L87.1292 67.0352C87.0941 67.0456 87.0823 67.0867 87.1042 67.1278V67.128Z" fill="black"/>
<path id="Vector_94" fill-rule="evenodd" clip-rule="evenodd" d="M85.4965 67.5631L85.7079 67.9293C85.7315 67.9703 85.7785 67.994 85.8136 67.9836L86.0323 67.9202C86.0691 67.9115 86.0793 67.8687 86.0573 67.8291L85.8459 67.4629C85.8223 67.4218 85.7754 67.3982 85.7388 67.4086L85.5201 67.4702C85.485 67.4806 85.4746 67.5217 85.4965 67.5628V67.5631Z" fill="black"/>
<path id="Vector_95" fill-rule="evenodd" clip-rule="evenodd" d="M83.9766 67.9968L84.1838 68.354C84.2057 68.3937 84.2543 68.4173 84.2895 68.4069L84.5082 68.3467C84.545 68.3363 84.5565 68.2966 84.5332 68.2569L84.326 67.8997C84.3041 67.86 84.2554 67.8364 84.2203 67.8468L84.0016 67.907C83.9648 67.9175 83.9532 67.9571 83.9766 67.9968Z" fill="black"/>
<path id="Vector_96" fill-rule="evenodd" clip-rule="evenodd" d="M79.6832 69.1319L79.8903 69.4921C79.914 69.5318 79.9609 69.5569 79.996 69.5465L80.2164 69.489C80.2516 69.4803 80.2634 69.4406 80.2414 69.3993L80.0329 69.0404C80.0109 68.9993 79.964 68.9757 79.9272 68.9847L79.7085 69.0421C79.6716 69.0525 79.6615 69.0922 79.6834 69.1319H79.6832Z" fill="black"/>
<path id="Vector_97" fill-rule="evenodd" clip-rule="evenodd" d="M78.9078 69.3421L79.1133 69.7111C79.1353 69.7522 79.1822 69.7786 79.219 69.7685L79.4394 69.7097C79.4746 69.6992 79.4864 69.6582 79.4644 69.6171L79.2589 69.2481C79.237 69.207 79.1898 69.1819 79.1532 69.1924L78.9345 69.2512C78.8977 69.2616 78.8862 69.3013 78.9081 69.3424L78.9078 69.3421Z" fill="black"/>
<path id="Vector_98" fill-rule="evenodd" clip-rule="evenodd" d="M78.1412 69.5392L78.3526 69.9096C78.3762 69.9493 78.4232 69.9757 78.4583 69.9653L78.677 69.9065C78.7139 69.8961 78.724 69.855 78.702 69.8139L78.4906 69.4449C78.467 69.4038 78.4201 69.3788 78.3835 69.3892L78.1648 69.448C78.1297 69.4567 78.1193 69.4981 78.1412 69.5392Z" fill="black"/>
<path id="Vector_99" fill-rule="evenodd" clip-rule="evenodd" d="M77.3865 69.7376L77.5951 70.0979C77.617 70.1375 77.664 70.1626 77.7008 70.1522L77.9195 70.0948C77.9563 70.086 77.9664 70.0463 77.9445 70.005L77.7359 69.6461C77.714 69.605 77.667 69.5814 77.6302 69.5901L77.4115 69.6475C77.3764 69.6579 77.3646 69.6976 77.3865 69.7373V69.7376Z" fill="black"/>
<path id="Vector_100" fill-rule="evenodd" clip-rule="evenodd" d="M76.6215 69.9493L76.8287 70.3095C76.8506 70.3492 76.8993 70.3743 76.9344 70.3653L77.1531 70.3064C77.1899 70.2977 77.2015 70.258 77.1781 70.2183L76.971 69.8581C76.949 69.8184 76.9004 69.7934 76.8653 69.8021L76.6466 69.8609C76.6097 69.8696 76.5982 69.9093 76.6215 69.949V69.9493Z" fill="black"/>
<path id="Vector_101" fill-rule="evenodd" clip-rule="evenodd" d="M75.9064 70.1258L76.115 70.486C76.1369 70.5257 76.1842 70.5493 76.2207 70.5403L76.4394 70.4829C76.4746 70.4742 76.4864 70.4328 76.4644 70.3931L76.2559 70.0329C76.2339 69.9932 76.1867 69.9681 76.1502 69.9786L75.9314 70.036C75.8963 70.0447 75.8845 70.0861 75.9064 70.1258Z" fill="black"/>
<path id="Vector_102" fill-rule="evenodd" clip-rule="evenodd" d="M75.1311 70.3359L75.3366 70.7049C75.3585 70.746 75.4072 70.7711 75.4423 70.7623L75.6627 70.7021C75.6978 70.6934 75.7097 70.652 75.6877 70.6109L75.4822 70.2419C75.4603 70.2009 75.4131 70.1758 75.3779 70.1845L75.1576 70.2448C75.1207 70.2535 75.1106 70.2949 75.1311 70.3359Z" fill="black"/>
<path id="Vector_103" fill-rule="evenodd" clip-rule="evenodd" d="M74.3645 70.533L74.5759 70.9019C74.5995 70.943 74.6465 70.9681 74.683 70.9594L74.9017 70.8991C74.9368 70.8904 74.9472 70.849 74.9253 70.8079L74.7139 70.439C74.6903 70.3979 74.6434 70.3728 74.6068 70.3816L74.3895 70.4418C74.3527 70.4505 74.3426 70.4919 74.3645 70.533Z" fill="black"/>
<path id="Vector_104" fill-rule="evenodd" clip-rule="evenodd" d="M73.6098 70.7313L73.8184 71.0916C73.8403 71.1313 73.8875 71.1563 73.9241 71.1459L74.1428 71.0885C74.1796 71.0798 74.1897 71.0384 74.1678 70.9987L73.9606 70.6399C73.937 70.5988 73.89 70.5737 73.8549 70.5841L73.6345 70.6416C73.5994 70.6503 73.5876 70.6917 73.6095 70.7313H73.6098Z" fill="black"/>
<path id="Vector_105" fill-rule="evenodd" clip-rule="evenodd" d="M72.8448 70.943L73.052 71.3033C73.0756 71.3429 73.1226 71.368 73.1577 71.3576L73.3781 71.3002C73.4132 71.2914 73.4251 71.2517 73.4031 71.2121L73.1945 70.8518C73.1726 70.8121 73.124 70.7871 73.0888 70.7961L72.8701 70.8535C72.8333 70.8639 72.8232 70.9036 72.8451 70.9433L72.8448 70.943Z" fill="black"/>
<path id="Vector_106" fill-rule="evenodd" clip-rule="evenodd" d="M72.065 71.1504L72.2736 71.5107C72.2955 71.5518 72.3425 71.5754 72.3793 71.5667L72.598 71.5093C72.6348 71.4989 72.645 71.4592 72.623 71.4195L72.4144 71.0592C72.3925 71.0196 72.3456 70.9945 72.3088 71.0049L72.0901 71.0623C72.0549 71.0711 72.0431 71.1108 72.065 71.1504Z" fill="black"/>
<path id="Vector_107" fill-rule="evenodd" clip-rule="evenodd" d="M71.2915 71.3621L71.4956 71.731C71.5175 71.7721 71.5661 71.7972 71.6013 71.7885L71.8216 71.7282C71.8568 71.7195 71.8686 71.6781 71.8467 71.637L71.6412 71.2681C71.6192 71.227 71.572 71.2019 71.5369 71.2107L71.3165 71.2709C71.2797 71.2796 71.2695 71.321 71.2915 71.3621Z" fill="black"/>
<path id="Vector_108" fill-rule="evenodd" clip-rule="evenodd" d="M70.5234 71.559L70.7348 71.928C70.7584 71.9691 70.8054 71.9941 70.8419 71.9854L71.0606 71.9252C71.0958 71.9165 71.1062 71.8751 71.0843 71.834L70.8729 71.465C70.8509 71.4239 70.8023 71.3989 70.7672 71.4076L70.5485 71.4678C70.5116 71.4766 70.5015 71.5179 70.5234 71.559Z" fill="black"/>
<path id="Vector_109" fill-rule="evenodd" clip-rule="evenodd" d="M69.7687 71.7575L69.9772 72.1163C69.9992 72.1574 70.0478 72.181 70.0829 72.172L70.3016 72.1146C70.3385 72.1042 70.3486 72.0645 70.3267 72.0248L70.1195 71.6646C70.0975 71.6249 70.0489 71.5999 70.0138 71.6103L69.7934 71.6677C69.7583 71.6764 69.7464 71.7161 69.7684 71.7575H69.7687Z" fill="black"/>
<path id="Vector_110" fill-rule="evenodd" clip-rule="evenodd" d="M69.0034 71.9692L69.2106 72.3294C69.2342 72.3691 69.2812 72.3941 69.3163 72.3837L69.5367 72.3263C69.5718 72.3176 69.5837 72.2779 69.5617 72.2365L69.3531 71.8777C69.3312 71.8366 69.284 71.813 69.2474 71.8217L69.0287 71.8791C68.9919 71.8895 68.9818 71.9292 69.0037 71.9689L69.0034 71.9692Z" fill="black"/>
<path id="Vector_111" fill-rule="evenodd" clip-rule="evenodd" d="M68.2414 72.1589L68.4528 72.5279C68.4747 72.569 68.5233 72.594 68.5585 72.5853L68.7772 72.525C68.814 72.5163 68.8241 72.475 68.8022 72.4339L68.5894 72.0649C68.5674 72.0238 68.5188 71.9987 68.4837 72.0075L68.265 72.0677C68.2298 72.0764 68.2194 72.1178 68.2414 72.1589Z" fill="black"/>
<path id="Vector_112" fill-rule="evenodd" clip-rule="evenodd" d="M67.4866 72.3573L67.6938 72.7162C67.7174 72.7573 67.7643 72.7809 67.8009 72.7719L68.0196 72.7145C68.0547 72.7041 68.0665 72.6644 68.0446 72.6247L67.836 72.2644C67.8141 72.2248 67.7669 72.1997 67.7303 72.2101L67.5116 72.2675C67.4748 72.2763 67.4647 72.316 67.4866 72.3573Z" fill="black"/>
<path id="Vector_113" fill-rule="evenodd" clip-rule="evenodd" d="M66.7203 72.5689L66.9289 72.9292C66.9508 72.9688 66.998 72.9939 67.0346 72.9835L67.2533 72.9261C67.2901 72.9173 67.3002 72.8776 67.2783 72.8363L67.0711 72.4774C67.0475 72.4363 67.0005 72.4127 66.9654 72.4217L66.745 72.4791C66.7099 72.4895 66.6981 72.5292 66.72 72.5689H66.7203Z" fill="black"/>
<path id="Vector_114" fill-rule="evenodd" clip-rule="evenodd" d="M63.9789 73.2188L64.1802 73.5937C64.2021 73.6362 64.2477 73.663 64.2831 73.654L64.499 73.5996C64.5341 73.5923 64.5445 73.5512 64.524 73.5099L64.3227 73.135C64.3008 73.0925 64.2553 73.0657 64.2198 73.0747L64.0039 73.1291C63.9688 73.1364 63.9584 73.1775 63.9789 73.2188Z" fill="black"/>
<path id="Vector_115" fill-rule="evenodd" clip-rule="evenodd" d="M63.2283 73.3953L63.4355 73.7702C63.4574 73.8113 63.5047 73.8394 63.5398 73.8304L63.7543 73.7761C63.7894 73.7688 63.7998 73.7277 63.7779 73.6849L63.5707 73.31C63.5488 73.2689 63.5018 73.2425 63.4664 73.2512L63.2519 73.3041C63.2168 73.3128 63.2064 73.3542 63.2283 73.3953Z" fill="black"/>
<path id="Vector_116" fill-rule="evenodd" clip-rule="evenodd" d="M62.4899 73.5717L62.694 73.9379C62.7159 73.979 62.7614 74.004 62.7969 73.9967L63.0113 73.9452C63.0465 73.9365 63.0583 73.8968 63.0364 73.8554L62.8337 73.491C62.8118 73.4499 62.7648 73.4234 62.7294 73.4321L62.5149 73.4836C62.4798 73.4924 62.4694 73.5321 62.4899 73.5717Z" fill="black"/>
<path id="Vector_117" fill-rule="evenodd" clip-rule="evenodd" d="M61.741 73.7628L61.9437 74.129C61.9656 74.1701 62.0125 74.1951 62.048 74.1878L62.2625 74.1363C62.2976 74.1276 62.308 74.0879 62.2875 74.0482L62.0834 73.6821C62.0615 73.641 62.0159 73.6145 61.9805 73.6232L61.766 73.6747C61.7309 73.6835 61.7191 73.7232 61.741 73.7628Z" fill="black"/>
<path id="Vector_118" fill-rule="evenodd" clip-rule="evenodd" d="M60.9949 73.9317L61.2021 74.3065C61.224 74.349 61.271 74.3758 61.3064 74.3668L61.5209 74.3139C61.5546 74.3051 61.5664 74.2638 61.5445 74.2227L61.3373 73.8464C61.3154 73.8053 61.2684 73.7788 61.233 73.7876L61.0185 73.8405C60.9834 73.8492 60.973 73.8906 60.9949 73.9317Z" fill="black"/>
<path id="Vector_119" fill-rule="evenodd" clip-rule="evenodd" d="M60.2564 74.1096L60.4605 74.4758C60.4825 74.5155 60.528 74.5419 60.5634 74.5332L60.7779 74.4817C60.813 74.473 60.8248 74.4333 60.8029 74.3936L60.5988 74.0274C60.5783 73.9863 60.5314 73.9613 60.4959 73.9686L60.2815 74.0215C60.2463 74.0288 60.2345 74.0685 60.2564 74.1096Z" fill="black"/>
<path id="Vector_120" fill-rule="evenodd" clip-rule="evenodd" d="M59.5075 74.301L59.7102 74.6671C59.7321 74.7068 59.7791 74.7333 59.8145 74.7245L60.029 74.673C60.0641 74.6643 60.0745 74.6246 60.054 74.5849L59.8499 74.2188C59.828 74.1777 59.7811 74.1526 59.7456 74.16L59.5311 74.2129C59.4974 74.2202 59.4856 74.2599 59.5075 74.301Z" fill="black"/>
<path id="Vector_121" fill-rule="evenodd" clip-rule="evenodd" d="M58.7542 74.4758L58.9554 74.8535C58.9774 74.8946 59.0229 74.9224 59.0583 74.9137L59.2742 74.8636C59.3094 74.8563 59.3212 74.8152 59.2992 74.7738L59.098 74.3961C59.076 74.3536 59.0305 74.3269 58.9951 74.3345L58.7792 74.3846C58.744 74.3933 58.7336 74.433 58.7542 74.4758Z" fill="black"/>
<path id="Vector_122" fill-rule="evenodd" clip-rule="evenodd" d="M58.0039 74.6404L58.2111 75.0181C58.233 75.0606 58.2802 75.0871 58.3154 75.0798L58.5299 75.0297C58.565 75.021 58.5754 74.9796 58.5535 74.9385L58.3463 74.5608C58.3244 74.5183 58.2771 74.4916 58.242 74.4992L58.0275 74.5492C57.9938 74.558 57.982 74.5977 58.0039 74.6404Z" fill="black"/>
<path id="Vector_123" fill-rule="evenodd" clip-rule="evenodd" d="M57.2669 74.8064L57.4696 75.1754C57.4915 75.2165 57.5387 75.2429 57.5738 75.2356L57.7883 75.1872C57.8235 75.1785 57.8339 75.1402 57.8119 75.0991L57.6093 74.7301C57.5873 74.6891 57.5404 74.6626 57.505 74.6699L57.2905 74.72C57.2553 74.7273 57.2449 74.767 57.2669 74.8067V74.8064Z" fill="black"/>
<path id="Vector_124" fill-rule="evenodd" clip-rule="evenodd" d="M56.5165 74.9874L56.7206 75.3564C56.7426 75.3975 56.7881 75.4239 56.8235 75.4152L57.038 75.3668C57.0731 75.3595 57.0849 75.3198 57.063 75.2787L56.8589 74.9111C56.837 74.87 56.7915 74.8436 56.756 74.8509L56.5416 74.8993C56.5064 74.9066 56.4946 74.9463 56.5165 74.9874Z" fill="black"/>
<path id="Vector_125" fill-rule="evenodd" clip-rule="evenodd" d="M55.7705 75.1447L55.9777 75.5241C55.9996 75.5652 56.0468 75.5931 56.082 75.5844L56.2965 75.5343C56.3316 75.5255 56.342 75.4859 56.3201 75.4431L56.1129 75.0654C56.091 75.0243 56.044 74.9964 56.0086 75.0051L55.7941 75.0552C55.759 75.0626 55.7486 75.1036 55.7705 75.145V75.1447Z" fill="black"/>
<path id="Vector_126" fill-rule="evenodd" clip-rule="evenodd" d="M65.0891 72.6336L65.2903 73.0085C65.3123 73.0496 65.3578 73.0778 65.3932 73.0688L65.6091 73.0144C65.6443 73.0071 65.6547 72.966 65.6341 72.9247L65.4329 72.5498C65.4109 72.5073 65.3654 72.4805 65.33 72.4895L65.1141 72.5424C65.0789 72.5512 65.0685 72.5925 65.0891 72.6336Z" fill="black"/>
<path id="Vector_127" fill-rule="evenodd" clip-rule="evenodd" d="M54.151 75.3108L54.3523 75.6857C54.3728 75.7268 54.4197 75.7532 54.4552 75.7445L54.6696 75.6916C54.7048 75.6829 54.7166 75.6415 54.6947 75.6004L54.4951 75.2255C54.4731 75.1844 54.4262 75.158 54.3908 75.1667L54.1763 75.2196C54.1412 75.2283 54.1293 75.2697 54.1513 75.3108H54.151Z" fill="black"/>
<path id="Vector_128" fill-rule="evenodd" clip-rule="evenodd" d="M81.3395 68.394L81.5391 68.7688C81.561 68.8113 81.608 68.8381 81.6434 68.8291L81.8579 68.7762C81.893 68.7674 81.9048 68.7261 81.8829 68.685L81.6816 68.3101C81.6611 68.2676 81.6142 68.2408 81.5787 68.2499L81.3642 68.3042C81.3291 68.3129 81.3173 68.3526 81.3392 68.394H81.3395Z" fill="black"/>
<path id="Vector_129" fill-rule="evenodd" clip-rule="evenodd" d="M94.9601 64.6876L95.1614 65.0625C95.1833 65.1035 95.2288 65.13 95.2643 65.1227L95.4802 65.0684C95.5153 65.0596 95.5271 65.02 95.5052 64.9786L95.3039 64.6037C95.282 64.5612 95.2364 64.5347 95.201 64.5435L94.9851 64.5964C94.95 64.6051 94.9396 64.6465 94.9601 64.6876Z" fill="black"/>
<path id="Vector_130" fill-rule="evenodd" clip-rule="evenodd" d="M24.9815 59.4026L47.1392 68.5572C48.8647 69.3599 50.9629 68.7351 51.5237 68.6836C51.6823 68.6689 48.0467 69.6025 47.7779 69.7024C46.2509 70.1831 44.668 70.5771 43.3566 70.7505C38.8341 68.5572 34.6624 66.4179 30.868 63.7394C28.8856 62.2767 26.8431 60.8653 24.9813 59.4026H24.9815Z" fill="#B5E3FC"/>
<path id="Vector_131" fill-rule="evenodd" clip-rule="evenodd" d="M47.6975 70.1786C46.1747 70.724 46.4202 71.6767 47.9412 71.4017C60.23 67.7514 62.0671 67.5839 75.4996 63.5483C81.6332 61.7487 89.1234 59.2818 94.3875 57.7617C102.318 55.4713 105.594 54.9259 109.164 53.9718C110.124 53.6822 111.988 52.7692 111.829 52.2429C111.669 51.7165 109.969 51.9561 109.007 52.2443C105.797 53.0999 100.581 54.2994 96.4227 55.5197C89.2996 57.6103 82.542 60.3285 75.2545 62.4484C61.5765 66.3855 59.1758 66.5648 47.6975 70.1783V70.1786Z" fill="white"/>
<path id="Vector_132" fill-rule="evenodd" clip-rule="evenodd" d="M98.4211 56.9326C98.4316 56.6872 98.5313 56.5738 98.6576 56.5034L99.3418 56.3109C99.4534 56.2932 99.5372 56.3328 99.5341 56.5462C99.5282 57.7457 99.6957 58.9174 100.026 60.0597C100.066 60.2272 100.017 60.3083 99.9408 60.3598L99.2991 60.5523C99.1051 60.6184 98.973 60.5627 98.8923 60.4023C98.5971 59.2731 98.4341 58.1178 98.4209 56.9329L98.4211 56.9326Z" stroke="#858585" stroke-width="2.61" stroke-linecap="round" stroke-linejoin="round"/>
<path id="Vector_133" fill-rule="evenodd" clip-rule="evenodd" d="M97.5326 49.0955C97.4182 48.9308 97.3313 48.7648 97.2653 48.5911C97.6015 48.7881 98.0068 48.8661 98.4752 48.8396C99.6732 48.8013 101.71 48.3426 103.093 47.7634L103.205 48.8146C101.844 49.4746 100.512 49.6893 99.1948 49.7318C98.4929 49.7729 97.9306 49.5759 97.5326 49.0952V49.0955Z" fill="#87C9F2"/>
<path id="Vector_134" fill-rule="evenodd" clip-rule="evenodd" d="M101.643 44.6925C102.337 44.1941 103.3 44.688 103.791 45.7921C104.283 46.8977 104.117 48.2002 103.422 48.6972C102.726 49.1957 101.765 48.7031 101.273 47.5976C100.782 46.4921 100.948 45.191 101.643 44.6925Z" fill="#2685EB"/>
<path id="Vector_135" fill-rule="evenodd" clip-rule="evenodd" d="M26.4751 107.016C25.8893 106.858 26.0978 106.758 26.3503 106.661C26.6924 106.508 27.3032 106.386 28.1359 106.288C29.8009 106.232 31.4999 106.177 33.2195 106.122C33.8245 106.076 34.3473 105.947 34.8393 105.789C34.3254 106.154 33.597 106.498 32.5353 106.807L30.086 107.493C29.4692 107.634 28.9421 107.624 28.4884 107.493L26.4754 107.015L26.4751 107.016Z" fill="#1F7DE5"/>
<path id="Vector_136" fill-rule="evenodd" clip-rule="evenodd" d="M91.731 35.801C91.6899 35.5702 91.5547 35.3496 91.3698 35.1689C91.4386 35.1982 91.5092 35.2263 91.5797 35.2556C92.0143 35.4422 92.3961 35.8202 92.4681 36.2375C93.8601 42.0843 95.9173 48.0338 98.3548 54.0407L97.76 54.2642L97.7572 54.2656C95.3871 48.3614 93.0862 41.493 91.731 35.8007V35.801Z" fill="#459CFF"/>
</g>
</g>
</svg>
