<svg width="168" height="168" viewBox="0 0 168 168" fill="none" xmlns="http://www.w3.org/2000/svg">
<g id="shoping bag" filter="url(#filter0_f_6_5743)">
<rect id="Rectangle 24" x="4" y="4" width="159.678" height="159.678" rx="55" fill="#BAF2E9"/>
<g id="Group 3">
<path id="Vector" d="M90.8464 20.9157C78.1834 20.1247 75.8656 37.1484 75.8261 46.2545C75.8105 49.7913 81.3253 49.7904 81.3409 46.2545C81.3672 40.2819 81.9314 26.8163 90.2525 26.3958C100.391 25.8838 99.5532 39.5654 99.5392 46.2545C99.5318 49.7913 105.047 49.7904 105.053 46.2545C105.075 35.708 104.454 21.7663 90.8472 20.9157H90.8464Z" fill="#333B3F"/>
<path id="Vector_2" d="M134.506 136.563H52.4034L62.265 38.9758H121.932L134.506 136.563Z" fill="#F6A30D"/>
<path id="Vector_3" d="M118.234 136.563H52.4034L62.265 38.9758H116.754L118.234 136.563Z" fill="#F39013"/>
<path id="Vector_4" d="M106.029 136.563H33.172L43.0336 38.9758H113.549L106.029 136.563Z" fill="#FBBA00"/>
<path id="Vector_5" d="M73.2288 46.7003C73.2288 48.9995 71.3543 50.8652 69.0415 50.8652C66.7287 50.8652 64.8542 49.0003 64.8542 46.7003C64.8542 44.4002 66.7287 42.537 69.0415 42.537C71.3543 42.537 73.2288 44.4011 73.2288 46.7003Z" fill="#F39013"/>
<path id="Vector_6" d="M96.7831 46.7003C96.7831 48.9995 94.9078 50.8652 92.5958 50.8652C90.2838 50.8652 88.4085 49.0003 88.4085 46.7003C88.4085 44.4002 90.283 42.537 92.5958 42.537C94.9086 42.537 96.7831 44.4011 96.7831 46.7003Z" fill="#F39013"/>
<path id="Vector_7" d="M81.4774 20.9157C68.8136 20.1247 66.4967 37.1484 66.4572 46.2545C66.4416 49.7913 71.9563 49.7904 71.972 46.2545C71.9983 40.2819 72.5617 26.8163 80.8836 26.3958C91.0224 25.8838 90.1843 39.5654 90.1703 46.2545C90.1629 49.7913 95.6776 49.7904 95.685 46.2545C95.7073 35.708 95.0863 21.7663 81.4782 20.9157H81.4774Z" fill="#454F56"/>
</g>
</g>
<defs>
<filter id="filter0_f_6_5743" x="0" y="0" width="167.678" height="167.678" filterUnits="userSpaceOnUse" color-interpolation-filters="sRGB">
<feFlood flood-opacity="0" result="BackgroundImageFix"/>
<feBlend mode="normal" in="SourceGraphic" in2="BackgroundImageFix" result="shape"/>
<feGaussianBlur stdDeviation="2" result="effect1_foregroundBlur_6_5743"/>
</filter>
</defs>
</svg>
