<svg width="138" height="138" viewBox="0 0 138 138" fill="none" xmlns="http://www.w3.org/2000/svg">
<g id="transaction" filter="url(#filter0_f_6_5758)">
<rect id="Rectangle 25" x="4" y="4" width="130" height="130" rx="55" fill="#BAF2E9"/>
<g id="Group 6">
<path id="Vector" d="M81.6397 17.5189L116.448 42.6678C117.17 43.1883 117.336 44.1983 116.816 44.9213C116.502 45.3602 116.008 45.5909 115.508 45.5937V45.5993H23.1171C22.2243 45.5993 21.5 44.8735 21.5 43.9788V31.3636C21.5 30.469 22.2243 29.7431 23.1171 29.7431H78.9671V18.7456C78.9671 17.8509 79.6914 17.1251 80.5842 17.1251C80.9884 17.1251 81.3562 17.2742 81.6397 17.5189ZM110.511 42.3583L82.2012 21.905V31.3636C82.2012 32.2583 81.4769 32.9841 80.5842 32.9841H24.7341V42.3583H110.511Z" fill="#013668"/>
<path id="Vector_2" d="M56.9853 120.444L22.1766 95.2952C21.4551 94.7747 21.2895 93.7647 21.8088 93.0417C22.1232 92.6028 22.6173 92.3721 23.1171 92.3693V92.3636H115.508C116.401 92.3636 117.125 93.0895 117.125 93.9842V106.599C117.125 107.494 116.401 108.22 115.508 108.22H59.6579V119.215C59.6579 120.109 58.9336 120.835 58.0409 120.835C57.6366 120.835 57.2689 120.686 56.9853 120.441V120.444ZM28.1142 95.6047L56.4238 116.058V106.599C56.4238 105.705 57.1481 104.979 58.0409 104.979H113.891V95.6047H28.1142Z" fill="#013668"/>
<path id="Vector_3" d="M69.3124 79.1013H85.4914L85.9518 78.6512C86.2746 74.4705 89.4835 73.7896 91.0051 73.7024L91.4963 73.2213V64.7502L91.0051 64.2691C89.4835 64.1819 86.2746 63.4983 85.9518 59.3204L85.4914 58.8703H53.1335L52.6731 59.3204C52.3502 63.5011 49.1414 64.1819 47.6198 64.2691L47.1285 64.7502V73.2213L47.6198 73.7024C49.1414 73.7896 52.3502 74.4733 52.6731 78.6512L53.1335 79.1013H69.3124ZM86.1427 82.3423H52.4794V82.3367C52.0751 82.3367 51.668 82.1848 51.3564 81.8781L50.0426 80.5896C49.6916 80.2914 49.4671 79.8469 49.4671 79.3517C49.4671 76.6931 47.1117 76.9322 47.1061 76.9322C46.6569 76.966 46.1908 76.8169 45.8427 76.4764L44.4699 75.1316C44.119 74.8334 43.8944 74.3889 43.8944 73.8937V64.0694H43.9C43.9 63.6474 44.0629 63.2282 44.3885 62.9103L45.7557 61.5683C46.0842 61.1997 46.5755 60.9831 47.1061 61.0281C47.1117 61.0281 49.4671 61.2673 49.4671 58.6086H49.4727C49.4727 58.1866 49.6355 57.7674 49.9612 57.4495L51.2694 56.1666C51.567 55.8318 51.9993 55.618 52.4822 55.618H86.1455V55.6236C86.5497 55.6236 86.9568 55.7755 87.2684 56.0822L88.5823 57.3707C88.9332 57.6689 89.1578 58.1135 89.1578 58.6086C89.1578 61.2673 91.5132 61.0281 91.5188 61.0281C91.968 60.9944 92.434 61.1435 92.7821 61.4839L94.1549 62.8287C94.5059 63.1269 94.7305 63.5714 94.7305 64.0666V73.8909H94.7248C94.7248 74.3129 94.562 74.7321 94.2364 75.05L92.8664 76.392C92.5379 76.7606 92.0466 76.9772 91.516 76.9322C91.5104 76.9322 89.155 76.6931 89.155 79.3517H89.1494C89.1494 79.7737 88.9865 80.1929 88.6609 80.5108L87.3527 81.7937C87.0551 82.1285 86.6227 82.3423 86.1399 82.3423H86.1427Z" fill="#013668"/>
<path id="Vector_4" d="M69.3124 60.2431C71.7211 60.2431 73.8997 61.2222 75.4774 62.8033C77.0552 64.3844 78.0321 66.5704 78.0321 68.9815C78.0321 71.3926 77.0552 73.5786 75.4774 75.1597C73.8997 76.7408 71.7183 77.7199 69.3124 77.7199C66.9065 77.7199 64.7251 76.7408 63.1474 75.1597C61.5697 73.5786 60.5927 71.3926 60.5927 68.9815C60.5927 66.5704 61.5697 64.3844 63.1474 62.8033C64.7251 61.2222 66.9065 60.2431 69.3124 60.2431ZM73.1922 65.0934C72.1984 64.0974 70.8284 63.4841 69.3124 63.4841C67.7964 63.4841 66.4264 64.1003 65.4326 65.0934C64.4388 66.0893 63.8268 67.4623 63.8268 68.9815C63.8268 70.5007 64.4416 71.8736 65.4326 72.8696C66.4264 73.8655 67.7964 74.4788 69.3124 74.4788C70.8284 74.4788 72.1984 73.8627 73.1922 72.8696C74.186 71.8736 74.798 70.5007 74.798 68.9815C74.798 67.4623 74.1832 66.0893 73.1922 65.0934Z" fill="#013668"/>
<path id="Vector_5" d="M40.1634 50.2637H98.4586C99.3514 50.2637 100.076 50.9896 100.076 51.8842V86.0753C100.076 86.97 99.3514 87.6958 98.4586 87.6958H40.1634C39.2706 87.6958 38.5463 86.97 38.5463 86.0753V51.8842C38.5463 50.9896 39.2706 50.2637 40.1634 50.2637ZM96.8416 53.5048H41.7804V84.4548H96.8416V53.5048Z" fill="#013668"/>
<path id="Vector_6" fill-rule="evenodd" clip-rule="evenodd" d="M24.7341 42.3581H110.511L82.2012 21.9048V31.3634C82.2012 32.258 81.4769 32.9839 80.5841 32.9839H24.7341V42.3581Z" fill="#FAC23C"/>
<path id="Vector_7" fill-rule="evenodd" clip-rule="evenodd" d="M113.891 95.6073H28.1142L56.4238 116.061V106.602C56.4238 105.707 57.1481 104.982 58.0408 104.982H113.891V95.6073Z" fill="#FAC23C"/>
<path id="Vector_8" fill-rule="evenodd" clip-rule="evenodd" d="M69.3126 79.1012H85.4915L85.9519 78.651C86.2748 74.4703 89.4836 73.7895 91.0052 73.7023L91.4965 73.2212V64.7501L91.0052 64.269C89.4836 64.1818 86.2748 63.4981 85.9519 59.3203L85.4915 58.8701H53.1336L52.6732 59.3203C52.3504 63.5009 49.1415 64.1818 47.6199 64.269L47.1286 64.7501V73.2212L47.6199 73.7023C49.1415 73.7895 52.3504 74.4732 52.6732 78.651L53.1336 79.1012H69.3126ZM75.4776 62.8032C77.0553 64.3844 78.0323 66.5704 78.0323 68.9814C78.0323 71.3925 77.0553 73.5785 75.4776 75.1596C73.8998 76.7407 71.7185 77.7198 69.3126 77.7198C66.9066 77.7198 64.7253 76.7407 63.1475 75.1596C61.5698 73.5785 60.5928 71.3925 60.5928 68.9814C60.5928 66.5704 61.5698 64.3844 63.1475 62.8032C64.7253 61.2221 66.9066 60.243 69.3126 60.243C71.7185 60.243 73.8998 61.2221 75.4776 62.8032Z" fill="#E0E0E0"/>
<path id="Vector_9" fill-rule="evenodd" clip-rule="evenodd" d="M73.1923 72.8694C74.1861 71.8735 74.7981 70.5005 74.7981 68.9813C74.7981 67.4621 74.1833 66.0891 73.1923 65.0932C72.1985 64.0973 70.8285 63.4839 69.3125 63.4839C67.7965 63.4839 66.4265 64.1001 65.4327 65.0932C64.4389 66.0891 63.8269 67.4621 63.8269 68.9813C63.8269 70.5005 64.4417 71.8735 65.4327 72.8694C66.4265 73.8653 67.7965 74.4787 69.3125 74.4787C70.8285 74.4787 72.1985 73.8625 73.1923 72.8694Z" fill="#80CBC4"/>
<path id="Vector_10" fill-rule="evenodd" clip-rule="evenodd" d="M89.1579 58.6112C89.1579 61.2698 91.5133 61.0307 91.5189 61.0307C91.9681 60.9969 92.4341 61.146 92.7822 61.4865L94.155 62.8313C94.5059 63.1295 94.7305 63.574 94.7305 64.0691V73.8935H94.7249C94.7249 74.3155 94.5621 74.7347 94.2364 75.0526L92.8664 76.3946C92.538 76.7631 92.0467 76.9798 91.5161 76.9348C91.5105 76.9348 89.1551 76.6956 89.1551 79.3543H89.1495C89.1495 79.7763 88.9866 80.1955 88.661 80.5134L87.3527 81.7963C87.0551 82.1311 86.6228 82.3449 86.1399 82.3449H52.4766V82.3393C52.0724 82.3393 51.6653 82.1874 51.3537 81.8807L50.0398 80.5922C49.6889 80.2939 49.4643 79.8494 49.4643 79.3543C49.4643 76.6956 47.1089 76.9348 47.1033 76.9348C46.6541 76.9685 46.1881 76.8194 45.84 76.479L44.4672 75.1342C44.1163 74.836 43.8917 74.3915 43.8917 73.8963V64.072H43.8973C43.8973 63.65 44.0601 63.2308 44.3858 62.9128L45.753 61.5709C46.0814 61.2023 46.5727 60.9857 47.1033 61.0307C47.1089 61.0307 49.4643 61.2698 49.4643 58.6112H49.4699C49.4699 58.1892 49.6328 57.77 49.9584 57.4521L51.2667 56.1692C51.5642 55.8344 51.9966 55.6206 52.4794 55.6206H86.1427V55.6262C86.547 55.6262 86.9541 55.7781 87.2657 56.0848L88.5796 57.3733C88.9305 57.6715 89.1551 58.116 89.1551 58.6112H89.1579ZM96.8445 53.5049H41.7805V84.4549H96.8417V53.5049H96.8445Z" fill="#80CBC4"/>
</g>
</g>
<defs>
<filter id="filter0_f_6_5758" x="0" y="0" width="138" height="138" filterUnits="userSpaceOnUse" color-interpolation-filters="sRGB">
<feFlood flood-opacity="0" result="BackgroundImageFix"/>
<feBlend mode="normal" in="SourceGraphic" in2="BackgroundImageFix" result="shape"/>
<feGaussianBlur stdDeviation="2" result="effect1_foregroundBlur_6_5758"/>
</filter>
</defs>
</svg>
