<svg width="31" height="20" viewBox="0 0 31 20" fill="none" xmlns="http://www.w3.org/2000/svg">
<g id="Group">
<g id="Group_2">
<g id="Group_3">
<path id="Vector" d="M31 5.98712H0V7.48388H31V5.98712Z" fill="#DB2E2E"/>
<path id="Vector_2" d="M31 2.99359H0V4.49035H31V2.99359Z" fill="#DB2E2E"/>
<path id="Vector_3" d="M31 0H0V1.49676H31V0Z" fill="#DB2E2E"/>
<path id="Vector_4" d="M31 8.98059H0V10.4773H31V8.98059Z" fill="#DB2E2E"/>
<path id="Vector_5" d="M31 11.9741H0V13.4708H31V11.9741Z" fill="#DB2E2E"/>
<path id="Vector_6" d="M31 14.9676H0V16.4643H31V14.9676Z" fill="#DB2E2E"/>
<path id="Vector_7" d="M31 17.952H0V19.4487H31V17.952Z" fill="#DB2E2E"/>
</g>
<path id="Vector_8" d="M31 4.4903H0V5.98705H31V4.4903Z" fill="white"/>
<path id="Vector_9" d="M31 1.49683H0V2.99359H31V1.49683Z" fill="white"/>
<path id="Vector_10" d="M31 7.48376H0V8.98052H31V7.48376Z" fill="white"/>
<path id="Vector_11" d="M31 10.4774H0V11.9741H31V10.4774Z" fill="white"/>
<path id="Vector_12" d="M31 13.4709H0V14.9676H31V13.4709Z" fill="white"/>
<path id="Vector_13" d="M31 16.4644H0V17.9611H31V16.4644Z" fill="white"/>
</g>
<path id="Vector_14" d="M11.5877 0.0458374H0V9.10903H11.5877V0.0458374Z" fill="#2E4593"/>
<g id="Group_4">
<g id="Group_5">
<path id="Vector_15" d="M9.68803 1.8456L9.80562 2.20372L9.51616 1.98333V1.97415V1.98333L9.22669 2.20372L9.34429 1.8456L9.04578 1.64358H9.40761L9.50711 1.28546L9.61566 1.64358H9.62471H9.98654L9.68803 1.8456H9.67898H9.68803Z" fill="white"/>
<path id="Vector_16" d="M9.68803 3.68211L9.80562 4.03105L9.51616 3.81067L9.22669 4.03105L9.34429 3.68211V3.67293L9.04578 3.47092H9.40761L9.50711 3.11279L9.61566 3.47092H9.62471H9.98654L9.68803 3.67293H9.67898L9.68803 3.68211Z" fill="white"/>
<path id="Vector_17" d="M9.68803 5.50942L9.80562 5.85836L9.51616 5.63797L9.22669 5.85836L9.34429 5.50942L9.04578 5.29822H9.40761L9.50711 4.94928L9.61566 5.29822H9.62471H9.98654L9.68803 5.50942H9.67898H9.68803Z" fill="white"/>
<path id="Vector_18" d="M9.68803 7.33675L9.80562 7.68569L9.51616 7.47448V7.4653V7.47448L9.22669 7.68569L9.34429 7.33675L9.04578 7.12555H9.40761L9.50711 6.77661L9.61566 7.12555V7.13473L9.62471 7.12555H9.98654L9.68803 7.33675H9.67898H9.68803Z" fill="white"/>
</g>
<g id="Group_6">
<path id="Vector_19" d="M7.7703 1.8456L7.89695 2.20372L7.59843 1.98333V1.97415V1.98333L7.30897 2.20372L7.42656 1.8456L7.12805 1.64358H7.48988L7.58939 1.28546L7.70698 1.64358H7.69794H7.70698H8.06882L7.7703 1.8456H7.76126H7.7703Z" fill="white"/>
<path id="Vector_20" d="M7.7703 3.68211L7.89695 4.03105L7.59843 3.81067L7.30897 4.03105L7.42656 3.68211V3.67293L7.12805 3.47092H7.48988L7.58939 3.11279L7.70698 3.47092H7.69794H7.70698H8.06882L7.7703 3.67293H7.76126L7.7703 3.68211Z" fill="white"/>
<path id="Vector_21" d="M7.7703 5.50942L7.89695 5.85836L7.59843 5.63797L7.30897 5.85836L7.42656 5.50942L7.12805 5.29822H7.48988L7.58939 4.94928L7.70698 5.29822H7.69794H7.70698H8.06882L7.7703 5.50942H7.76126H7.7703Z" fill="white"/>
<path id="Vector_22" d="M7.7703 7.33675L7.89695 7.68569L7.59843 7.47448V7.4653V7.47448L7.30897 7.68569L7.42656 7.33675L7.12805 7.12555H7.48988L7.58939 6.77661L7.70698 7.12555L7.69794 7.13473L7.70698 7.12555H8.06882L7.7703 7.33675H7.76126H7.7703Z" fill="white"/>
</g>
<g id="Group_7">
<path id="Vector_23" d="M5.85258 1.8456L5.97922 2.20372L5.68071 1.98333V1.97415V1.98333L5.39124 2.20372L5.50884 1.8456H5.51788H5.50884L5.21033 1.64358H5.57216L5.67166 1.28546L5.78926 1.64358H5.78021H5.78926H6.15109L5.85258 1.8456Z" fill="white"/>
<path id="Vector_24" d="M5.85258 3.68211L5.97922 4.03105L5.68071 3.81067L5.39124 4.03105L5.50884 3.68211L5.51788 3.67293H5.50884L5.21033 3.47092H5.57216L5.67166 3.11279L5.78926 3.47092H5.78021H5.78926H6.15109L5.85258 3.67293V3.68211Z" fill="white"/>
<path id="Vector_25" d="M5.85258 5.50942L5.97922 5.85836L5.68071 5.63797L5.39124 5.85836L5.50884 5.50942H5.51788H5.50884L5.21033 5.29822H5.57216L5.67166 4.94928L5.78926 5.29822H5.78021H5.78926H6.15109L5.85258 5.50942Z" fill="white"/>
<path id="Vector_26" d="M5.85258 7.33675L5.97922 7.68569L5.68071 7.47448V7.4653V7.47448L5.39124 7.68569L5.50884 7.33675H5.51788H5.50884L5.21033 7.12555H5.57216L5.67166 6.77661L5.78926 7.12555L5.78021 7.13473L5.78926 7.12555H6.15109L5.85258 7.33675Z" fill="white"/>
</g>
<g id="Group_8">
<path id="Vector_27" d="M3.97124 1.8456L4.08884 2.20372L3.79937 1.98333V1.97415V1.98333L3.50086 2.20372L3.6275 1.8456L3.31995 1.64358H3.69082L3.79033 1.28546L3.89888 1.64358H4.26976L3.9622 1.8456H3.97124Z" fill="white"/>
<path id="Vector_28" d="M3.97124 3.68211L4.08884 4.03105L3.79937 3.81067L3.50086 4.03105L3.6275 3.68211V3.67293L3.31995 3.47092H3.69082L3.79033 3.11279L3.89888 3.47092H4.26976L3.9622 3.67293L3.97124 3.68211Z" fill="white"/>
<path id="Vector_29" d="M3.97124 5.50942L4.08884 5.85836L3.79937 5.63797L3.50086 5.85836L3.6275 5.50942L3.31995 5.29822H3.69082L3.79033 4.94928L3.89888 5.29822H4.26976L3.9622 5.50942H3.97124Z" fill="white"/>
<path id="Vector_30" d="M3.97124 7.33675L4.08884 7.68569L3.79937 7.47448V7.4653V7.47448L3.50086 7.68569L3.6275 7.33675L3.31995 7.12555H3.69082L3.79033 6.77661L3.89888 7.12555V7.13473V7.12555H4.26976L3.9622 7.33675H3.97124Z" fill="white"/>
</g>
<g id="Group_9">
<path id="Vector_31" d="M2.08048 1.8456L2.19808 2.20372L1.90861 1.98333V1.97415V1.98333L1.61915 2.20372L1.73674 1.8456L1.43823 1.64358H1.80006L1.89957 1.28546L2.01716 1.64358H2.379L2.08048 1.8456H2.07144H2.08048Z" fill="white"/>
<path id="Vector_32" d="M2.08048 3.68211L2.19808 4.03105L1.90861 3.81067L1.61915 4.03105L1.73674 3.68211V3.67293L1.43823 3.47092H1.80006L1.89957 3.11279L2.01716 3.47092H2.379L2.08048 3.67293H2.07144L2.08048 3.68211Z" fill="white"/>
<path id="Vector_33" d="M2.08048 5.50942L2.19808 5.85836L1.90861 5.63797L1.61915 5.85836L1.73674 5.50942L1.43823 5.29822H1.80006L1.89957 4.94928L2.01716 5.29822H2.379L2.08048 5.50942H2.07144H2.08048Z" fill="white"/>
<path id="Vector_34" d="M2.08048 7.33675L2.19808 7.68569L1.90861 7.47448V7.4653V7.47448L1.61915 7.68569L1.73674 7.33675L1.43823 7.12555H1.80006L1.89957 6.77661L2.01716 7.12555V7.13473V7.12555H2.379L2.08048 7.33675H2.07144H2.08048Z" fill="white"/>
</g>
<g id="Group_10">
<path id="Vector_35" d="M10.6198 2.76387L10.7374 3.11281L10.4479 2.89243L10.1494 3.11281L10.2761 2.76387V2.75469L9.97754 2.55267H10.3394L10.4389 2.20374L10.5474 2.55267H10.9183L10.6107 2.75469L10.6198 2.76387Z" fill="white"/>
<path id="Vector_36" d="M10.6198 4.59133L10.7374 4.94026L10.4479 4.71988L10.1494 4.94026L10.2761 4.59133L9.97754 4.38013H10.3394L10.4389 4.03119L10.5474 4.38013H10.9183L10.6107 4.59133H10.6198Z" fill="white"/>
<path id="Vector_37" d="M10.6198 6.42769L10.7374 6.77663L10.4479 6.55625L10.1494 6.77663L10.2761 6.42769V6.41851L9.97754 6.21649H10.3394L10.4389 5.86755L10.5474 6.21649H10.9183L10.6107 6.41851L10.6198 6.42769Z" fill="white"/>
<path id="Vector_38" d="M10.6198 8.25508L10.7374 8.6132L10.4479 8.39282V8.38364V8.39282L10.1494 8.6132L10.2761 8.25508L9.97754 8.05307H10.3394L10.4389 7.69495L10.5474 8.05307H10.9183L10.6107 8.25508H10.6198Z" fill="white"/>
<path id="Vector_39" d="M10.6198 0.9366L10.7374 1.29472L10.4479 1.07434V1.06516V1.07434L10.1494 1.29472L10.2761 0.9366L9.97754 0.734584H10.3394L10.4389 0.376465L10.5474 0.734584H10.9183L10.6107 0.9366H10.6198Z" fill="white"/>
</g>
<g id="Group_11">
<path id="Vector_40" d="M8.7382 2.76387L8.86484 3.11281L8.57538 2.89243L8.27686 3.11281L8.40351 2.76387V2.75469L8.09595 2.55267H8.46683L8.56633 2.20374L8.67488 2.55267H9.04576L8.7382 2.75469V2.76387Z" fill="white"/>
<path id="Vector_41" d="M8.7382 4.59133L8.86484 4.94026L8.57538 4.71988L8.27686 4.94026L8.40351 4.59133L8.09595 4.38013H8.46683L8.56633 4.03119L8.67488 4.38013H9.04576L8.7382 4.59133Z" fill="white"/>
<path id="Vector_42" d="M8.7382 6.42769L8.86484 6.77663L8.57538 6.55625L8.27686 6.77663L8.40351 6.42769V6.41851L8.09595 6.21649H8.46683L8.56633 5.86755L8.67488 6.21649H9.04576L8.7382 6.41851V6.42769Z" fill="white"/>
<path id="Vector_43" d="M8.7382 8.25508L8.86484 8.6132L8.57538 8.39282V8.38364V8.39282L8.27686 8.6132L8.40351 8.25508L8.09595 8.05307H8.46683L8.56633 7.69495L8.67488 8.05307H9.04576L8.7382 8.25508Z" fill="white"/>
<path id="Vector_44" d="M8.7382 0.9366L8.86484 1.29472L8.57538 1.07434V1.06516V1.07434L8.27686 1.29472L8.40351 0.9366L8.09595 0.734584H8.46683L8.56633 0.376465L8.67488 0.734584H9.04576L8.7382 0.9366Z" fill="white"/>
</g>
<g id="Group_12">
<path id="Vector_45" d="M6.79338 2.76387L6.92002 3.11281L6.62151 2.89243L6.33204 3.11281L6.44963 2.76387V2.75469L6.15112 2.55267H6.51296L6.61246 2.20374L6.72101 2.55267H6.73005H7.09189L6.79338 2.75469H6.78433L6.79338 2.76387Z" fill="white"/>
<path id="Vector_46" d="M6.79338 4.59133L6.92002 4.94026L6.62151 4.71988L6.33204 4.94026L6.44963 4.59133L6.15112 4.38013H6.51296L6.61246 4.03119L6.72101 4.38013H6.73005H7.09189L6.79338 4.59133H6.78433H6.79338Z" fill="white"/>
<path id="Vector_47" d="M6.79338 6.42769L6.92002 6.77663L6.62151 6.55625L6.33204 6.77663L6.44963 6.42769V6.41851L6.15112 6.21649H6.51296L6.61246 5.86755L6.72101 6.21649H6.73005H7.09189L6.79338 6.41851H6.78433L6.79338 6.42769Z" fill="white"/>
<path id="Vector_48" d="M6.79338 8.25508L6.92002 8.6132L6.62151 8.39282V8.38364V8.39282L6.33204 8.6132L6.44963 8.25508L6.15112 8.05307H6.51296L6.61246 7.69495L6.72101 8.05307H6.73005H7.09189L6.79338 8.25508H6.78433H6.79338Z" fill="white"/>
<path id="Vector_49" d="M6.79338 0.9366L6.92002 1.29472L6.62151 1.07434V1.06516V1.07434L6.33204 1.29472L6.44963 0.9366L6.15112 0.734584H6.51296L6.61246 0.376465L6.72101 0.734584H6.73005H7.09189L6.79338 0.9366H6.78433H6.79338Z" fill="white"/>
</g>
<g id="Group_13">
<path id="Vector_50" d="M4.88468 2.76387L5.01133 3.11281L4.71281 2.89243L4.42335 3.11281L4.54094 2.76387L4.54999 2.75469H4.54094L4.24243 2.55267H4.60426L4.70377 2.20374L4.82136 2.55267H5.1832L4.88468 2.75469V2.76387Z" fill="white"/>
<path id="Vector_51" d="M4.88468 4.59133L5.01133 4.94026L4.71281 4.71988L4.42335 4.94026L4.54094 4.59133H4.54999H4.54094L4.24243 4.38013H4.60426L4.70377 4.03119L4.82136 4.38013H5.1832L4.88468 4.59133Z" fill="white"/>
<path id="Vector_52" d="M4.88468 6.42769L5.01133 6.77663L4.71281 6.55625L4.42335 6.77663L4.54094 6.42769L4.54999 6.41851H4.54094L4.24243 6.21649H4.60426L4.70377 5.86755L4.82136 6.21649H5.1832L4.88468 6.41851V6.42769Z" fill="white"/>
<path id="Vector_53" d="M4.88468 8.25508L5.01133 8.6132L4.71281 8.39282V8.38364V8.39282L4.42335 8.6132L4.54094 8.25508H4.54999H4.54094L4.24243 8.05307H4.60426L4.70377 7.69495L4.82136 8.05307H5.1832L4.88468 8.25508Z" fill="white"/>
<path id="Vector_54" d="M4.88468 0.9366L5.01133 1.29472L4.71281 1.07434V1.06516V1.07434L4.42335 1.29472L4.54094 0.9366H4.54999H4.54094L4.24243 0.734584H4.60426L4.70377 0.376465L4.82136 0.734584H5.1832L4.88468 0.9366Z" fill="white"/>
</g>
<g id="Group_14">
<path id="Vector_55" d="M3.02128 2.76387L3.13888 3.11281L2.84941 2.89243L2.5509 3.11281L2.67754 2.76387V2.75469L2.37903 2.55267H2.74086L2.84036 2.20374L2.94891 2.55267H3.31979L3.01224 2.75469L3.02128 2.76387Z" fill="white"/>
<path id="Vector_56" d="M3.02128 4.59133L3.13888 4.94026L2.84941 4.71988L2.5509 4.94026L2.67754 4.59133L2.37903 4.38013H2.74086L2.84036 4.03119L2.94891 4.38013H3.31979L3.01224 4.59133H3.02128Z" fill="white"/>
<path id="Vector_57" d="M3.02128 6.42769L3.13888 6.77663L2.84941 6.55625L2.5509 6.77663L2.67754 6.42769V6.41851L2.37903 6.21649H2.74086L2.84036 5.86755L2.94891 6.21649H3.31979L3.01224 6.41851L3.02128 6.42769Z" fill="white"/>
<path id="Vector_58" d="M3.02128 8.25508L3.13888 8.6132L2.84941 8.39282V8.38364V8.39282L2.5509 8.6132L2.67754 8.25508L2.37903 8.05307H2.74086L2.84036 7.69495L2.94891 8.05307H3.31979L3.01224 8.25508H3.02128Z" fill="white"/>
<path id="Vector_59" d="M3.02128 0.9366L3.13888 1.29472L2.84941 1.07434V1.06516V1.07434L2.5509 1.29472L2.67754 0.9366L2.37903 0.734584H2.74086L2.84036 0.376465L2.94891 0.734584H3.31979L3.01224 0.9366H3.02128Z" fill="white"/>
</g>
<g id="Group_15">
<path id="Vector_60" d="M1.12162 2.76387L1.23922 3.11281L0.949752 2.89243L0.660286 3.11281L0.777882 2.76387L0.786928 2.75469H0.777882L0.47937 2.55267H0.841203L0.940707 2.20374L1.04926 2.55267H1.42013L1.12162 2.75469V2.76387Z" fill="white"/>
<path id="Vector_61" d="M1.12162 4.59133L1.23922 4.94026L0.949752 4.71988L0.660286 4.94026L0.777882 4.59133H0.786928H0.777882L0.47937 4.38013H0.841203L0.940707 4.03119L1.04926 4.38013H1.42013L1.12162 4.59133Z" fill="white"/>
<path id="Vector_62" d="M1.12162 6.42769L1.23922 6.77663L0.949752 6.55625L0.660286 6.77663L0.777882 6.42769L0.786928 6.41851H0.777882L0.47937 6.21649H0.841203L0.940707 5.86755L1.04926 6.21649H1.42013L1.12162 6.41851V6.42769Z" fill="white"/>
<path id="Vector_63" d="M1.12162 8.25508L1.23922 8.6132L0.949752 8.39282V8.38364V8.39282L0.660286 8.6132L0.777882 8.25508H0.786928H0.777882L0.47937 8.05307H0.841203L0.940707 7.69495L1.04926 8.05307H1.42013L1.12162 8.25508Z" fill="white"/>
<path id="Vector_64" d="M1.12162 0.9366L1.23922 1.29472L0.949752 1.07434V1.06516V1.07434L0.660286 1.29472L0.777882 0.9366H0.786928H0.777882L0.47937 0.734584H0.841203L0.940707 0.376465L1.04926 0.734584H1.42013L1.12162 0.9366Z" fill="white"/>
</g>
</g>
</g>
</svg>
